%TF.GenerationSoftware,KiCad,Pcbnew,9.0.7*%
%TF.CreationDate,2026-03-24T11:17:02+00:00*%
%TF.ProjectId,ArkMetrica_SMU_4x_RJ45,41726b4d-6574-4726-9963-615f534d555f,rev?*%
%TF.SameCoordinates,Original*%
%TF.FileFunction,Copper,L1,Top*%
%TF.FilePolarity,Positive*%
%FSLAX46Y46*%
G04 Gerber Fmt 4.6, Leading zero omitted, Abs format (unit mm)*
G04 Created by KiCad (PCBNEW 9.0.7) date 2026-03-24 11:17:02*
%MOMM*%
%LPD*%
G01*
G04 APERTURE LIST*
%TA.AperFunction,ComponentPad*%
%ADD10C,2.400000*%
%TD*%
%TA.AperFunction,ComponentPad*%
%ADD11C,1.400000*%
%TD*%
%TA.AperFunction,ComponentPad*%
%ADD12C,0.900000*%
%TD*%
%TA.AperFunction,ComponentPad*%
%ADD13C,8.600000*%
%TD*%
%TA.AperFunction,ComponentPad*%
%ADD14R,1.500000X1.500000*%
%TD*%
%TA.AperFunction,ComponentPad*%
%ADD15C,1.500000*%
%TD*%
%TA.AperFunction,ViaPad*%
%ADD16C,0.600000*%
%TD*%
%TA.AperFunction,Conductor*%
%ADD17C,1.500000*%
%TD*%
%TA.AperFunction,Conductor*%
%ADD18C,1.250000*%
%TD*%
G04 APERTURE END LIST*
D10*
%TO.P,J4,MH4,MH4*%
%TO.N,SHIELD*%
X31320000Y-54900000D03*
%TO.P,J4,MH3,MH3*%
X15570000Y-54900000D03*
D11*
%TO.P,J4,8,8*%
%TO.N,CH4_FORCE_HI*%
X27890000Y-42960000D03*
%TO.P,J4,7,7*%
%TO.N,CH4_SENSE_HI*%
X26620000Y-45500000D03*
%TO.P,J4,6,6*%
%TO.N,CH4_SENSE_LO*%
X25350000Y-42960000D03*
%TO.P,J4,5,5*%
%TO.N,CH4_FORCE_LO*%
X24080000Y-45500000D03*
%TO.P,J4,4,4*%
%TO.N,unconnected-(J4-Pad4)*%
X22810000Y-42960000D03*
%TO.P,J4,3,3*%
%TO.N,unconnected-(J4-Pad3)*%
X21540000Y-45500000D03*
%TO.P,J4,2,2*%
%TO.N,CHASSIS*%
X20270000Y-42960000D03*
%TO.P,J4,1,1*%
X19000000Y-45500000D03*
%TD*%
D10*
%TO.P,J2,MH4,MH4*%
%TO.N,SHIELD*%
X69320000Y-54900000D03*
%TO.P,J2,MH3,MH3*%
X53570000Y-54900000D03*
D11*
%TO.P,J2,8,8*%
%TO.N,CH2_FORCE_HI*%
X65890000Y-42960000D03*
%TO.P,J2,7,7*%
%TO.N,CH2_SENSE_HI*%
X64620000Y-45500000D03*
%TO.P,J2,6,6*%
%TO.N,CH2_SENSE_LO*%
X63350000Y-42960000D03*
%TO.P,J2,5,5*%
%TO.N,CH2_FORCE_LO*%
X62080000Y-45500000D03*
%TO.P,J2,4,4*%
%TO.N,unconnected-(J2-Pad4)*%
X60810000Y-42960000D03*
%TO.P,J2,3,3*%
%TO.N,unconnected-(J2-Pad3)*%
X59540000Y-45500000D03*
%TO.P,J2,2,2*%
%TO.N,CHASSIS*%
X58270000Y-42960000D03*
%TO.P,J2,1,1*%
X57000000Y-45500000D03*
%TD*%
D10*
%TO.P,J1,MH4,MH4*%
%TO.N,SHIELD*%
X88320000Y-54900000D03*
%TO.P,J1,MH3,MH3*%
X72570000Y-54900000D03*
D11*
%TO.P,J1,8,8*%
%TO.N,CH1_FORCE_HI*%
X84890000Y-42960000D03*
%TO.P,J1,7,7*%
%TO.N,CH1_SENSE_HI*%
X83620000Y-45500000D03*
%TO.P,J1,6,6*%
%TO.N,CH1_SENSE_LO*%
X82350000Y-42960000D03*
%TO.P,J1,5,5*%
%TO.N,CH1_FORCE_LO*%
X81080000Y-45500000D03*
%TO.P,J1,4,4*%
%TO.N,unconnected-(J1-Pad4)*%
X79810000Y-42960000D03*
%TO.P,J1,3,3*%
%TO.N,unconnected-(J1-Pad3)*%
X78540000Y-45500000D03*
%TO.P,J1,2,2*%
%TO.N,CHASSIS*%
X77270000Y-42960000D03*
%TO.P,J1,1,1*%
X76000000Y-45500000D03*
%TD*%
D12*
%TO.P,H4,1,1*%
%TO.N,CHASSIS*%
X5575000Y-8800000D03*
X6519581Y-6519581D03*
X6519581Y-11080419D03*
X8800000Y-5575000D03*
D13*
X8800000Y-8800000D03*
D12*
X8800000Y-12025000D03*
X11080419Y-6519581D03*
X11080419Y-11080419D03*
X12025000Y-8800000D03*
%TD*%
%TO.P,H3,1,1*%
%TO.N,CHASSIS*%
X5575000Y-73200000D03*
X6519581Y-70919581D03*
X6519581Y-75480419D03*
X8800000Y-69975000D03*
D13*
X8800000Y-73200000D03*
D12*
X8800000Y-76425000D03*
X11080419Y-70919581D03*
X11080419Y-75480419D03*
X12025000Y-73200000D03*
%TD*%
%TO.P,H2,1,1*%
%TO.N,CHASSIS*%
X91975000Y-73200000D03*
X92919581Y-70919581D03*
X92919581Y-75480419D03*
X95200000Y-69975000D03*
D13*
X95200000Y-73200000D03*
D12*
X95200000Y-76425000D03*
X97480419Y-70919581D03*
X97480419Y-75480419D03*
X98425000Y-73200000D03*
%TD*%
%TO.P,H1,1,1*%
%TO.N,CHASSIS*%
X91975000Y-8800000D03*
X92919581Y-6519581D03*
X92919581Y-11080419D03*
X95200000Y-5575000D03*
D13*
X95200000Y-8800000D03*
D12*
X95200000Y-12025000D03*
X97480419Y-6519581D03*
X97480419Y-11080419D03*
X98425000Y-8800000D03*
%TD*%
D14*
%TO.P,J5,1,Pin_1*%
%TO.N,CH1_FORCE_HI*%
X60890000Y-21250000D03*
D15*
%TO.P,J5,2,Pin_2*%
%TO.N,CH1_SENSE_HI*%
X60890000Y-18710000D03*
%TO.P,J5,3,Pin_3*%
%TO.N,CH2_FORCE_HI*%
X58350000Y-21250000D03*
%TO.P,J5,4,Pin_4*%
%TO.N,CH2_SENSE_HI*%
X58350000Y-18710000D03*
%TO.P,J5,5,Pin_5*%
%TO.N,CH3_FORCE_HI*%
X55810000Y-21250000D03*
%TO.P,J5,6,Pin_6*%
%TO.N,CH3_SENSE_HI*%
X55810000Y-18710000D03*
%TO.P,J5,7,Pin_7*%
%TO.N,CH4_FORCE_HI*%
X53270000Y-21250000D03*
%TO.P,J5,8,Pin_8*%
%TO.N,CH4_SENSE_HI*%
X53270000Y-18710000D03*
%TO.P,J5,9,Pin_9*%
%TO.N,CH1_FORCE_LO*%
X50730000Y-21250000D03*
%TO.P,J5,10,Pin_10*%
%TO.N,CH1_SENSE_LO*%
X50730000Y-18710000D03*
%TO.P,J5,11,Pin_11*%
%TO.N,CH2_FORCE_LO*%
X48190000Y-21250000D03*
%TO.P,J5,12,Pin_12*%
%TO.N,CH2_SENSE_LO*%
X48190000Y-18710000D03*
%TO.P,J5,13,Pin_13*%
%TO.N,CH3_FORCE_LO*%
X45650000Y-21250000D03*
%TO.P,J5,14,Pin_14*%
%TO.N,CH3_SENSE_LO*%
X45650000Y-18710000D03*
%TO.P,J5,15,Pin_15*%
%TO.N,CH4_FORCE_LO*%
X43110000Y-21250000D03*
%TO.P,J5,16,Pin_16*%
%TO.N,CH4_SENSE_LO*%
X43110000Y-18710000D03*
%TD*%
D10*
%TO.P,J3,MH4,MH4*%
%TO.N,SHIELD*%
X50320000Y-54900000D03*
%TO.P,J3,MH3,MH3*%
X34570000Y-54900000D03*
D11*
%TO.P,J3,8,8*%
%TO.N,CH3_FORCE_HI*%
X46890000Y-42960000D03*
%TO.P,J3,7,7*%
%TO.N,CH3_SENSE_HI*%
X45620000Y-45500000D03*
%TO.P,J3,6,6*%
%TO.N,CH3_SENSE_LO*%
X44350000Y-42960000D03*
%TO.P,J3,5,5*%
%TO.N,CH3_FORCE_LO*%
X43080000Y-45500000D03*
%TO.P,J3,4,4*%
%TO.N,unconnected-(J3-Pad4)*%
X41810000Y-42960000D03*
%TO.P,J3,3,3*%
%TO.N,unconnected-(J3-Pad3)*%
X40540000Y-45500000D03*
%TO.P,J3,2,2*%
%TO.N,CHASSIS*%
X39270000Y-42960000D03*
%TO.P,J3,1,1*%
X38000000Y-45500000D03*
%TD*%
D16*
%TO.N,SHIELD*%
X46000000Y-59000000D03*
X47000000Y-58000000D03*
X42000000Y-55000000D03*
X43000000Y-54000000D03*
%TO.N,CHASSIS*%
X61000000Y-56000000D03*
X61000000Y-55000000D03*
X56000000Y-56000000D03*
X56000000Y-55000000D03*
X80000000Y-56000000D03*
X80000000Y-55000000D03*
X75000000Y-56000000D03*
X75000000Y-55000000D03*
%TO.N,SHIELD*%
X72000000Y-35000000D03*
X72000000Y-36000000D03*
X72000000Y-34000000D03*
X72000000Y-33000000D03*
X66000000Y-35000000D03*
X66000000Y-36000000D03*
X66000000Y-34000000D03*
X66000000Y-33000000D03*
X36000000Y-38000000D03*
X36000000Y-39000000D03*
X36000000Y-37000000D03*
X36000000Y-36000000D03*
X30000000Y-39000000D03*
X30000000Y-38000000D03*
X30000000Y-37000000D03*
X30000000Y-36000000D03*
X7000000Y-36000000D03*
X7000000Y-34000000D03*
X7000000Y-38000000D03*
X7000000Y-39000000D03*
X7000000Y-37000000D03*
X7000000Y-35000000D03*
X16000000Y-36000000D03*
X16000000Y-34000000D03*
X16000000Y-38000000D03*
X16000000Y-39000000D03*
X16000000Y-37000000D03*
X16000000Y-35000000D03*
X34000000Y-66000000D03*
X33000000Y-66000000D03*
X32000000Y-66000000D03*
X31000000Y-66000000D03*
X30000000Y-66000000D03*
X29000000Y-66000000D03*
X34000000Y-59000000D03*
X33000000Y-59000000D03*
X32000000Y-59000000D03*
X31000000Y-59000000D03*
X30000000Y-59000000D03*
X29000000Y-59000000D03*
%TO.N,CHASSIS*%
X6000000Y-17500000D03*
%TD*%
D17*
%TO.N,SHIELD*%
X46000000Y-59000000D02*
X47000000Y-58000000D01*
X42000000Y-55000000D02*
X43000000Y-54000000D01*
X43000000Y-54000000D02*
X47000000Y-58000000D01*
X42000000Y-55000000D02*
X46000000Y-59000000D01*
D18*
X72000000Y-33000000D02*
X72000000Y-36000000D01*
X66000000Y-33000000D02*
X66000000Y-36000000D01*
X66000000Y-36000000D02*
X72000000Y-36000000D01*
X66000000Y-35000000D02*
X72000000Y-35000000D01*
X66000000Y-34000000D02*
X72000000Y-34000000D01*
X66000000Y-33000000D02*
X72000000Y-33000000D01*
X30000000Y-36000000D02*
X30000000Y-39000000D01*
X36000000Y-36000000D02*
X36000000Y-39000000D01*
X30000000Y-39000000D02*
X36000000Y-39000000D01*
X30000000Y-38000000D02*
X36000000Y-38000000D01*
X30000000Y-37000000D02*
X36000000Y-37000000D01*
X30000000Y-36000000D02*
X36000000Y-36000000D01*
X7000000Y-34000000D02*
X7000000Y-39000000D01*
X16000000Y-34000000D02*
X16000000Y-39000000D01*
X7000000Y-39000000D02*
X16000000Y-39000000D01*
X7000000Y-38000000D02*
X16000000Y-38000000D01*
X7000000Y-37000000D02*
X16000000Y-37000000D01*
X7000000Y-36000000D02*
X16000000Y-36000000D01*
X7000000Y-35000000D02*
X16000000Y-35000000D01*
X7000000Y-34000000D02*
X16000000Y-34000000D01*
X29000000Y-59000000D02*
X34000000Y-59000000D01*
X29000000Y-66000000D02*
X34000000Y-66000000D01*
X34000000Y-59000000D02*
X34000000Y-66000000D01*
X33000000Y-59000000D02*
X33000000Y-66000000D01*
X32000000Y-59000000D02*
X32000000Y-66000000D01*
X31000000Y-59000000D02*
X31000000Y-66000000D01*
X30000000Y-59000000D02*
X30000000Y-66000000D01*
X29000000Y-59000000D02*
X29000000Y-66000000D01*
D17*
%TO.N,CH4_SENSE_HI*%
X88909154Y-62902000D02*
X87499999Y-62901999D01*
X39316000Y-59684000D02*
X39316000Y-50778844D01*
X53270000Y-14918846D02*
X58291846Y-9897000D01*
X58291846Y-9897000D02*
X83613734Y-9897000D01*
X83613734Y-9897000D02*
X94000000Y-20283269D01*
X53270000Y-18710000D02*
X53270000Y-14918846D01*
X94000000Y-20283269D02*
X94000000Y-57811154D01*
X42533999Y-62901999D02*
X39316000Y-59684000D01*
X94000000Y-57811154D02*
X88909154Y-62902000D01*
X87499999Y-62901999D02*
X42533999Y-62901999D01*
X37801156Y-49264000D02*
X30384000Y-49264000D01*
X39316000Y-50778844D02*
X37801156Y-49264000D01*
X30384000Y-49264000D02*
X26620000Y-45500000D01*
%TO.N,CH3_SENSE_HI*%
X55810000Y-18710000D02*
X55810000Y-14784423D01*
X55810000Y-14784423D02*
X58996423Y-11598000D01*
X47500000Y-49000000D02*
X45620000Y-47120000D01*
X45620000Y-47120000D02*
X45620000Y-45500000D01*
X58996423Y-11598000D02*
X82909156Y-11598000D01*
X82909156Y-11598000D02*
X92201000Y-20889846D01*
X92201000Y-20889846D02*
X92201000Y-57204578D01*
X92201000Y-57204578D02*
X88204577Y-61201000D01*
X88204577Y-61201000D02*
X62201000Y-61201000D01*
X62201000Y-61201000D02*
X58500000Y-57500000D01*
X58500000Y-50962844D02*
X56537156Y-49000000D01*
X58500000Y-57500000D02*
X58500000Y-50962844D01*
X56537156Y-49000000D02*
X47500000Y-49000000D01*
%TO.N,CH2_SENSE_HI*%
X79500000Y-59500000D02*
X87500000Y-59500000D01*
X77500000Y-50962844D02*
X77500000Y-57500000D01*
X59701000Y-13299000D02*
X58350000Y-14650000D01*
X75537156Y-49000000D02*
X77500000Y-50962844D01*
X64620000Y-45500000D02*
X67500000Y-45500000D01*
X67500000Y-45500000D02*
X71000000Y-49000000D01*
X58350000Y-14650000D02*
X58350000Y-18710000D01*
X90500000Y-56500000D02*
X90500000Y-21594423D01*
X77500000Y-57500000D02*
X79500000Y-59500000D01*
X90500000Y-21594423D02*
X82204578Y-13299000D01*
X71000000Y-49000000D02*
X75537156Y-49000000D01*
X87500000Y-59500000D02*
X90500000Y-56500000D01*
X82204578Y-13299000D02*
X59701000Y-13299000D01*
%TO.N,CH1_SENSE_HI*%
X60890000Y-18710000D02*
X60890000Y-16110000D01*
X81500000Y-15000000D02*
X88500000Y-22000000D01*
X60890000Y-16110000D02*
X62000000Y-15000000D01*
X62000000Y-15000000D02*
X81500000Y-15000000D01*
X88500000Y-22000000D02*
X88500000Y-47500000D01*
X88500000Y-47500000D02*
X87500000Y-48500000D01*
X87500000Y-48500000D02*
X85000000Y-48500000D01*
X85000000Y-48500000D02*
X83620000Y-47120000D01*
X83620000Y-47120000D02*
X83620000Y-45500000D01*
%TO.N,CH4_FORCE_HI*%
X53270000Y-21250000D02*
X53270000Y-24730000D01*
X53270000Y-24730000D02*
X48000000Y-30000000D01*
X48000000Y-30000000D02*
X33000000Y-30000000D01*
X33000000Y-30000000D02*
X27890000Y-35110000D01*
X27890000Y-35110000D02*
X27890000Y-42960000D01*
%TO.N,CH3_FORCE_HI*%
X46890000Y-40000000D02*
X46890000Y-39610000D01*
X46890000Y-42960000D02*
X46890000Y-40000000D01*
X46890000Y-39610000D02*
X55810000Y-30690000D01*
X55810000Y-30690000D02*
X55810000Y-21250000D01*
%TO.N,CH2_FORCE_HI*%
X65890000Y-42960000D02*
X65890000Y-39890000D01*
X65890000Y-39890000D02*
X58350000Y-32350000D01*
X58350000Y-32350000D02*
X58350000Y-21250000D01*
%TO.N,CH1_FORCE_HI*%
X60890000Y-21250000D02*
X60890000Y-24390000D01*
X84890000Y-33890000D02*
X84890000Y-42960000D01*
X60890000Y-24390000D02*
X66500000Y-30000000D01*
X66500000Y-30000000D02*
X81000000Y-30000000D01*
X81000000Y-30000000D02*
X84890000Y-33890000D01*
%TD*%
%TA.AperFunction,Conductor*%
%TO.N,CHASSIS*%
G36*
X80997703Y-16270185D02*
G01*
X81018345Y-16286819D01*
X87213181Y-22481655D01*
X87246666Y-22542978D01*
X87249500Y-22569336D01*
X87249500Y-46930664D01*
X87229815Y-46997703D01*
X87213181Y-47018345D01*
X87018345Y-47213181D01*
X86957022Y-47246666D01*
X86930664Y-47249500D01*
X85569337Y-47249500D01*
X85502298Y-47229815D01*
X85481656Y-47213181D01*
X84906819Y-46638344D01*
X84873334Y-46577021D01*
X84870500Y-46550663D01*
X84870500Y-45401577D01*
X84839709Y-45207173D01*
X84798356Y-45079903D01*
X84778884Y-45019975D01*
X84778882Y-45019972D01*
X84778882Y-45019970D01*
X84731743Y-44927455D01*
X84689524Y-44844595D01*
X84573828Y-44685354D01*
X84434646Y-44546172D01*
X84275405Y-44430476D01*
X84100029Y-44341117D01*
X83912826Y-44280290D01*
X83718422Y-44249500D01*
X83718417Y-44249500D01*
X83521583Y-44249500D01*
X83521578Y-44249500D01*
X83327173Y-44280290D01*
X83139970Y-44341117D01*
X82964594Y-44430476D01*
X82905149Y-44473666D01*
X82805354Y-44546172D01*
X82805352Y-44546174D01*
X82805351Y-44546174D01*
X82666174Y-44685351D01*
X82666174Y-44685352D01*
X82666172Y-44685354D01*
X82642508Y-44717925D01*
X82550476Y-44844594D01*
X82461118Y-45019969D01*
X82461116Y-45019974D01*
X82461116Y-45019975D01*
X82441645Y-45079902D01*
X82441644Y-45079904D01*
X82402205Y-45137579D01*
X82337846Y-45164776D01*
X82269000Y-45152861D01*
X82217525Y-45105616D01*
X82205783Y-45079904D01*
X82192547Y-45039168D01*
X82106760Y-44870801D01*
X81995690Y-44717927D01*
X81862073Y-44584310D01*
X81709199Y-44473240D01*
X81540836Y-44387454D01*
X81361118Y-44329059D01*
X81174486Y-44299500D01*
X81174481Y-44299500D01*
X80985519Y-44299500D01*
X80985514Y-44299500D01*
X80798881Y-44329059D01*
X80619163Y-44387454D01*
X80450800Y-44473240D01*
X80363579Y-44536610D01*
X80297927Y-44584310D01*
X80297925Y-44584312D01*
X80297924Y-44584312D01*
X80164312Y-44717924D01*
X80164312Y-44717925D01*
X80164310Y-44717927D01*
X80116610Y-44783579D01*
X80053240Y-44870800D01*
X79967454Y-45039163D01*
X79927931Y-45160803D01*
X79888493Y-45218478D01*
X79824134Y-45245676D01*
X79755288Y-45233761D01*
X79703812Y-45186516D01*
X79692069Y-45160803D01*
X79665783Y-45079904D01*
X79652547Y-45039168D01*
X79652545Y-45039165D01*
X79652545Y-45039163D01*
X79607290Y-44950347D01*
X79566760Y-44870801D01*
X79455690Y-44717927D01*
X79322073Y-44584310D01*
X79169199Y-44473240D01*
X79000836Y-44387454D01*
X78821118Y-44329059D01*
X78634486Y-44299500D01*
X78634481Y-44299500D01*
X78445519Y-44299500D01*
X78445514Y-44299500D01*
X78258881Y-44329059D01*
X78079163Y-44387454D01*
X77910800Y-44473240D01*
X77823579Y-44536610D01*
X77757927Y-44584310D01*
X77757925Y-44584312D01*
X77757924Y-44584312D01*
X77624312Y-44717924D01*
X77624312Y-44717925D01*
X77624310Y-44717927D01*
X77576610Y-44783579D01*
X77513240Y-44870800D01*
X77427454Y-45039163D01*
X77387668Y-45161612D01*
X77348230Y-45219287D01*
X77283871Y-45246485D01*
X77215025Y-45234570D01*
X77163549Y-45187325D01*
X77151806Y-45161611D01*
X77112085Y-45039362D01*
X77026329Y-44871059D01*
X77007883Y-44845670D01*
X77007882Y-44845669D01*
X76442137Y-45411414D01*
X76419333Y-45326306D01*
X76360090Y-45223694D01*
X76276306Y-45139910D01*
X76173694Y-45080667D01*
X76088584Y-45057861D01*
X76654328Y-44492116D01*
X76628933Y-44473666D01*
X76460637Y-44387914D01*
X76281002Y-44329548D01*
X76094447Y-44300000D01*
X75905553Y-44300000D01*
X75718997Y-44329548D01*
X75539362Y-44387914D01*
X75371060Y-44473669D01*
X75345670Y-44492116D01*
X75345669Y-44492116D01*
X75911415Y-45057861D01*
X75826306Y-45080667D01*
X75723694Y-45139910D01*
X75639910Y-45223694D01*
X75580667Y-45326306D01*
X75557861Y-45411414D01*
X74992116Y-44845669D01*
X74992116Y-44845670D01*
X74973669Y-44871060D01*
X74887914Y-45039362D01*
X74829548Y-45218997D01*
X74800000Y-45405552D01*
X74800000Y-45594447D01*
X74829548Y-45781002D01*
X74887914Y-45960637D01*
X74973666Y-46128933D01*
X74992116Y-46154328D01*
X75557861Y-45588584D01*
X75580667Y-45673694D01*
X75639910Y-45776306D01*
X75723694Y-45860090D01*
X75826306Y-45919333D01*
X75911415Y-45942138D01*
X75345669Y-46507882D01*
X75345670Y-46507883D01*
X75371059Y-46526329D01*
X75539362Y-46612085D01*
X75718997Y-46670451D01*
X75905553Y-46700000D01*
X76094447Y-46700000D01*
X76281002Y-46670451D01*
X76460637Y-46612085D01*
X76628937Y-46526331D01*
X76654328Y-46507883D01*
X76654328Y-46507882D01*
X76088584Y-45942138D01*
X76173694Y-45919333D01*
X76276306Y-45860090D01*
X76360090Y-45776306D01*
X76419333Y-45673694D01*
X76442138Y-45588584D01*
X77007882Y-46154328D01*
X77007883Y-46154328D01*
X77026331Y-46128937D01*
X77112086Y-45960635D01*
X77151806Y-45838389D01*
X77191243Y-45780713D01*
X77255601Y-45753514D01*
X77324448Y-45765428D01*
X77375924Y-45812672D01*
X77387668Y-45838387D01*
X77427454Y-45960836D01*
X77484985Y-46073745D01*
X77513240Y-46129199D01*
X77624310Y-46282073D01*
X77757927Y-46415690D01*
X77910801Y-46526760D01*
X77990347Y-46567290D01*
X78079163Y-46612545D01*
X78079165Y-46612545D01*
X78079168Y-46612547D01*
X78158566Y-46638345D01*
X78258881Y-46670940D01*
X78445514Y-46700500D01*
X78445519Y-46700500D01*
X78634486Y-46700500D01*
X78821118Y-46670940D01*
X78858228Y-46658882D01*
X79000832Y-46612547D01*
X79169199Y-46526760D01*
X79322073Y-46415690D01*
X79455690Y-46282073D01*
X79566760Y-46129199D01*
X79652547Y-45960832D01*
X79692069Y-45839195D01*
X79731507Y-45781521D01*
X79795866Y-45754323D01*
X79864712Y-45766238D01*
X79916188Y-45813482D01*
X79927930Y-45839194D01*
X79943291Y-45886472D01*
X79967454Y-45960836D01*
X80024985Y-46073745D01*
X80053240Y-46129199D01*
X80164310Y-46282073D01*
X80297927Y-46415690D01*
X80450801Y-46526760D01*
X80530347Y-46567290D01*
X80619163Y-46612545D01*
X80619165Y-46612545D01*
X80619168Y-46612547D01*
X80698566Y-46638345D01*
X80798881Y-46670940D01*
X80985514Y-46700500D01*
X80985519Y-46700500D01*
X81174486Y-46700500D01*
X81361118Y-46670940D01*
X81398228Y-46658882D01*
X81540832Y-46612547D01*
X81709199Y-46526760D01*
X81862073Y-46415690D01*
X81995690Y-46282073D01*
X82106760Y-46129199D01*
X82135015Y-46073744D01*
X82182989Y-46022949D01*
X82250810Y-46006154D01*
X82316945Y-46028691D01*
X82360397Y-46083406D01*
X82369500Y-46130040D01*
X82369500Y-47218422D01*
X82400290Y-47412826D01*
X82461117Y-47600030D01*
X82537277Y-47749500D01*
X82550476Y-47775405D01*
X82666172Y-47934646D01*
X82666174Y-47934648D01*
X84185355Y-49453830D01*
X84185360Y-49453834D01*
X84324250Y-49554742D01*
X84344595Y-49569524D01*
X84519974Y-49658884D01*
X84675200Y-49709320D01*
X84675202Y-49709321D01*
X84707166Y-49719707D01*
X84707169Y-49719707D01*
X84707174Y-49719709D01*
X84797213Y-49733969D01*
X84901578Y-49750500D01*
X84901583Y-49750500D01*
X87598422Y-49750500D01*
X87792826Y-49719709D01*
X87824800Y-49709320D01*
X87980026Y-49658884D01*
X88155405Y-49569524D01*
X88314646Y-49453828D01*
X89037819Y-48730655D01*
X89099142Y-48697170D01*
X89168834Y-48702154D01*
X89224767Y-48744026D01*
X89249184Y-48809490D01*
X89249500Y-48818336D01*
X89249500Y-53258868D01*
X89229815Y-53325907D01*
X89177011Y-53371662D01*
X89107853Y-53381606D01*
X89077821Y-53372313D01*
X89077476Y-53373148D01*
X88867790Y-53286293D01*
X88867783Y-53286291D01*
X88867781Y-53286290D01*
X88652463Y-53228596D01*
X88652457Y-53228595D01*
X88652452Y-53228594D01*
X88431466Y-53199501D01*
X88431463Y-53199500D01*
X88431457Y-53199500D01*
X88208543Y-53199500D01*
X88208537Y-53199500D01*
X88208533Y-53199501D01*
X87987547Y-53228594D01*
X87987540Y-53228595D01*
X87987537Y-53228596D01*
X87874560Y-53258868D01*
X87772219Y-53286290D01*
X87772203Y-53286295D01*
X87575316Y-53367848D01*
X87505847Y-53375317D01*
X87443368Y-53344041D01*
X87407716Y-53283952D01*
X87410210Y-53214127D01*
X87440181Y-53165607D01*
X87542963Y-53062826D01*
X87689437Y-52871937D01*
X87809742Y-52663563D01*
X87901819Y-52441268D01*
X87964094Y-52208857D01*
X87995500Y-51970305D01*
X87995500Y-51729695D01*
X87964094Y-51491143D01*
X87901819Y-51258732D01*
X87809742Y-51036437D01*
X87809740Y-51036434D01*
X87809738Y-51036429D01*
X87689441Y-50828070D01*
X87689437Y-50828063D01*
X87568164Y-50670017D01*
X87542964Y-50637175D01*
X87542958Y-50637168D01*
X87372828Y-50467038D01*
X87372824Y-50467035D01*
X87181945Y-50320569D01*
X87181943Y-50320567D01*
X87181937Y-50320563D01*
X87181932Y-50320560D01*
X87181929Y-50320558D01*
X86973570Y-50200261D01*
X86973553Y-50200253D01*
X86751275Y-50108183D01*
X86606999Y-50069524D01*
X86518857Y-50045906D01*
X86518856Y-50045905D01*
X86518853Y-50045905D01*
X86280314Y-50014501D01*
X86280311Y-50014500D01*
X86280305Y-50014500D01*
X86039695Y-50014500D01*
X86039689Y-50014500D01*
X86039685Y-50014501D01*
X85801146Y-50045905D01*
X85568724Y-50108183D01*
X85346446Y-50200253D01*
X85346429Y-50200261D01*
X85138070Y-50320558D01*
X85138054Y-50320569D01*
X84947175Y-50467035D01*
X84947172Y-50467038D01*
X84777041Y-50637168D01*
X84777035Y-50637175D01*
X84630569Y-50828054D01*
X84630558Y-50828070D01*
X84510261Y-51036429D01*
X84510253Y-51036446D01*
X84418183Y-51258724D01*
X84355905Y-51491146D01*
X84324501Y-51729685D01*
X84324500Y-51729701D01*
X84324500Y-51970298D01*
X84324501Y-51970314D01*
X84355905Y-52208853D01*
X84418183Y-52441275D01*
X84510253Y-52663553D01*
X84510261Y-52663570D01*
X84630558Y-52871929D01*
X84630569Y-52871945D01*
X84777035Y-53062824D01*
X84777041Y-53062831D01*
X84947168Y-53232958D01*
X84947174Y-53232963D01*
X85138063Y-53379437D01*
X85138070Y-53379441D01*
X85346429Y-53499738D01*
X85346434Y-53499740D01*
X85346437Y-53499742D01*
X85346441Y-53499743D01*
X85346446Y-53499746D01*
X85568724Y-53591816D01*
X85568726Y-53591816D01*
X85568732Y-53591819D01*
X85801143Y-53654094D01*
X86039695Y-53685500D01*
X86039702Y-53685500D01*
X86280298Y-53685500D01*
X86280305Y-53685500D01*
X86518857Y-53654094D01*
X86751268Y-53591819D01*
X86973563Y-53499742D01*
X86973573Y-53499735D01*
X86974343Y-53499357D01*
X86974604Y-53499311D01*
X86977314Y-53498189D01*
X86977564Y-53498794D01*
X87043173Y-53487349D01*
X87107568Y-53514460D01*
X87147084Y-53572082D01*
X87149174Y-53641920D01*
X87116887Y-53698241D01*
X87038750Y-53776378D01*
X86903058Y-53953217D01*
X86903052Y-53953226D01*
X86791595Y-54146273D01*
X86791593Y-54146277D01*
X86706293Y-54352209D01*
X86706290Y-54352219D01*
X86661341Y-54519974D01*
X86648597Y-54567534D01*
X86648594Y-54567547D01*
X86619501Y-54788533D01*
X86619500Y-54788549D01*
X86619500Y-55011450D01*
X86619501Y-55011466D01*
X86648594Y-55232452D01*
X86648595Y-55232457D01*
X86648596Y-55232463D01*
X86706290Y-55447780D01*
X86706293Y-55447790D01*
X86791593Y-55653722D01*
X86791595Y-55653726D01*
X86903052Y-55846774D01*
X86903057Y-55846780D01*
X86903058Y-55846782D01*
X87038751Y-56023622D01*
X87038757Y-56023629D01*
X87196370Y-56181242D01*
X87196376Y-56181247D01*
X87373226Y-56316948D01*
X87566274Y-56428405D01*
X87772219Y-56513710D01*
X87987537Y-56571404D01*
X88208543Y-56600500D01*
X88208550Y-56600500D01*
X88331663Y-56600500D01*
X88398702Y-56620185D01*
X88444457Y-56672989D01*
X88454401Y-56742147D01*
X88425376Y-56805703D01*
X88419344Y-56812181D01*
X87018345Y-58213181D01*
X86957022Y-58246666D01*
X86930664Y-58249500D01*
X80069336Y-58249500D01*
X80002297Y-58229815D01*
X79981655Y-58213181D01*
X78786819Y-57018345D01*
X78753334Y-56957022D01*
X78750500Y-56930664D01*
X78750500Y-50864421D01*
X78719709Y-50670017D01*
X78675574Y-50534185D01*
X78669178Y-50514500D01*
X78658884Y-50482818D01*
X78658884Y-50482817D01*
X78605176Y-50377410D01*
X78569524Y-50307439D01*
X78453829Y-50148199D01*
X76351802Y-48046172D01*
X76192561Y-47930476D01*
X76017186Y-47841117D01*
X75829982Y-47780290D01*
X75635578Y-47749500D01*
X75635573Y-47749500D01*
X71569336Y-47749500D01*
X71502297Y-47729815D01*
X71481655Y-47713181D01*
X68314648Y-44546174D01*
X68314646Y-44546172D01*
X68155405Y-44430476D01*
X67980030Y-44341117D01*
X67792826Y-44280290D01*
X67598422Y-44249500D01*
X67598417Y-44249500D01*
X66624267Y-44249500D01*
X66557228Y-44229815D01*
X66511473Y-44177011D01*
X66501529Y-44107853D01*
X66530554Y-44044297D01*
X66551381Y-44025182D01*
X66704646Y-43913828D01*
X66843828Y-43774646D01*
X66959524Y-43615405D01*
X67048884Y-43440025D01*
X67109709Y-43252826D01*
X67111582Y-43241002D01*
X67140500Y-43058422D01*
X67140500Y-39791577D01*
X67109710Y-39597182D01*
X67109709Y-39597174D01*
X67109707Y-39597168D01*
X67109706Y-39597163D01*
X67107343Y-39589892D01*
X67107341Y-39589887D01*
X67079849Y-39505277D01*
X67079849Y-39505276D01*
X67048884Y-39409975D01*
X66959524Y-39234595D01*
X66843828Y-39075354D01*
X66704646Y-38936172D01*
X60679895Y-32911421D01*
X64874500Y-32911421D01*
X64874500Y-36088578D01*
X64902214Y-36263556D01*
X64956956Y-36432039D01*
X64956957Y-36432042D01*
X65037386Y-36589890D01*
X65141517Y-36733214D01*
X65266786Y-36858483D01*
X65410110Y-36962614D01*
X65487529Y-37002061D01*
X65567957Y-37043042D01*
X65567960Y-37043043D01*
X65652201Y-37070414D01*
X65736445Y-37097786D01*
X65911421Y-37125500D01*
X65911422Y-37125500D01*
X72088578Y-37125500D01*
X72088579Y-37125500D01*
X72263555Y-37097786D01*
X72432042Y-37043042D01*
X72589890Y-36962614D01*
X72733214Y-36858483D01*
X72858483Y-36733214D01*
X72962614Y-36589890D01*
X73043042Y-36432042D01*
X73097786Y-36263555D01*
X73125500Y-36088579D01*
X73125500Y-32911421D01*
X73097786Y-32736445D01*
X73043042Y-32567958D01*
X73043042Y-32567957D01*
X72962613Y-32410109D01*
X72858483Y-32266786D01*
X72733214Y-32141517D01*
X72589890Y-32037386D01*
X72432042Y-31956957D01*
X72432039Y-31956956D01*
X72263556Y-31902214D01*
X72176067Y-31888357D01*
X72088579Y-31874500D01*
X66088579Y-31874500D01*
X65911421Y-31874500D01*
X65853095Y-31883738D01*
X65736443Y-31902214D01*
X65567960Y-31956956D01*
X65567957Y-31956957D01*
X65410109Y-32037386D01*
X65328338Y-32096796D01*
X65266786Y-32141517D01*
X65266784Y-32141519D01*
X65266783Y-32141519D01*
X65141519Y-32266783D01*
X65141519Y-32266784D01*
X65141517Y-32266786D01*
X65096796Y-32328338D01*
X65037386Y-32410109D01*
X64956957Y-32567957D01*
X64956956Y-32567960D01*
X64902214Y-32736443D01*
X64874500Y-32911421D01*
X60679895Y-32911421D01*
X59636819Y-31868345D01*
X59603334Y-31807022D01*
X59600500Y-31780664D01*
X59600500Y-25124267D01*
X59620185Y-25057228D01*
X59672989Y-25011473D01*
X59742147Y-25001529D01*
X59805703Y-25030554D01*
X59824817Y-25051380D01*
X59936172Y-25204646D01*
X65685354Y-30953828D01*
X65844595Y-31069524D01*
X65930613Y-31113352D01*
X66019973Y-31158884D01*
X66019979Y-31158886D01*
X66054265Y-31170026D01*
X66054266Y-31170026D01*
X66130720Y-31194867D01*
X66207173Y-31219709D01*
X66401578Y-31250500D01*
X66401583Y-31250500D01*
X80430664Y-31250500D01*
X80497703Y-31270185D01*
X80518345Y-31286819D01*
X83603181Y-34371655D01*
X83636666Y-34432978D01*
X83639500Y-34459336D01*
X83639500Y-42329959D01*
X83619815Y-42396998D01*
X83567011Y-42442753D01*
X83497853Y-42452697D01*
X83434297Y-42423672D01*
X83405016Y-42386254D01*
X83376763Y-42330805D01*
X83358500Y-42305669D01*
X83265690Y-42177927D01*
X83132073Y-42044310D01*
X82979199Y-41933240D01*
X82810836Y-41847454D01*
X82631118Y-41789059D01*
X82444486Y-41759500D01*
X82444481Y-41759500D01*
X82255519Y-41759500D01*
X82255514Y-41759500D01*
X82068881Y-41789059D01*
X81889163Y-41847454D01*
X81720800Y-41933240D01*
X81633579Y-41996610D01*
X81567927Y-42044310D01*
X81567925Y-42044312D01*
X81567924Y-42044312D01*
X81434312Y-42177924D01*
X81434312Y-42177925D01*
X81434310Y-42177927D01*
X81386610Y-42243579D01*
X81323240Y-42330800D01*
X81237454Y-42499163D01*
X81197931Y-42620803D01*
X81158493Y-42678478D01*
X81094134Y-42705676D01*
X81025288Y-42693761D01*
X80973812Y-42646516D01*
X80962069Y-42620803D01*
X80936031Y-42540667D01*
X80922547Y-42499168D01*
X80922545Y-42499165D01*
X80922545Y-42499163D01*
X80870489Y-42396998D01*
X80836760Y-42330801D01*
X80725690Y-42177927D01*
X80592073Y-42044310D01*
X80439199Y-41933240D01*
X80270836Y-41847454D01*
X80091118Y-41789059D01*
X79904486Y-41759500D01*
X79904481Y-41759500D01*
X79715519Y-41759500D01*
X79715514Y-41759500D01*
X79528881Y-41789059D01*
X79349163Y-41847454D01*
X79180800Y-41933240D01*
X79093579Y-41996610D01*
X79027927Y-42044310D01*
X79027925Y-42044312D01*
X79027924Y-42044312D01*
X78894312Y-42177924D01*
X78894312Y-42177925D01*
X78894310Y-42177927D01*
X78846610Y-42243579D01*
X78783240Y-42330800D01*
X78697454Y-42499163D01*
X78657668Y-42621612D01*
X78618230Y-42679287D01*
X78553871Y-42706485D01*
X78485025Y-42694570D01*
X78433549Y-42647325D01*
X78421806Y-42621611D01*
X78382085Y-42499362D01*
X78296329Y-42331059D01*
X78277883Y-42305670D01*
X78277882Y-42305669D01*
X77712137Y-42871414D01*
X77689333Y-42786306D01*
X77630090Y-42683694D01*
X77546306Y-42599910D01*
X77443694Y-42540667D01*
X77358584Y-42517861D01*
X77924328Y-41952116D01*
X77898933Y-41933666D01*
X77730637Y-41847914D01*
X77551002Y-41789548D01*
X77364447Y-41760000D01*
X77175553Y-41760000D01*
X76988997Y-41789548D01*
X76809362Y-41847914D01*
X76641060Y-41933669D01*
X76615670Y-41952116D01*
X76615669Y-41952116D01*
X77181415Y-42517861D01*
X77096306Y-42540667D01*
X76993694Y-42599910D01*
X76909910Y-42683694D01*
X76850667Y-42786306D01*
X76827861Y-42871414D01*
X76262116Y-42305669D01*
X76262116Y-42305670D01*
X76243669Y-42331060D01*
X76157914Y-42499362D01*
X76099548Y-42678997D01*
X76070000Y-42865552D01*
X76070000Y-43054447D01*
X76099548Y-43241002D01*
X76157914Y-43420637D01*
X76243666Y-43588933D01*
X76262116Y-43614328D01*
X76827861Y-43048584D01*
X76850667Y-43133694D01*
X76909910Y-43236306D01*
X76993694Y-43320090D01*
X77096306Y-43379333D01*
X77181415Y-43402138D01*
X76615669Y-43967882D01*
X76615670Y-43967883D01*
X76641059Y-43986329D01*
X76809362Y-44072085D01*
X76988997Y-44130451D01*
X77175553Y-44160000D01*
X77364447Y-44160000D01*
X77551002Y-44130451D01*
X77730637Y-44072085D01*
X77898937Y-43986331D01*
X77924328Y-43967883D01*
X77924328Y-43967882D01*
X77358584Y-43402138D01*
X77443694Y-43379333D01*
X77546306Y-43320090D01*
X77630090Y-43236306D01*
X77689333Y-43133694D01*
X77712138Y-43048584D01*
X78277882Y-43614328D01*
X78277883Y-43614328D01*
X78296331Y-43588937D01*
X78382086Y-43420635D01*
X78421806Y-43298389D01*
X78461243Y-43240713D01*
X78525601Y-43213514D01*
X78594448Y-43225428D01*
X78645924Y-43272672D01*
X78657668Y-43298387D01*
X78697454Y-43420836D01*
X78783104Y-43588933D01*
X78783240Y-43589199D01*
X78894310Y-43742073D01*
X79027927Y-43875690D01*
X79180801Y-43986760D01*
X79256209Y-44025182D01*
X79349163Y-44072545D01*
X79349165Y-44072545D01*
X79349168Y-44072547D01*
X79373682Y-44080512D01*
X79528881Y-44130940D01*
X79715514Y-44160500D01*
X79715519Y-44160500D01*
X79904486Y-44160500D01*
X80091118Y-44130940D01*
X80128228Y-44118882D01*
X80270832Y-44072547D01*
X80439199Y-43986760D01*
X80592073Y-43875690D01*
X80725690Y-43742073D01*
X80836760Y-43589199D01*
X80922547Y-43420832D01*
X80962069Y-43299195D01*
X81001507Y-43241521D01*
X81065866Y-43214323D01*
X81134712Y-43226238D01*
X81186188Y-43273482D01*
X81197930Y-43299194D01*
X81213291Y-43346472D01*
X81237454Y-43420836D01*
X81323104Y-43588933D01*
X81323240Y-43589199D01*
X81434310Y-43742073D01*
X81567927Y-43875690D01*
X81720801Y-43986760D01*
X81796209Y-44025182D01*
X81889163Y-44072545D01*
X81889165Y-44072545D01*
X81889168Y-44072547D01*
X81913682Y-44080512D01*
X82068881Y-44130940D01*
X82255514Y-44160500D01*
X82255519Y-44160500D01*
X82444486Y-44160500D01*
X82631118Y-44130940D01*
X82668228Y-44118882D01*
X82810832Y-44072547D01*
X82979199Y-43986760D01*
X83132073Y-43875690D01*
X83265690Y-43742073D01*
X83376760Y-43589199D01*
X83462547Y-43420832D01*
X83475782Y-43380096D01*
X83515219Y-43322422D01*
X83579577Y-43295223D01*
X83648424Y-43307137D01*
X83699900Y-43354381D01*
X83711643Y-43380094D01*
X83720037Y-43405927D01*
X83731117Y-43440029D01*
X83806988Y-43588933D01*
X83820476Y-43615405D01*
X83936172Y-43774646D01*
X84075354Y-43913828D01*
X84234595Y-44029524D01*
X84263589Y-44044297D01*
X84409970Y-44118882D01*
X84409972Y-44118882D01*
X84409975Y-44118884D01*
X84506127Y-44150126D01*
X84597173Y-44179709D01*
X84791578Y-44210500D01*
X84791583Y-44210500D01*
X84988422Y-44210500D01*
X85182826Y-44179709D01*
X85370025Y-44118884D01*
X85545405Y-44029524D01*
X85704646Y-43913828D01*
X85843828Y-43774646D01*
X85959524Y-43615405D01*
X86048884Y-43440025D01*
X86109709Y-43252826D01*
X86111582Y-43241002D01*
X86140500Y-43058422D01*
X86140500Y-33791577D01*
X86109709Y-33597173D01*
X86081022Y-33508885D01*
X86048928Y-33410110D01*
X86048884Y-33409974D01*
X86048882Y-33409971D01*
X86048882Y-33409969D01*
X86016463Y-33346345D01*
X85959524Y-33234595D01*
X85891899Y-33141517D01*
X85843834Y-33075360D01*
X85843830Y-33075355D01*
X81814648Y-29046174D01*
X81814646Y-29046172D01*
X81655405Y-28930476D01*
X81480030Y-28841117D01*
X81292826Y-28780290D01*
X81098422Y-28749500D01*
X81098417Y-28749500D01*
X67069336Y-28749500D01*
X67002297Y-28729815D01*
X66981655Y-28713181D01*
X62176819Y-23908345D01*
X62143334Y-23847022D01*
X62140500Y-23820664D01*
X62140500Y-21143988D01*
X62140499Y-21143970D01*
X62140499Y-20452129D01*
X62140498Y-20452123D01*
X62140497Y-20452116D01*
X62134091Y-20392517D01*
X62098157Y-20296174D01*
X62083797Y-20257671D01*
X62083793Y-20257664D01*
X61997547Y-20142455D01*
X61997544Y-20142452D01*
X61882335Y-20056206D01*
X61882328Y-20056202D01*
X61747482Y-20005908D01*
X61747483Y-20005908D01*
X61687883Y-19999501D01*
X61687881Y-19999500D01*
X61687873Y-19999500D01*
X61624267Y-19999500D01*
X61557228Y-19979815D01*
X61511473Y-19927011D01*
X61501529Y-19857853D01*
X61530554Y-19794297D01*
X61551381Y-19775182D01*
X61704646Y-19663828D01*
X61843828Y-19524646D01*
X61959524Y-19365405D01*
X62048884Y-19190025D01*
X62109709Y-19002826D01*
X62140500Y-18808422D01*
X62140500Y-16679336D01*
X62160185Y-16612297D01*
X62176819Y-16591655D01*
X62481655Y-16286819D01*
X62542978Y-16253334D01*
X62569336Y-16250500D01*
X80930664Y-16250500D01*
X80997703Y-16270185D01*
G37*
%TD.AperFunction*%
%TA.AperFunction,Conductor*%
G36*
X95202016Y-500566D02*
G01*
X95738769Y-518137D01*
X95746848Y-518667D01*
X96279283Y-571107D01*
X96287281Y-572160D01*
X96815169Y-659315D01*
X96823084Y-660889D01*
X97344130Y-782380D01*
X97351934Y-784471D01*
X97809565Y-923291D01*
X97863910Y-939777D01*
X97871594Y-942386D01*
X98372276Y-1130830D01*
X98379773Y-1133935D01*
X98867100Y-1354739D01*
X98874342Y-1358311D01*
X99041268Y-1447535D01*
X99346169Y-1610508D01*
X99353196Y-1614565D01*
X99807519Y-1897081D01*
X99814239Y-1901571D01*
X100059005Y-2076968D01*
X100249114Y-2213199D01*
X100255552Y-2218139D01*
X100669107Y-2557534D01*
X100675207Y-2562884D01*
X101065683Y-2928604D01*
X101071395Y-2934316D01*
X101223618Y-3096843D01*
X101437115Y-3324792D01*
X101442465Y-3330892D01*
X101781860Y-3744447D01*
X101786800Y-3750885D01*
X102098419Y-4185747D01*
X102102927Y-4192494D01*
X102385434Y-4646803D01*
X102389491Y-4653830D01*
X102641679Y-5125640D01*
X102645268Y-5132917D01*
X102866064Y-5620226D01*
X102869169Y-5627723D01*
X103057613Y-6128405D01*
X103060222Y-6136089D01*
X103215523Y-6648048D01*
X103217623Y-6655886D01*
X103339105Y-7176894D01*
X103340688Y-7184852D01*
X103427836Y-7712695D01*
X103428895Y-7720740D01*
X103481331Y-8253142D01*
X103481862Y-8261239D01*
X103499434Y-8797983D01*
X103499500Y-8802040D01*
X103499500Y-73197959D01*
X103499434Y-73202016D01*
X103481862Y-73738760D01*
X103481331Y-73746857D01*
X103428895Y-74279259D01*
X103427836Y-74287304D01*
X103340688Y-74815147D01*
X103339105Y-74823105D01*
X103217623Y-75344113D01*
X103215523Y-75351951D01*
X103060222Y-75863910D01*
X103057613Y-75871594D01*
X102869169Y-76372276D01*
X102866064Y-76379773D01*
X102645268Y-76867082D01*
X102641679Y-76874359D01*
X102389491Y-77346169D01*
X102385434Y-77353196D01*
X102102927Y-77807505D01*
X102098419Y-77814252D01*
X101786800Y-78249114D01*
X101781860Y-78255552D01*
X101442465Y-78669107D01*
X101437115Y-78675207D01*
X101071408Y-79065670D01*
X101065670Y-79071408D01*
X100675207Y-79437115D01*
X100669107Y-79442465D01*
X100255552Y-79781860D01*
X100249114Y-79786800D01*
X99814252Y-80098419D01*
X99807505Y-80102927D01*
X99353196Y-80385434D01*
X99346169Y-80389491D01*
X98874359Y-80641679D01*
X98867082Y-80645268D01*
X98379773Y-80866064D01*
X98372276Y-80869169D01*
X97871594Y-81057613D01*
X97863910Y-81060222D01*
X97351951Y-81215523D01*
X97344113Y-81217623D01*
X96823105Y-81339105D01*
X96815147Y-81340688D01*
X96287304Y-81427836D01*
X96279259Y-81428895D01*
X95746857Y-81481331D01*
X95738760Y-81481862D01*
X95202016Y-81499434D01*
X95197959Y-81499500D01*
X8802041Y-81499500D01*
X8797984Y-81499434D01*
X8261239Y-81481862D01*
X8253142Y-81481331D01*
X7720740Y-81428895D01*
X7712695Y-81427836D01*
X7184852Y-81340688D01*
X7176894Y-81339105D01*
X6655886Y-81217623D01*
X6648048Y-81215523D01*
X6136089Y-81060222D01*
X6128405Y-81057613D01*
X5627723Y-80869169D01*
X5620226Y-80866064D01*
X5132917Y-80645268D01*
X5125640Y-80641679D01*
X4653830Y-80389491D01*
X4646803Y-80385434D01*
X4192494Y-80102927D01*
X4185747Y-80098419D01*
X3750885Y-79786800D01*
X3744447Y-79781860D01*
X3330892Y-79442465D01*
X3324792Y-79437115D01*
X3278578Y-79393831D01*
X2934316Y-79071395D01*
X2928604Y-79065683D01*
X2562884Y-78675207D01*
X2557534Y-78669107D01*
X2218139Y-78255552D01*
X2213199Y-78249114D01*
X1989309Y-77936677D01*
X1901571Y-77814239D01*
X1897081Y-77807519D01*
X1614565Y-77353196D01*
X1610508Y-77346169D01*
X1583862Y-77296318D01*
X1358311Y-76874342D01*
X1354739Y-76867100D01*
X1133935Y-76379773D01*
X1130830Y-76372276D01*
X942386Y-75871594D01*
X939777Y-75863910D01*
X919188Y-75796038D01*
X784471Y-75351934D01*
X782380Y-75344130D01*
X660889Y-74823084D01*
X659315Y-74815169D01*
X572160Y-74287281D01*
X571107Y-74279283D01*
X518667Y-73746848D01*
X518137Y-73738760D01*
X500566Y-73202016D01*
X500500Y-73197959D01*
X500500Y-58911421D01*
X27874500Y-58911421D01*
X27874500Y-66088578D01*
X27902214Y-66263556D01*
X27956956Y-66432039D01*
X27956957Y-66432042D01*
X28037386Y-66589890D01*
X28141517Y-66733214D01*
X28266786Y-66858483D01*
X28410110Y-66962614D01*
X28487529Y-67002061D01*
X28567957Y-67043042D01*
X28567960Y-67043043D01*
X28652201Y-67070414D01*
X28736445Y-67097786D01*
X28911421Y-67125500D01*
X28911422Y-67125500D01*
X34088578Y-67125500D01*
X34088579Y-67125500D01*
X34263555Y-67097786D01*
X34432042Y-67043042D01*
X34589890Y-66962614D01*
X34733214Y-66858483D01*
X34858483Y-66733214D01*
X34962614Y-66589890D01*
X35043042Y-66432042D01*
X35097786Y-66263555D01*
X35125500Y-66088579D01*
X35125500Y-58911421D01*
X35097786Y-58736445D01*
X35070414Y-58652201D01*
X35043043Y-58567960D01*
X35043042Y-58567957D01*
X34962613Y-58410109D01*
X34858483Y-58266786D01*
X34733214Y-58141517D01*
X34589890Y-58037386D01*
X34432042Y-57956957D01*
X34432039Y-57956956D01*
X34263556Y-57902214D01*
X34176067Y-57888357D01*
X34088579Y-57874500D01*
X29088579Y-57874500D01*
X28911421Y-57874500D01*
X28853095Y-57883738D01*
X28736443Y-57902214D01*
X28567960Y-57956956D01*
X28567957Y-57956957D01*
X28410109Y-58037386D01*
X28328338Y-58096796D01*
X28266786Y-58141517D01*
X28266784Y-58141519D01*
X28266783Y-58141519D01*
X28141519Y-58266783D01*
X28141519Y-58266784D01*
X28141517Y-58266786D01*
X28123792Y-58291183D01*
X28037386Y-58410109D01*
X27956957Y-58567957D01*
X27956956Y-58567960D01*
X27902214Y-58736443D01*
X27874500Y-58911421D01*
X500500Y-58911421D01*
X500500Y-54788549D01*
X13869500Y-54788549D01*
X13869500Y-55011450D01*
X13869501Y-55011466D01*
X13898594Y-55232452D01*
X13898595Y-55232457D01*
X13898596Y-55232463D01*
X13956290Y-55447780D01*
X13956293Y-55447790D01*
X14041593Y-55653722D01*
X14041595Y-55653726D01*
X14153052Y-55846774D01*
X14153057Y-55846780D01*
X14153058Y-55846782D01*
X14288751Y-56023622D01*
X14288757Y-56023629D01*
X14446370Y-56181242D01*
X14446376Y-56181247D01*
X14623226Y-56316948D01*
X14816274Y-56428405D01*
X15022219Y-56513710D01*
X15237537Y-56571404D01*
X15458543Y-56600500D01*
X15458550Y-56600500D01*
X15681450Y-56600500D01*
X15681457Y-56600500D01*
X15902463Y-56571404D01*
X16117781Y-56513710D01*
X16323726Y-56428405D01*
X16516774Y-56316948D01*
X16693624Y-56181247D01*
X16851247Y-56023624D01*
X16986948Y-55846774D01*
X17098405Y-55653726D01*
X17183710Y-55447781D01*
X17241404Y-55232463D01*
X17270500Y-55011457D01*
X17270500Y-54788543D01*
X17241404Y-54567537D01*
X17183710Y-54352219D01*
X17098405Y-54146274D01*
X16986948Y-53953226D01*
X16851247Y-53776376D01*
X16851242Y-53776370D01*
X16773113Y-53698241D01*
X16739628Y-53636918D01*
X16744612Y-53567226D01*
X16786484Y-53511293D01*
X16851948Y-53486876D01*
X16912462Y-53498728D01*
X16912686Y-53498189D01*
X16915356Y-53499295D01*
X16915647Y-53499352D01*
X16916430Y-53499738D01*
X16916437Y-53499742D01*
X16916442Y-53499744D01*
X16916450Y-53499748D01*
X17138724Y-53591816D01*
X17138726Y-53591816D01*
X17138732Y-53591819D01*
X17371143Y-53654094D01*
X17609695Y-53685500D01*
X17609702Y-53685500D01*
X17850298Y-53685500D01*
X17850305Y-53685500D01*
X18088857Y-53654094D01*
X18321268Y-53591819D01*
X18543563Y-53499742D01*
X18544239Y-53499352D01*
X18565028Y-53487349D01*
X18751937Y-53379437D01*
X18942826Y-53232963D01*
X19112963Y-53062826D01*
X19259437Y-52871937D01*
X19379742Y-52663563D01*
X19471819Y-52441268D01*
X19534094Y-52208857D01*
X19565500Y-51970305D01*
X19565500Y-51729695D01*
X19534094Y-51491143D01*
X19471819Y-51258732D01*
X19379742Y-51036437D01*
X19379740Y-51036434D01*
X19379738Y-51036429D01*
X19259441Y-50828070D01*
X19259437Y-50828063D01*
X19138164Y-50670017D01*
X19112964Y-50637175D01*
X19112958Y-50637168D01*
X18942828Y-50467038D01*
X18942824Y-50467035D01*
X18751945Y-50320569D01*
X18751943Y-50320567D01*
X18751937Y-50320563D01*
X18751932Y-50320560D01*
X18751929Y-50320558D01*
X18543570Y-50200261D01*
X18543553Y-50200253D01*
X18321275Y-50108183D01*
X18176999Y-50069524D01*
X18088857Y-50045906D01*
X18088856Y-50045905D01*
X18088853Y-50045905D01*
X17850314Y-50014501D01*
X17850311Y-50014500D01*
X17850305Y-50014500D01*
X17609695Y-50014500D01*
X17609689Y-50014500D01*
X17609685Y-50014501D01*
X17371146Y-50045905D01*
X17138724Y-50108183D01*
X16916446Y-50200253D01*
X16916429Y-50200261D01*
X16708070Y-50320558D01*
X16708054Y-50320569D01*
X16517175Y-50467035D01*
X16517172Y-50467038D01*
X16347041Y-50637168D01*
X16347035Y-50637175D01*
X16200569Y-50828054D01*
X16200558Y-50828070D01*
X16080261Y-51036429D01*
X16080253Y-51036446D01*
X15988183Y-51258724D01*
X15925905Y-51491146D01*
X15894501Y-51729685D01*
X15894500Y-51729701D01*
X15894500Y-51970298D01*
X15894501Y-51970314D01*
X15925905Y-52208853D01*
X15988183Y-52441275D01*
X16080253Y-52663553D01*
X16080261Y-52663570D01*
X16200558Y-52871929D01*
X16200569Y-52871945D01*
X16347035Y-53062824D01*
X16347041Y-53062831D01*
X16449816Y-53165606D01*
X16483301Y-53226929D01*
X16478317Y-53296621D01*
X16436445Y-53352554D01*
X16370981Y-53376971D01*
X16314683Y-53367848D01*
X16117796Y-53286295D01*
X16117784Y-53286291D01*
X16117781Y-53286290D01*
X15902463Y-53228596D01*
X15902457Y-53228595D01*
X15902452Y-53228594D01*
X15681466Y-53199501D01*
X15681463Y-53199500D01*
X15681457Y-53199500D01*
X15458543Y-53199500D01*
X15458537Y-53199500D01*
X15458533Y-53199501D01*
X15237547Y-53228594D01*
X15237540Y-53228595D01*
X15237537Y-53228596D01*
X15124560Y-53258868D01*
X15022219Y-53286290D01*
X15022209Y-53286293D01*
X14816277Y-53371593D01*
X14816273Y-53371595D01*
X14623226Y-53483052D01*
X14623217Y-53483058D01*
X14446377Y-53618751D01*
X14446370Y-53618757D01*
X14288757Y-53776370D01*
X14288751Y-53776377D01*
X14153058Y-53953217D01*
X14153052Y-53953226D01*
X14041595Y-54146273D01*
X14041593Y-54146277D01*
X13956293Y-54352209D01*
X13956290Y-54352219D01*
X13911341Y-54519974D01*
X13898597Y-54567534D01*
X13898594Y-54567547D01*
X13869501Y-54788533D01*
X13869500Y-54788549D01*
X500500Y-54788549D01*
X500500Y-45405552D01*
X17800000Y-45405552D01*
X17800000Y-45594447D01*
X17829548Y-45781002D01*
X17887914Y-45960637D01*
X17973666Y-46128933D01*
X17992116Y-46154328D01*
X18557861Y-45588584D01*
X18580667Y-45673694D01*
X18639910Y-45776306D01*
X18723694Y-45860090D01*
X18826306Y-45919333D01*
X18911415Y-45942138D01*
X18345669Y-46507882D01*
X18345670Y-46507883D01*
X18371059Y-46526329D01*
X18539362Y-46612085D01*
X18718997Y-46670451D01*
X18905553Y-46700000D01*
X19094447Y-46700000D01*
X19281002Y-46670451D01*
X19460637Y-46612085D01*
X19628937Y-46526331D01*
X19654328Y-46507883D01*
X19654328Y-46507882D01*
X19088584Y-45942138D01*
X19173694Y-45919333D01*
X19276306Y-45860090D01*
X19360090Y-45776306D01*
X19419333Y-45673694D01*
X19442138Y-45588584D01*
X20007882Y-46154328D01*
X20007883Y-46154328D01*
X20026331Y-46128937D01*
X20112086Y-45960635D01*
X20151806Y-45838389D01*
X20191243Y-45780713D01*
X20255601Y-45753514D01*
X20324448Y-45765428D01*
X20375924Y-45812672D01*
X20387668Y-45838387D01*
X20427454Y-45960836D01*
X20484985Y-46073745D01*
X20513240Y-46129199D01*
X20624310Y-46282073D01*
X20757927Y-46415690D01*
X20910801Y-46526760D01*
X20990347Y-46567290D01*
X21079163Y-46612545D01*
X21079165Y-46612545D01*
X21079168Y-46612547D01*
X21158566Y-46638345D01*
X21258881Y-46670940D01*
X21445514Y-46700500D01*
X21445519Y-46700500D01*
X21634486Y-46700500D01*
X21821118Y-46670940D01*
X21858228Y-46658882D01*
X22000832Y-46612547D01*
X22169199Y-46526760D01*
X22322073Y-46415690D01*
X22455690Y-46282073D01*
X22566760Y-46129199D01*
X22652547Y-45960832D01*
X22692069Y-45839195D01*
X22731507Y-45781521D01*
X22795866Y-45754323D01*
X22864712Y-45766238D01*
X22916188Y-45813482D01*
X22927930Y-45839194D01*
X22943291Y-45886472D01*
X22967454Y-45960836D01*
X23024985Y-46073745D01*
X23053240Y-46129199D01*
X23164310Y-46282073D01*
X23297927Y-46415690D01*
X23450801Y-46526760D01*
X23530347Y-46567290D01*
X23619163Y-46612545D01*
X23619165Y-46612545D01*
X23619168Y-46612547D01*
X23698566Y-46638345D01*
X23798881Y-46670940D01*
X23985514Y-46700500D01*
X23985519Y-46700500D01*
X24174486Y-46700500D01*
X24361118Y-46670940D01*
X24398228Y-46658882D01*
X24540832Y-46612547D01*
X24709199Y-46526760D01*
X24862073Y-46415690D01*
X24995690Y-46282073D01*
X25106760Y-46129199D01*
X25192547Y-45960832D01*
X25205782Y-45920096D01*
X25245220Y-45862422D01*
X25309578Y-45835224D01*
X25378425Y-45847139D01*
X25429900Y-45894383D01*
X25441644Y-45920097D01*
X25461117Y-45980030D01*
X25536988Y-46128933D01*
X25550476Y-46155405D01*
X25666172Y-46314646D01*
X25666174Y-46314648D01*
X29154345Y-49802819D01*
X29187830Y-49864142D01*
X29182846Y-49933834D01*
X29140974Y-49989767D01*
X29075510Y-50014184D01*
X29066664Y-50014500D01*
X29039695Y-50014500D01*
X29039689Y-50014500D01*
X29039685Y-50014501D01*
X28801146Y-50045905D01*
X28568724Y-50108183D01*
X28346446Y-50200253D01*
X28346429Y-50200261D01*
X28138070Y-50320558D01*
X28138054Y-50320569D01*
X27947175Y-50467035D01*
X27947172Y-50467038D01*
X27777041Y-50637168D01*
X27777035Y-50637175D01*
X27630569Y-50828054D01*
X27630558Y-50828070D01*
X27510261Y-51036429D01*
X27510253Y-51036446D01*
X27418183Y-51258724D01*
X27355905Y-51491146D01*
X27324501Y-51729685D01*
X27324500Y-51729701D01*
X27324500Y-51970298D01*
X27324501Y-51970314D01*
X27355905Y-52208853D01*
X27418183Y-52441275D01*
X27510253Y-52663553D01*
X27510261Y-52663570D01*
X27630558Y-52871929D01*
X27630569Y-52871945D01*
X27777035Y-53062824D01*
X27777041Y-53062831D01*
X27947168Y-53232958D01*
X27947174Y-53232963D01*
X28138063Y-53379437D01*
X28138070Y-53379441D01*
X28346429Y-53499738D01*
X28346434Y-53499740D01*
X28346437Y-53499742D01*
X28346441Y-53499743D01*
X28346446Y-53499746D01*
X28568724Y-53591816D01*
X28568726Y-53591816D01*
X28568732Y-53591819D01*
X28801143Y-53654094D01*
X29039695Y-53685500D01*
X29039702Y-53685500D01*
X29280298Y-53685500D01*
X29280305Y-53685500D01*
X29518857Y-53654094D01*
X29751268Y-53591819D01*
X29973563Y-53499742D01*
X29973573Y-53499735D01*
X29974343Y-53499357D01*
X29974604Y-53499311D01*
X29977314Y-53498189D01*
X29977564Y-53498794D01*
X30043173Y-53487349D01*
X30107568Y-53514460D01*
X30147084Y-53572082D01*
X30149174Y-53641920D01*
X30116887Y-53698241D01*
X30038750Y-53776378D01*
X29903058Y-53953217D01*
X29903052Y-53953226D01*
X29791595Y-54146273D01*
X29791593Y-54146277D01*
X29706293Y-54352209D01*
X29706290Y-54352219D01*
X29661341Y-54519974D01*
X29648597Y-54567534D01*
X29648594Y-54567547D01*
X29619501Y-54788533D01*
X29619500Y-54788549D01*
X29619500Y-55011450D01*
X29619501Y-55011466D01*
X29648594Y-55232452D01*
X29648595Y-55232457D01*
X29648596Y-55232463D01*
X29706290Y-55447780D01*
X29706293Y-55447790D01*
X29791593Y-55653722D01*
X29791595Y-55653726D01*
X29903052Y-55846774D01*
X29903057Y-55846780D01*
X29903058Y-55846782D01*
X30038751Y-56023622D01*
X30038757Y-56023629D01*
X30196370Y-56181242D01*
X30196376Y-56181247D01*
X30373226Y-56316948D01*
X30566274Y-56428405D01*
X30772219Y-56513710D01*
X30987537Y-56571404D01*
X31208543Y-56600500D01*
X31208550Y-56600500D01*
X31431450Y-56600500D01*
X31431457Y-56600500D01*
X31652463Y-56571404D01*
X31867781Y-56513710D01*
X32073726Y-56428405D01*
X32266774Y-56316948D01*
X32443624Y-56181247D01*
X32601247Y-56023624D01*
X32736948Y-55846774D01*
X32837613Y-55672417D01*
X32888180Y-55624203D01*
X32956788Y-55610981D01*
X33021652Y-55636949D01*
X33052386Y-55672417D01*
X33153052Y-55846774D01*
X33153057Y-55846780D01*
X33153058Y-55846782D01*
X33288751Y-56023622D01*
X33288757Y-56023629D01*
X33446370Y-56181242D01*
X33446376Y-56181247D01*
X33623226Y-56316948D01*
X33816274Y-56428405D01*
X34022219Y-56513710D01*
X34237537Y-56571404D01*
X34458543Y-56600500D01*
X34458550Y-56600500D01*
X34681450Y-56600500D01*
X34681457Y-56600500D01*
X34902463Y-56571404D01*
X35117781Y-56513710D01*
X35323726Y-56428405D01*
X35516774Y-56316948D01*
X35693624Y-56181247D01*
X35851247Y-56023624D01*
X35986948Y-55846774D01*
X36098405Y-55653726D01*
X36183710Y-55447781D01*
X36241404Y-55232463D01*
X36270500Y-55011457D01*
X36270500Y-54788543D01*
X36241404Y-54567537D01*
X36183710Y-54352219D01*
X36098405Y-54146274D01*
X35986948Y-53953226D01*
X35851247Y-53776376D01*
X35851242Y-53776370D01*
X35773113Y-53698241D01*
X35739628Y-53636918D01*
X35744612Y-53567226D01*
X35786484Y-53511293D01*
X35851948Y-53486876D01*
X35912462Y-53498728D01*
X35912686Y-53498189D01*
X35915356Y-53499295D01*
X35915647Y-53499352D01*
X35916430Y-53499738D01*
X35916437Y-53499742D01*
X35916442Y-53499744D01*
X35916450Y-53499748D01*
X36138724Y-53591816D01*
X36138726Y-53591816D01*
X36138732Y-53591819D01*
X36371143Y-53654094D01*
X36609695Y-53685500D01*
X36609702Y-53685500D01*
X36850298Y-53685500D01*
X36850305Y-53685500D01*
X37088857Y-53654094D01*
X37321268Y-53591819D01*
X37543563Y-53499742D01*
X37544239Y-53499352D01*
X37565028Y-53487349D01*
X37751937Y-53379437D01*
X37866014Y-53291903D01*
X37931183Y-53266709D01*
X37999628Y-53280747D01*
X38049617Y-53329561D01*
X38065500Y-53390279D01*
X38065500Y-59782422D01*
X38096290Y-59976826D01*
X38157117Y-60164030D01*
X38246476Y-60339405D01*
X38362172Y-60498646D01*
X41719353Y-63855827D01*
X41878594Y-63971523D01*
X41961453Y-64013741D01*
X42053968Y-64060881D01*
X42053970Y-64060881D01*
X42053973Y-64060883D01*
X42154317Y-64093486D01*
X42241172Y-64121708D01*
X42435577Y-64152499D01*
X42435582Y-64152499D01*
X42435583Y-64152499D01*
X42632416Y-64152499D01*
X87401581Y-64152499D01*
X88786070Y-64152499D01*
X88786074Y-64152500D01*
X88810737Y-64152500D01*
X89007576Y-64152500D01*
X89201980Y-64121709D01*
X89201983Y-64121708D01*
X89389180Y-64060884D01*
X89564559Y-63971524D01*
X89723800Y-63855828D01*
X94953828Y-58625800D01*
X95011681Y-58546172D01*
X95069524Y-58466559D01*
X95158884Y-58291179D01*
X95203000Y-58155405D01*
X95219709Y-58103981D01*
X95242995Y-57956957D01*
X95250500Y-57909576D01*
X95250500Y-20184846D01*
X95219709Y-19990442D01*
X95180212Y-19868884D01*
X95158884Y-19803244D01*
X95158882Y-19803241D01*
X95158882Y-19803239D01*
X95069523Y-19627863D01*
X94953828Y-19468623D01*
X94814646Y-19329441D01*
X84428380Y-8943172D01*
X84269139Y-8827476D01*
X84093764Y-8738117D01*
X83906561Y-8677290D01*
X83712156Y-8646500D01*
X83712151Y-8646500D01*
X58193429Y-8646500D01*
X58193424Y-8646500D01*
X57999019Y-8677290D01*
X57811815Y-8738117D01*
X57636437Y-8827478D01*
X57477206Y-8943165D01*
X57477201Y-8943169D01*
X52316174Y-14104197D01*
X52316172Y-14104200D01*
X52266485Y-14172587D01*
X52200476Y-14263440D01*
X52111117Y-14438815D01*
X52084747Y-14519976D01*
X52050290Y-14626019D01*
X52019500Y-14820423D01*
X52019500Y-17975732D01*
X51999815Y-18042771D01*
X51947011Y-18088526D01*
X51877853Y-18098470D01*
X51814297Y-18069445D01*
X51795182Y-18048618D01*
X51738413Y-17970483D01*
X51683828Y-17895354D01*
X51544646Y-17756172D01*
X51385405Y-17640476D01*
X51210029Y-17551117D01*
X51022826Y-17490290D01*
X50828422Y-17459500D01*
X50828417Y-17459500D01*
X50631583Y-17459500D01*
X50631578Y-17459500D01*
X50437173Y-17490290D01*
X50249970Y-17551117D01*
X50074594Y-17640476D01*
X49983741Y-17706485D01*
X49915354Y-17756172D01*
X49915352Y-17756174D01*
X49915351Y-17756174D01*
X49776174Y-17895351D01*
X49776174Y-17895352D01*
X49776172Y-17895354D01*
X49726485Y-17963741D01*
X49660476Y-18054594D01*
X49570485Y-18231213D01*
X49522511Y-18282009D01*
X49454690Y-18298804D01*
X49388555Y-18276267D01*
X49349515Y-18231213D01*
X49281879Y-18098470D01*
X49259524Y-18054595D01*
X49143828Y-17895354D01*
X49004646Y-17756172D01*
X48845405Y-17640476D01*
X48670029Y-17551117D01*
X48482826Y-17490290D01*
X48288422Y-17459500D01*
X48288417Y-17459500D01*
X48091583Y-17459500D01*
X48091578Y-17459500D01*
X47897173Y-17490290D01*
X47709970Y-17551117D01*
X47534594Y-17640476D01*
X47443741Y-17706485D01*
X47375354Y-17756172D01*
X47375352Y-17756174D01*
X47375351Y-17756174D01*
X47236174Y-17895351D01*
X47236174Y-17895352D01*
X47236172Y-17895354D01*
X47186485Y-17963741D01*
X47120476Y-18054594D01*
X47030485Y-18231213D01*
X46982511Y-18282009D01*
X46914690Y-18298804D01*
X46848555Y-18276267D01*
X46809515Y-18231213D01*
X46741879Y-18098470D01*
X46719524Y-18054595D01*
X46603828Y-17895354D01*
X46464646Y-17756172D01*
X46305405Y-17640476D01*
X46130029Y-17551117D01*
X45942826Y-17490290D01*
X45748422Y-17459500D01*
X45748417Y-17459500D01*
X45551583Y-17459500D01*
X45551578Y-17459500D01*
X45357173Y-17490290D01*
X45169970Y-17551117D01*
X44994594Y-17640476D01*
X44903741Y-17706485D01*
X44835354Y-17756172D01*
X44835352Y-17756174D01*
X44835351Y-17756174D01*
X44696174Y-17895351D01*
X44696174Y-17895352D01*
X44696172Y-17895354D01*
X44646485Y-17963741D01*
X44580476Y-18054594D01*
X44490485Y-18231213D01*
X44442511Y-18282009D01*
X44374690Y-18298804D01*
X44308555Y-18276267D01*
X44269515Y-18231213D01*
X44201879Y-18098470D01*
X44179524Y-18054595D01*
X44063828Y-17895354D01*
X43924646Y-17756172D01*
X43765405Y-17640476D01*
X43590029Y-17551117D01*
X43402826Y-17490290D01*
X43208422Y-17459500D01*
X43208417Y-17459500D01*
X43011583Y-17459500D01*
X43011578Y-17459500D01*
X42817173Y-17490290D01*
X42629970Y-17551117D01*
X42454594Y-17640476D01*
X42363741Y-17706485D01*
X42295354Y-17756172D01*
X42295352Y-17756174D01*
X42295351Y-17756174D01*
X42156174Y-17895351D01*
X42156174Y-17895352D01*
X42156172Y-17895354D01*
X42106485Y-17963741D01*
X42040476Y-18054594D01*
X41951117Y-18229970D01*
X41890290Y-18417173D01*
X41859500Y-18611577D01*
X41859500Y-18808422D01*
X41890290Y-19002826D01*
X41951117Y-19190029D01*
X42040475Y-19365403D01*
X42040476Y-19365405D01*
X42156172Y-19524646D01*
X42295354Y-19663828D01*
X42454595Y-19779524D01*
X42554665Y-19830512D01*
X42631213Y-19869515D01*
X42682009Y-19917489D01*
X42698804Y-19985310D01*
X42676267Y-20051445D01*
X42631213Y-20090485D01*
X42454594Y-20180476D01*
X42363741Y-20246485D01*
X42295354Y-20296172D01*
X42295352Y-20296174D01*
X42295351Y-20296174D01*
X42156174Y-20435351D01*
X42156174Y-20435352D01*
X42156172Y-20435354D01*
X42143980Y-20452135D01*
X42040476Y-20594594D01*
X41951117Y-20769970D01*
X41890290Y-20957173D01*
X41859500Y-21151577D01*
X41859500Y-21348422D01*
X41890290Y-21542826D01*
X41951117Y-21730029D01*
X42021782Y-21868716D01*
X42040476Y-21905405D01*
X42156172Y-22064646D01*
X42295354Y-22203828D01*
X42454595Y-22319524D01*
X42537455Y-22361743D01*
X42629970Y-22408882D01*
X42629972Y-22408882D01*
X42629975Y-22408884D01*
X42730317Y-22441487D01*
X42817173Y-22469709D01*
X43011578Y-22500500D01*
X43011583Y-22500500D01*
X43208422Y-22500500D01*
X43402826Y-22469709D01*
X43590025Y-22408884D01*
X43765405Y-22319524D01*
X43924646Y-22203828D01*
X44063828Y-22064646D01*
X44179524Y-21905405D01*
X44268884Y-21730025D01*
X44269515Y-21728787D01*
X44317489Y-21677990D01*
X44385310Y-21661195D01*
X44451445Y-21683732D01*
X44490485Y-21728787D01*
X44580474Y-21905403D01*
X44615234Y-21953246D01*
X44696172Y-22064646D01*
X44835354Y-22203828D01*
X44994595Y-22319524D01*
X45077455Y-22361743D01*
X45169970Y-22408882D01*
X45169972Y-22408882D01*
X45169975Y-22408884D01*
X45270317Y-22441487D01*
X45357173Y-22469709D01*
X45551578Y-22500500D01*
X45551583Y-22500500D01*
X45748422Y-22500500D01*
X45942826Y-22469709D01*
X46130025Y-22408884D01*
X46305405Y-22319524D01*
X46464646Y-22203828D01*
X46603828Y-22064646D01*
X46719524Y-21905405D01*
X46808884Y-21730025D01*
X46809515Y-21728787D01*
X46857489Y-21677990D01*
X46925310Y-21661195D01*
X46991445Y-21683732D01*
X47030485Y-21728787D01*
X47120474Y-21905403D01*
X47155234Y-21953246D01*
X47236172Y-22064646D01*
X47375354Y-22203828D01*
X47534595Y-22319524D01*
X47617455Y-22361743D01*
X47709970Y-22408882D01*
X47709972Y-22408882D01*
X47709975Y-22408884D01*
X47810317Y-22441487D01*
X47897173Y-22469709D01*
X48091578Y-22500500D01*
X48091583Y-22500500D01*
X48288422Y-22500500D01*
X48482826Y-22469709D01*
X48670025Y-22408884D01*
X48845405Y-22319524D01*
X49004646Y-22203828D01*
X49143828Y-22064646D01*
X49259524Y-21905405D01*
X49348884Y-21730025D01*
X49349515Y-21728787D01*
X49397489Y-21677990D01*
X49465310Y-21661195D01*
X49531445Y-21683732D01*
X49570485Y-21728787D01*
X49660474Y-21905403D01*
X49695234Y-21953246D01*
X49776172Y-22064646D01*
X49915354Y-22203828D01*
X50074595Y-22319524D01*
X50157455Y-22361743D01*
X50249970Y-22408882D01*
X50249972Y-22408882D01*
X50249975Y-22408884D01*
X50350317Y-22441487D01*
X50437173Y-22469709D01*
X50631578Y-22500500D01*
X50631583Y-22500500D01*
X50828422Y-22500500D01*
X51022826Y-22469709D01*
X51210025Y-22408884D01*
X51385405Y-22319524D01*
X51544646Y-22203828D01*
X51683828Y-22064646D01*
X51795182Y-21911380D01*
X51850512Y-21868716D01*
X51920126Y-21862737D01*
X51981921Y-21895343D01*
X52016278Y-21956182D01*
X52019500Y-21984267D01*
X52019500Y-24160664D01*
X51999815Y-24227703D01*
X51983181Y-24248345D01*
X47518345Y-28713181D01*
X47457022Y-28746666D01*
X47430664Y-28749500D01*
X32901578Y-28749500D01*
X32707172Y-28780291D01*
X32646348Y-28800053D01*
X32646348Y-28800054D01*
X32603103Y-28814105D01*
X32519970Y-28841117D01*
X32344594Y-28930476D01*
X32253741Y-28996485D01*
X32185354Y-29046172D01*
X32185352Y-29046174D01*
X32185351Y-29046174D01*
X26936174Y-34295351D01*
X26936174Y-34295352D01*
X26936172Y-34295354D01*
X26886485Y-34363741D01*
X26820476Y-34454594D01*
X26731117Y-34629971D01*
X26686755Y-34766503D01*
X26686755Y-34766504D01*
X26670290Y-34817173D01*
X26639500Y-35011577D01*
X26639500Y-42329959D01*
X26619815Y-42396998D01*
X26567011Y-42442753D01*
X26497853Y-42452697D01*
X26434297Y-42423672D01*
X26405016Y-42386254D01*
X26376763Y-42330805D01*
X26358500Y-42305669D01*
X26265690Y-42177927D01*
X26132073Y-42044310D01*
X25979199Y-41933240D01*
X25810836Y-41847454D01*
X25631118Y-41789059D01*
X25444486Y-41759500D01*
X25444481Y-41759500D01*
X25255519Y-41759500D01*
X25255514Y-41759500D01*
X25068881Y-41789059D01*
X24889163Y-41847454D01*
X24720800Y-41933240D01*
X24633579Y-41996610D01*
X24567927Y-42044310D01*
X24567925Y-42044312D01*
X24567924Y-42044312D01*
X24434312Y-42177924D01*
X24434312Y-42177925D01*
X24434310Y-42177927D01*
X24386610Y-42243579D01*
X24323240Y-42330800D01*
X24237454Y-42499163D01*
X24197931Y-42620803D01*
X24158493Y-42678478D01*
X24094134Y-42705676D01*
X24025288Y-42693761D01*
X23973812Y-42646516D01*
X23962069Y-42620803D01*
X23936031Y-42540667D01*
X23922547Y-42499168D01*
X23922545Y-42499165D01*
X23922545Y-42499163D01*
X23870489Y-42396998D01*
X23836760Y-42330801D01*
X23725690Y-42177927D01*
X23592073Y-42044310D01*
X23439199Y-41933240D01*
X23270836Y-41847454D01*
X23091118Y-41789059D01*
X22904486Y-41759500D01*
X22904481Y-41759500D01*
X22715519Y-41759500D01*
X22715514Y-41759500D01*
X22528881Y-41789059D01*
X22349163Y-41847454D01*
X22180800Y-41933240D01*
X22093579Y-41996610D01*
X22027927Y-42044310D01*
X22027925Y-42044312D01*
X22027924Y-42044312D01*
X21894312Y-42177924D01*
X21894312Y-42177925D01*
X21894310Y-42177927D01*
X21846610Y-42243579D01*
X21783240Y-42330800D01*
X21697454Y-42499163D01*
X21657668Y-42621612D01*
X21618230Y-42679287D01*
X21553871Y-42706485D01*
X21485025Y-42694570D01*
X21433549Y-42647325D01*
X21421806Y-42621611D01*
X21382085Y-42499362D01*
X21296329Y-42331059D01*
X21277883Y-42305670D01*
X21277882Y-42305669D01*
X20712137Y-42871414D01*
X20689333Y-42786306D01*
X20630090Y-42683694D01*
X20546306Y-42599910D01*
X20443694Y-42540667D01*
X20358584Y-42517861D01*
X20924328Y-41952116D01*
X20898933Y-41933666D01*
X20730637Y-41847914D01*
X20551002Y-41789548D01*
X20364447Y-41760000D01*
X20175553Y-41760000D01*
X19988997Y-41789548D01*
X19809362Y-41847914D01*
X19641060Y-41933669D01*
X19615670Y-41952116D01*
X19615669Y-41952116D01*
X20181415Y-42517861D01*
X20096306Y-42540667D01*
X19993694Y-42599910D01*
X19909910Y-42683694D01*
X19850667Y-42786306D01*
X19827861Y-42871414D01*
X19262116Y-42305669D01*
X19262116Y-42305670D01*
X19243669Y-42331060D01*
X19157914Y-42499362D01*
X19099548Y-42678997D01*
X19070000Y-42865552D01*
X19070000Y-43054447D01*
X19099548Y-43241002D01*
X19157914Y-43420637D01*
X19243666Y-43588933D01*
X19262116Y-43614328D01*
X19827861Y-43048584D01*
X19850667Y-43133694D01*
X19909910Y-43236306D01*
X19993694Y-43320090D01*
X20096306Y-43379333D01*
X20181415Y-43402138D01*
X19615669Y-43967882D01*
X19615670Y-43967883D01*
X19641059Y-43986329D01*
X19809362Y-44072085D01*
X19988997Y-44130451D01*
X20175553Y-44160000D01*
X20364447Y-44160000D01*
X20551002Y-44130451D01*
X20730637Y-44072085D01*
X20898937Y-43986331D01*
X20924328Y-43967883D01*
X20924328Y-43967882D01*
X20358584Y-43402138D01*
X20443694Y-43379333D01*
X20546306Y-43320090D01*
X20630090Y-43236306D01*
X20689333Y-43133694D01*
X20712138Y-43048584D01*
X21277882Y-43614328D01*
X21277883Y-43614328D01*
X21296331Y-43588937D01*
X21382086Y-43420635D01*
X21421806Y-43298389D01*
X21461243Y-43240713D01*
X21525601Y-43213514D01*
X21594448Y-43225428D01*
X21645924Y-43272672D01*
X21657668Y-43298387D01*
X21697454Y-43420836D01*
X21783104Y-43588933D01*
X21783240Y-43589199D01*
X21894310Y-43742073D01*
X22027927Y-43875690D01*
X22180801Y-43986760D01*
X22256209Y-44025182D01*
X22349163Y-44072545D01*
X22349165Y-44072545D01*
X22349168Y-44072547D01*
X22373682Y-44080512D01*
X22528881Y-44130940D01*
X22715514Y-44160500D01*
X22715519Y-44160500D01*
X22904486Y-44160500D01*
X23091118Y-44130940D01*
X23128228Y-44118882D01*
X23270832Y-44072547D01*
X23439199Y-43986760D01*
X23592073Y-43875690D01*
X23725690Y-43742073D01*
X23836760Y-43589199D01*
X23922547Y-43420832D01*
X23962069Y-43299195D01*
X24001507Y-43241521D01*
X24065866Y-43214323D01*
X24134712Y-43226238D01*
X24186188Y-43273482D01*
X24197930Y-43299194D01*
X24213291Y-43346472D01*
X24237454Y-43420836D01*
X24323104Y-43588933D01*
X24323240Y-43589199D01*
X24434310Y-43742073D01*
X24567927Y-43875690D01*
X24720801Y-43986760D01*
X24796209Y-44025182D01*
X24889163Y-44072545D01*
X24889165Y-44072545D01*
X24889168Y-44072547D01*
X24913682Y-44080512D01*
X25068881Y-44130940D01*
X25255514Y-44160500D01*
X25255519Y-44160500D01*
X25444486Y-44160500D01*
X25631118Y-44130940D01*
X25668228Y-44118882D01*
X25810832Y-44072547D01*
X25979199Y-43986760D01*
X26132073Y-43875690D01*
X26265690Y-43742073D01*
X26376760Y-43589199D01*
X26462547Y-43420832D01*
X26475782Y-43380096D01*
X26515219Y-43322422D01*
X26579577Y-43295223D01*
X26648424Y-43307137D01*
X26699900Y-43354381D01*
X26711643Y-43380094D01*
X26720037Y-43405927D01*
X26731117Y-43440029D01*
X26806988Y-43588933D01*
X26820476Y-43615405D01*
X26936172Y-43774646D01*
X27075354Y-43913828D01*
X27234595Y-44029524D01*
X27263589Y-44044297D01*
X27409970Y-44118882D01*
X27409972Y-44118882D01*
X27409975Y-44118884D01*
X27506127Y-44150126D01*
X27597173Y-44179709D01*
X27791578Y-44210500D01*
X27791583Y-44210500D01*
X27988422Y-44210500D01*
X28182826Y-44179709D01*
X28370025Y-44118884D01*
X28545405Y-44029524D01*
X28704646Y-43913828D01*
X28843828Y-43774646D01*
X28959524Y-43615405D01*
X29048884Y-43440025D01*
X29109709Y-43252826D01*
X29111582Y-43241002D01*
X29140500Y-43058422D01*
X29140500Y-40010094D01*
X29160185Y-39943055D01*
X29212989Y-39897300D01*
X29282147Y-39887356D01*
X29337383Y-39909774D01*
X29410110Y-39962614D01*
X29487529Y-40002061D01*
X29567957Y-40043042D01*
X29567960Y-40043043D01*
X29652201Y-40070414D01*
X29736445Y-40097786D01*
X29911421Y-40125500D01*
X29911422Y-40125500D01*
X36088578Y-40125500D01*
X36088579Y-40125500D01*
X36263555Y-40097786D01*
X36432042Y-40043042D01*
X36589890Y-39962614D01*
X36733214Y-39858483D01*
X36858483Y-39733214D01*
X36962614Y-39589890D01*
X37043042Y-39432042D01*
X37097786Y-39263555D01*
X37125500Y-39088579D01*
X37125500Y-35911421D01*
X37097786Y-35736445D01*
X37043042Y-35567958D01*
X37043042Y-35567957D01*
X36962613Y-35410109D01*
X36858483Y-35266786D01*
X36733214Y-35141517D01*
X36589890Y-35037386D01*
X36432042Y-34956957D01*
X36432039Y-34956956D01*
X36263556Y-34902214D01*
X36176067Y-34888357D01*
X36088579Y-34874500D01*
X30193335Y-34874500D01*
X30126296Y-34854815D01*
X30080541Y-34802011D01*
X30070597Y-34732853D01*
X30099622Y-34669297D01*
X30105654Y-34662819D01*
X31731088Y-33037386D01*
X33481655Y-31286819D01*
X33542978Y-31253334D01*
X33569336Y-31250500D01*
X48098422Y-31250500D01*
X48292826Y-31219709D01*
X48480026Y-31158884D01*
X48655405Y-31069524D01*
X48814646Y-30953828D01*
X54223828Y-25544646D01*
X54335183Y-25391378D01*
X54390512Y-25348715D01*
X54460125Y-25342736D01*
X54521920Y-25375342D01*
X54556278Y-25436181D01*
X54559500Y-25464266D01*
X54559500Y-30120664D01*
X54539815Y-30187703D01*
X54523181Y-30208345D01*
X45936174Y-38795351D01*
X45936174Y-38795352D01*
X45936172Y-38795354D01*
X45886485Y-38863741D01*
X45820476Y-38954594D01*
X45730669Y-39130851D01*
X45729608Y-39134612D01*
X45670291Y-39317169D01*
X45670291Y-39317172D01*
X45639500Y-39511577D01*
X45639500Y-42329959D01*
X45619815Y-42396998D01*
X45567011Y-42442753D01*
X45497853Y-42452697D01*
X45434297Y-42423672D01*
X45405016Y-42386254D01*
X45376763Y-42330805D01*
X45358500Y-42305669D01*
X45265690Y-42177927D01*
X45132073Y-42044310D01*
X44979199Y-41933240D01*
X44810836Y-41847454D01*
X44631118Y-41789059D01*
X44444486Y-41759500D01*
X44444481Y-41759500D01*
X44255519Y-41759500D01*
X44255514Y-41759500D01*
X44068881Y-41789059D01*
X43889163Y-41847454D01*
X43720800Y-41933240D01*
X43633579Y-41996610D01*
X43567927Y-42044310D01*
X43567925Y-42044312D01*
X43567924Y-42044312D01*
X43434312Y-42177924D01*
X43434312Y-42177925D01*
X43434310Y-42177927D01*
X43386610Y-42243579D01*
X43323240Y-42330800D01*
X43237454Y-42499163D01*
X43197931Y-42620803D01*
X43158493Y-42678478D01*
X43094134Y-42705676D01*
X43025288Y-42693761D01*
X42973812Y-42646516D01*
X42962069Y-42620803D01*
X42936031Y-42540667D01*
X42922547Y-42499168D01*
X42922545Y-42499165D01*
X42922545Y-42499163D01*
X42870489Y-42396998D01*
X42836760Y-42330801D01*
X42725690Y-42177927D01*
X42592073Y-42044310D01*
X42439199Y-41933240D01*
X42270836Y-41847454D01*
X42091118Y-41789059D01*
X41904486Y-41759500D01*
X41904481Y-41759500D01*
X41715519Y-41759500D01*
X41715514Y-41759500D01*
X41528881Y-41789059D01*
X41349163Y-41847454D01*
X41180800Y-41933240D01*
X41093579Y-41996610D01*
X41027927Y-42044310D01*
X41027925Y-42044312D01*
X41027924Y-42044312D01*
X40894312Y-42177924D01*
X40894312Y-42177925D01*
X40894310Y-42177927D01*
X40846610Y-42243579D01*
X40783240Y-42330800D01*
X40697454Y-42499163D01*
X40657668Y-42621612D01*
X40618230Y-42679287D01*
X40553871Y-42706485D01*
X40485025Y-42694570D01*
X40433549Y-42647325D01*
X40421806Y-42621611D01*
X40382085Y-42499362D01*
X40296329Y-42331059D01*
X40277883Y-42305670D01*
X40277882Y-42305669D01*
X39712137Y-42871414D01*
X39689333Y-42786306D01*
X39630090Y-42683694D01*
X39546306Y-42599910D01*
X39443694Y-42540667D01*
X39358584Y-42517861D01*
X39924328Y-41952116D01*
X39898933Y-41933666D01*
X39730637Y-41847914D01*
X39551002Y-41789548D01*
X39364447Y-41760000D01*
X39175553Y-41760000D01*
X38988997Y-41789548D01*
X38809362Y-41847914D01*
X38641060Y-41933669D01*
X38615670Y-41952116D01*
X38615669Y-41952116D01*
X39181415Y-42517861D01*
X39096306Y-42540667D01*
X38993694Y-42599910D01*
X38909910Y-42683694D01*
X38850667Y-42786306D01*
X38827861Y-42871414D01*
X38262116Y-42305669D01*
X38262116Y-42305670D01*
X38243669Y-42331060D01*
X38157914Y-42499362D01*
X38099548Y-42678997D01*
X38070000Y-42865552D01*
X38070000Y-43054447D01*
X38099548Y-43241002D01*
X38157914Y-43420637D01*
X38243666Y-43588933D01*
X38262116Y-43614328D01*
X38827861Y-43048584D01*
X38850667Y-43133694D01*
X38909910Y-43236306D01*
X38993694Y-43320090D01*
X39096306Y-43379333D01*
X39181415Y-43402138D01*
X38615669Y-43967882D01*
X38615670Y-43967883D01*
X38641059Y-43986329D01*
X38809362Y-44072085D01*
X38988997Y-44130451D01*
X39175553Y-44160000D01*
X39364447Y-44160000D01*
X39551002Y-44130451D01*
X39730637Y-44072085D01*
X39898937Y-43986331D01*
X39924328Y-43967883D01*
X39924328Y-43967882D01*
X39358584Y-43402138D01*
X39443694Y-43379333D01*
X39546306Y-43320090D01*
X39630090Y-43236306D01*
X39689333Y-43133694D01*
X39712138Y-43048584D01*
X40277882Y-43614328D01*
X40277883Y-43614328D01*
X40296331Y-43588937D01*
X40382086Y-43420635D01*
X40421806Y-43298389D01*
X40461243Y-43240713D01*
X40525601Y-43213514D01*
X40594448Y-43225428D01*
X40645924Y-43272672D01*
X40657668Y-43298387D01*
X40697454Y-43420836D01*
X40783104Y-43588933D01*
X40783240Y-43589199D01*
X40894310Y-43742073D01*
X41027927Y-43875690D01*
X41180801Y-43986760D01*
X41256209Y-44025182D01*
X41349163Y-44072545D01*
X41349165Y-44072545D01*
X41349168Y-44072547D01*
X41373682Y-44080512D01*
X41528881Y-44130940D01*
X41715514Y-44160500D01*
X41715519Y-44160500D01*
X41904486Y-44160500D01*
X42091118Y-44130940D01*
X42128228Y-44118882D01*
X42270832Y-44072547D01*
X42439199Y-43986760D01*
X42592073Y-43875690D01*
X42725690Y-43742073D01*
X42836760Y-43589199D01*
X42922547Y-43420832D01*
X42962069Y-43299195D01*
X43001507Y-43241521D01*
X43065866Y-43214323D01*
X43134712Y-43226238D01*
X43186188Y-43273482D01*
X43197930Y-43299194D01*
X43213291Y-43346472D01*
X43237454Y-43420836D01*
X43323104Y-43588933D01*
X43323240Y-43589199D01*
X43434310Y-43742073D01*
X43567927Y-43875690D01*
X43720801Y-43986760D01*
X43796209Y-44025182D01*
X43889163Y-44072545D01*
X43889165Y-44072545D01*
X43889168Y-44072547D01*
X43913682Y-44080512D01*
X44068881Y-44130940D01*
X44255514Y-44160500D01*
X44255519Y-44160500D01*
X44444486Y-44160500D01*
X44631118Y-44130940D01*
X44668228Y-44118882D01*
X44810832Y-44072547D01*
X44979199Y-43986760D01*
X45132073Y-43875690D01*
X45265690Y-43742073D01*
X45376760Y-43589199D01*
X45462547Y-43420832D01*
X45475782Y-43380096D01*
X45515219Y-43322422D01*
X45579577Y-43295223D01*
X45648424Y-43307137D01*
X45699900Y-43354381D01*
X45711643Y-43380094D01*
X45720037Y-43405927D01*
X45731117Y-43440029D01*
X45806988Y-43588933D01*
X45820476Y-43615405D01*
X45936172Y-43774646D01*
X46075354Y-43913828D01*
X46234595Y-44029524D01*
X46263589Y-44044297D01*
X46409970Y-44118882D01*
X46409972Y-44118882D01*
X46409975Y-44118884D01*
X46506127Y-44150126D01*
X46597173Y-44179709D01*
X46791578Y-44210500D01*
X46791583Y-44210500D01*
X46988422Y-44210500D01*
X47182826Y-44179709D01*
X47370025Y-44118884D01*
X47545405Y-44029524D01*
X47704646Y-43913828D01*
X47843828Y-43774646D01*
X47959524Y-43615405D01*
X48048884Y-43440025D01*
X48109709Y-43252826D01*
X48111582Y-43241002D01*
X48140500Y-43058422D01*
X48140500Y-40179336D01*
X48160185Y-40112297D01*
X48176819Y-40091655D01*
X52357053Y-35911421D01*
X56763828Y-31504646D01*
X56875182Y-31351380D01*
X56930512Y-31308716D01*
X57000126Y-31302737D01*
X57061921Y-31335343D01*
X57096278Y-31396182D01*
X57099500Y-31424267D01*
X57099500Y-32448422D01*
X57130290Y-32642826D01*
X57191117Y-32830030D01*
X57255791Y-32956958D01*
X57280476Y-33005405D01*
X57396172Y-33164646D01*
X57396174Y-33164648D01*
X64603181Y-40371655D01*
X64636666Y-40432978D01*
X64639500Y-40459336D01*
X64639500Y-42329959D01*
X64619815Y-42396998D01*
X64567011Y-42442753D01*
X64497853Y-42452697D01*
X64434297Y-42423672D01*
X64405016Y-42386254D01*
X64376763Y-42330805D01*
X64358500Y-42305669D01*
X64265690Y-42177927D01*
X64132073Y-42044310D01*
X63979199Y-41933240D01*
X63810836Y-41847454D01*
X63631118Y-41789059D01*
X63444486Y-41759500D01*
X63444481Y-41759500D01*
X63255519Y-41759500D01*
X63255514Y-41759500D01*
X63068881Y-41789059D01*
X62889163Y-41847454D01*
X62720800Y-41933240D01*
X62633579Y-41996610D01*
X62567927Y-42044310D01*
X62567925Y-42044312D01*
X62567924Y-42044312D01*
X62434312Y-42177924D01*
X62434312Y-42177925D01*
X62434310Y-42177927D01*
X62386610Y-42243579D01*
X62323240Y-42330800D01*
X62237454Y-42499163D01*
X62197931Y-42620803D01*
X62158493Y-42678478D01*
X62094134Y-42705676D01*
X62025288Y-42693761D01*
X61973812Y-42646516D01*
X61962069Y-42620803D01*
X61936031Y-42540667D01*
X61922547Y-42499168D01*
X61922545Y-42499165D01*
X61922545Y-42499163D01*
X61870489Y-42396998D01*
X61836760Y-42330801D01*
X61725690Y-42177927D01*
X61592073Y-42044310D01*
X61439199Y-41933240D01*
X61270836Y-41847454D01*
X61091118Y-41789059D01*
X60904486Y-41759500D01*
X60904481Y-41759500D01*
X60715519Y-41759500D01*
X60715514Y-41759500D01*
X60528881Y-41789059D01*
X60349163Y-41847454D01*
X60180800Y-41933240D01*
X60093579Y-41996610D01*
X60027927Y-42044310D01*
X60027925Y-42044312D01*
X60027924Y-42044312D01*
X59894312Y-42177924D01*
X59894312Y-42177925D01*
X59894310Y-42177927D01*
X59846610Y-42243579D01*
X59783240Y-42330800D01*
X59697454Y-42499163D01*
X59657668Y-42621612D01*
X59618230Y-42679287D01*
X59553871Y-42706485D01*
X59485025Y-42694570D01*
X59433549Y-42647325D01*
X59421806Y-42621611D01*
X59382085Y-42499362D01*
X59296329Y-42331059D01*
X59277883Y-42305670D01*
X59277882Y-42305669D01*
X58712137Y-42871414D01*
X58689333Y-42786306D01*
X58630090Y-42683694D01*
X58546306Y-42599910D01*
X58443694Y-42540667D01*
X58358584Y-42517861D01*
X58924328Y-41952116D01*
X58898933Y-41933666D01*
X58730637Y-41847914D01*
X58551002Y-41789548D01*
X58364447Y-41760000D01*
X58175553Y-41760000D01*
X57988997Y-41789548D01*
X57809362Y-41847914D01*
X57641060Y-41933669D01*
X57615670Y-41952116D01*
X57615669Y-41952116D01*
X58181415Y-42517861D01*
X58096306Y-42540667D01*
X57993694Y-42599910D01*
X57909910Y-42683694D01*
X57850667Y-42786306D01*
X57827861Y-42871414D01*
X57262116Y-42305669D01*
X57262116Y-42305670D01*
X57243669Y-42331060D01*
X57157914Y-42499362D01*
X57099548Y-42678997D01*
X57070000Y-42865552D01*
X57070000Y-43054447D01*
X57099548Y-43241002D01*
X57157914Y-43420637D01*
X57243666Y-43588933D01*
X57262116Y-43614328D01*
X57827861Y-43048584D01*
X57850667Y-43133694D01*
X57909910Y-43236306D01*
X57993694Y-43320090D01*
X58096306Y-43379333D01*
X58181415Y-43402138D01*
X57615669Y-43967882D01*
X57615670Y-43967883D01*
X57641059Y-43986329D01*
X57809362Y-44072085D01*
X57988997Y-44130451D01*
X58175553Y-44160000D01*
X58364447Y-44160000D01*
X58551002Y-44130451D01*
X58730637Y-44072085D01*
X58898937Y-43986331D01*
X58924328Y-43967883D01*
X58924328Y-43967882D01*
X58358584Y-43402138D01*
X58443694Y-43379333D01*
X58546306Y-43320090D01*
X58630090Y-43236306D01*
X58689333Y-43133694D01*
X58712138Y-43048584D01*
X59277882Y-43614328D01*
X59277883Y-43614328D01*
X59296331Y-43588937D01*
X59382086Y-43420635D01*
X59421806Y-43298389D01*
X59461243Y-43240713D01*
X59525601Y-43213514D01*
X59594448Y-43225428D01*
X59645924Y-43272672D01*
X59657668Y-43298387D01*
X59697454Y-43420836D01*
X59783104Y-43588933D01*
X59783240Y-43589199D01*
X59894310Y-43742073D01*
X60027927Y-43875690D01*
X60180801Y-43986760D01*
X60256209Y-44025182D01*
X60349163Y-44072545D01*
X60349165Y-44072545D01*
X60349168Y-44072547D01*
X60373682Y-44080512D01*
X60528881Y-44130940D01*
X60715514Y-44160500D01*
X60715519Y-44160500D01*
X60904486Y-44160500D01*
X61091118Y-44130940D01*
X61128228Y-44118882D01*
X61270832Y-44072547D01*
X61439199Y-43986760D01*
X61592073Y-43875690D01*
X61725690Y-43742073D01*
X61836760Y-43589199D01*
X61922547Y-43420832D01*
X61962069Y-43299195D01*
X62001507Y-43241521D01*
X62065866Y-43214323D01*
X62134712Y-43226238D01*
X62186188Y-43273482D01*
X62197930Y-43299194D01*
X62213291Y-43346472D01*
X62237454Y-43420836D01*
X62323104Y-43588933D01*
X62323240Y-43589199D01*
X62434310Y-43742073D01*
X62567927Y-43875690D01*
X62720801Y-43986760D01*
X62796209Y-44025182D01*
X62889163Y-44072545D01*
X62889165Y-44072545D01*
X62889168Y-44072547D01*
X62913682Y-44080512D01*
X63068881Y-44130940D01*
X63255514Y-44160500D01*
X63255519Y-44160500D01*
X63444486Y-44160500D01*
X63631118Y-44130940D01*
X63668228Y-44118882D01*
X63810832Y-44072547D01*
X63979199Y-43986760D01*
X64132073Y-43875690D01*
X64265690Y-43742073D01*
X64376760Y-43589199D01*
X64462547Y-43420832D01*
X64475782Y-43380096D01*
X64515219Y-43322422D01*
X64579577Y-43295223D01*
X64648424Y-43307137D01*
X64699900Y-43354381D01*
X64711643Y-43380094D01*
X64720037Y-43405927D01*
X64731117Y-43440029D01*
X64806988Y-43588933D01*
X64820476Y-43615405D01*
X64936172Y-43774646D01*
X65075354Y-43913828D01*
X65175736Y-43986760D01*
X65228619Y-44025182D01*
X65271284Y-44080512D01*
X65277263Y-44150126D01*
X65244657Y-44211921D01*
X65183818Y-44246278D01*
X65155733Y-44249500D01*
X64521578Y-44249500D01*
X64327173Y-44280290D01*
X64139970Y-44341117D01*
X63964594Y-44430476D01*
X63905149Y-44473666D01*
X63805354Y-44546172D01*
X63805352Y-44546174D01*
X63805351Y-44546174D01*
X63666174Y-44685351D01*
X63666174Y-44685352D01*
X63666172Y-44685354D01*
X63642508Y-44717925D01*
X63550476Y-44844594D01*
X63461118Y-45019969D01*
X63461116Y-45019974D01*
X63461116Y-45019975D01*
X63441645Y-45079902D01*
X63441644Y-45079904D01*
X63402205Y-45137579D01*
X63337846Y-45164776D01*
X63269000Y-45152861D01*
X63217525Y-45105616D01*
X63205783Y-45079904D01*
X63192547Y-45039168D01*
X63106760Y-44870801D01*
X62995690Y-44717927D01*
X62862073Y-44584310D01*
X62709199Y-44473240D01*
X62540836Y-44387454D01*
X62361118Y-44329059D01*
X62174486Y-44299500D01*
X62174481Y-44299500D01*
X61985519Y-44299500D01*
X61985514Y-44299500D01*
X61798881Y-44329059D01*
X61619163Y-44387454D01*
X61450800Y-44473240D01*
X61363579Y-44536610D01*
X61297927Y-44584310D01*
X61297925Y-44584312D01*
X61297924Y-44584312D01*
X61164312Y-44717924D01*
X61164312Y-44717925D01*
X61164310Y-44717927D01*
X61116610Y-44783579D01*
X61053240Y-44870800D01*
X60967454Y-45039163D01*
X60927931Y-45160803D01*
X60888493Y-45218478D01*
X60824134Y-45245676D01*
X60755288Y-45233761D01*
X60703812Y-45186516D01*
X60692069Y-45160803D01*
X60665783Y-45079904D01*
X60652547Y-45039168D01*
X60652545Y-45039165D01*
X60652545Y-45039163D01*
X60607290Y-44950347D01*
X60566760Y-44870801D01*
X60455690Y-44717927D01*
X60322073Y-44584310D01*
X60169199Y-44473240D01*
X60000836Y-44387454D01*
X59821118Y-44329059D01*
X59634486Y-44299500D01*
X59634481Y-44299500D01*
X59445519Y-44299500D01*
X59445514Y-44299500D01*
X59258881Y-44329059D01*
X59079163Y-44387454D01*
X58910800Y-44473240D01*
X58823579Y-44536610D01*
X58757927Y-44584310D01*
X58757925Y-44584312D01*
X58757924Y-44584312D01*
X58624312Y-44717924D01*
X58624312Y-44717925D01*
X58624310Y-44717927D01*
X58576610Y-44783579D01*
X58513240Y-44870800D01*
X58427454Y-45039163D01*
X58387668Y-45161612D01*
X58348230Y-45219287D01*
X58283871Y-45246485D01*
X58215025Y-45234570D01*
X58163549Y-45187325D01*
X58151806Y-45161611D01*
X58112085Y-45039362D01*
X58026329Y-44871059D01*
X58007883Y-44845670D01*
X58007882Y-44845669D01*
X57442137Y-45411414D01*
X57419333Y-45326306D01*
X57360090Y-45223694D01*
X57276306Y-45139910D01*
X57173694Y-45080667D01*
X57088584Y-45057861D01*
X57654328Y-44492116D01*
X57628933Y-44473666D01*
X57460637Y-44387914D01*
X57281002Y-44329548D01*
X57094447Y-44300000D01*
X56905553Y-44300000D01*
X56718997Y-44329548D01*
X56539362Y-44387914D01*
X56371060Y-44473669D01*
X56345670Y-44492116D01*
X56345669Y-44492116D01*
X56911415Y-45057861D01*
X56826306Y-45080667D01*
X56723694Y-45139910D01*
X56639910Y-45223694D01*
X56580667Y-45326306D01*
X56557861Y-45411414D01*
X55992116Y-44845669D01*
X55992116Y-44845670D01*
X55973669Y-44871060D01*
X55887914Y-45039362D01*
X55829548Y-45218997D01*
X55800000Y-45405552D01*
X55800000Y-45594447D01*
X55829548Y-45781002D01*
X55887914Y-45960637D01*
X55973666Y-46128933D01*
X55992116Y-46154328D01*
X56557861Y-45588584D01*
X56580667Y-45673694D01*
X56639910Y-45776306D01*
X56723694Y-45860090D01*
X56826306Y-45919333D01*
X56911415Y-45942138D01*
X56345669Y-46507882D01*
X56345670Y-46507883D01*
X56371059Y-46526329D01*
X56539362Y-46612085D01*
X56718997Y-46670451D01*
X56905553Y-46700000D01*
X57094447Y-46700000D01*
X57281002Y-46670451D01*
X57460637Y-46612085D01*
X57628937Y-46526331D01*
X57654328Y-46507883D01*
X57654328Y-46507882D01*
X57088584Y-45942138D01*
X57173694Y-45919333D01*
X57276306Y-45860090D01*
X57360090Y-45776306D01*
X57419333Y-45673694D01*
X57442138Y-45588584D01*
X58007882Y-46154328D01*
X58007883Y-46154328D01*
X58026331Y-46128937D01*
X58112086Y-45960635D01*
X58151806Y-45838389D01*
X58191243Y-45780713D01*
X58255601Y-45753514D01*
X58324448Y-45765428D01*
X58375924Y-45812672D01*
X58387668Y-45838387D01*
X58427454Y-45960836D01*
X58484985Y-46073745D01*
X58513240Y-46129199D01*
X58624310Y-46282073D01*
X58757927Y-46415690D01*
X58910801Y-46526760D01*
X58990347Y-46567290D01*
X59079163Y-46612545D01*
X59079165Y-46612545D01*
X59079168Y-46612547D01*
X59158566Y-46638345D01*
X59258881Y-46670940D01*
X59445514Y-46700500D01*
X59445519Y-46700500D01*
X59634486Y-46700500D01*
X59821118Y-46670940D01*
X59858228Y-46658882D01*
X60000832Y-46612547D01*
X60169199Y-46526760D01*
X60322073Y-46415690D01*
X60455690Y-46282073D01*
X60566760Y-46129199D01*
X60652547Y-45960832D01*
X60692069Y-45839195D01*
X60731507Y-45781521D01*
X60795866Y-45754323D01*
X60864712Y-45766238D01*
X60916188Y-45813482D01*
X60927930Y-45839194D01*
X60943291Y-45886472D01*
X60967454Y-45960836D01*
X61024985Y-46073745D01*
X61053240Y-46129199D01*
X61164310Y-46282073D01*
X61297927Y-46415690D01*
X61450801Y-46526760D01*
X61530347Y-46567290D01*
X61619163Y-46612545D01*
X61619165Y-46612545D01*
X61619168Y-46612547D01*
X61698566Y-46638345D01*
X61798881Y-46670940D01*
X61985514Y-46700500D01*
X61985519Y-46700500D01*
X62174486Y-46700500D01*
X62361118Y-46670940D01*
X62398228Y-46658882D01*
X62540832Y-46612547D01*
X62709199Y-46526760D01*
X62862073Y-46415690D01*
X62995690Y-46282073D01*
X63106760Y-46129199D01*
X63192547Y-45960832D01*
X63205782Y-45920096D01*
X63245219Y-45862422D01*
X63309577Y-45835223D01*
X63378424Y-45847137D01*
X63429900Y-45894381D01*
X63441643Y-45920094D01*
X63450037Y-45945927D01*
X63461117Y-45980029D01*
X63536988Y-46128933D01*
X63550476Y-46155405D01*
X63666172Y-46314646D01*
X63805354Y-46453828D01*
X63964595Y-46569524D01*
X64028382Y-46602025D01*
X64139970Y-46658882D01*
X64139972Y-46658882D01*
X64139975Y-46658884D01*
X64240317Y-46691487D01*
X64327173Y-46719709D01*
X64521578Y-46750500D01*
X64521583Y-46750500D01*
X66930664Y-46750500D01*
X66997703Y-46770185D01*
X67018345Y-46786819D01*
X70046171Y-49814645D01*
X70046172Y-49814646D01*
X70185354Y-49953828D01*
X70344595Y-50069524D01*
X70519973Y-50158883D01*
X70519979Y-50158886D01*
X70604223Y-50186258D01*
X70646346Y-50199944D01*
X70646347Y-50199945D01*
X70646348Y-50199945D01*
X70707173Y-50219709D01*
X70780076Y-50231255D01*
X70901578Y-50250500D01*
X70901583Y-50250500D01*
X73434626Y-50250500D01*
X73501665Y-50270185D01*
X73547420Y-50322989D01*
X73557364Y-50392147D01*
X73528339Y-50455703D01*
X73519985Y-50464107D01*
X73520044Y-50464166D01*
X73347041Y-50637168D01*
X73347035Y-50637175D01*
X73200569Y-50828054D01*
X73200558Y-50828070D01*
X73080261Y-51036429D01*
X73080253Y-51036446D01*
X72988183Y-51258724D01*
X72925905Y-51491146D01*
X72894501Y-51729685D01*
X72894500Y-51729701D01*
X72894500Y-51970298D01*
X72894501Y-51970314D01*
X72925905Y-52208853D01*
X72988183Y-52441275D01*
X73080253Y-52663553D01*
X73080261Y-52663570D01*
X73200558Y-52871929D01*
X73200569Y-52871945D01*
X73347035Y-53062824D01*
X73347041Y-53062831D01*
X73449816Y-53165606D01*
X73483301Y-53226929D01*
X73478317Y-53296621D01*
X73436445Y-53352554D01*
X73370981Y-53376971D01*
X73314683Y-53367848D01*
X73117796Y-53286295D01*
X73117784Y-53286291D01*
X73117781Y-53286290D01*
X72902463Y-53228596D01*
X72902457Y-53228595D01*
X72902452Y-53228594D01*
X72681466Y-53199501D01*
X72681463Y-53199500D01*
X72681457Y-53199500D01*
X72458543Y-53199500D01*
X72458537Y-53199500D01*
X72458533Y-53199501D01*
X72237547Y-53228594D01*
X72237540Y-53228595D01*
X72237537Y-53228596D01*
X72124560Y-53258868D01*
X72022219Y-53286290D01*
X72022209Y-53286293D01*
X71816277Y-53371593D01*
X71816273Y-53371595D01*
X71623226Y-53483052D01*
X71623217Y-53483058D01*
X71446377Y-53618751D01*
X71446370Y-53618757D01*
X71288757Y-53776370D01*
X71288751Y-53776377D01*
X71153058Y-53953217D01*
X71153052Y-53953226D01*
X71052387Y-54127581D01*
X71001819Y-54175796D01*
X70933212Y-54189018D01*
X70868348Y-54163050D01*
X70837613Y-54127581D01*
X70790611Y-54046172D01*
X70736948Y-53953226D01*
X70601247Y-53776376D01*
X70601242Y-53776370D01*
X70443629Y-53618757D01*
X70443622Y-53618751D01*
X70266782Y-53483058D01*
X70266780Y-53483057D01*
X70266774Y-53483052D01*
X70073726Y-53371595D01*
X70073722Y-53371593D01*
X69867790Y-53286293D01*
X69867783Y-53286291D01*
X69867781Y-53286290D01*
X69652463Y-53228596D01*
X69652457Y-53228595D01*
X69652452Y-53228594D01*
X69431466Y-53199501D01*
X69431463Y-53199500D01*
X69431457Y-53199500D01*
X69208543Y-53199500D01*
X69208537Y-53199500D01*
X69208533Y-53199501D01*
X68987547Y-53228594D01*
X68987540Y-53228595D01*
X68987537Y-53228596D01*
X68874560Y-53258868D01*
X68772219Y-53286290D01*
X68772203Y-53286295D01*
X68575316Y-53367848D01*
X68505847Y-53375317D01*
X68443368Y-53344041D01*
X68407716Y-53283952D01*
X68410210Y-53214127D01*
X68440181Y-53165607D01*
X68542963Y-53062826D01*
X68689437Y-52871937D01*
X68809742Y-52663563D01*
X68901819Y-52441268D01*
X68964094Y-52208857D01*
X68995500Y-51970305D01*
X68995500Y-51729695D01*
X68964094Y-51491143D01*
X68901819Y-51258732D01*
X68809742Y-51036437D01*
X68809740Y-51036434D01*
X68809738Y-51036429D01*
X68689441Y-50828070D01*
X68689437Y-50828063D01*
X68568164Y-50670017D01*
X68542964Y-50637175D01*
X68542958Y-50637168D01*
X68372828Y-50467038D01*
X68372824Y-50467035D01*
X68181945Y-50320569D01*
X68181943Y-50320567D01*
X68181937Y-50320563D01*
X68181932Y-50320560D01*
X68181929Y-50320558D01*
X67973570Y-50200261D01*
X67973553Y-50200253D01*
X67751275Y-50108183D01*
X67606999Y-50069524D01*
X67518857Y-50045906D01*
X67518856Y-50045905D01*
X67518853Y-50045905D01*
X67280314Y-50014501D01*
X67280311Y-50014500D01*
X67280305Y-50014500D01*
X67039695Y-50014500D01*
X67039689Y-50014500D01*
X67039685Y-50014501D01*
X66801146Y-50045905D01*
X66568724Y-50108183D01*
X66346446Y-50200253D01*
X66346429Y-50200261D01*
X66138070Y-50320558D01*
X66138054Y-50320569D01*
X65947175Y-50467035D01*
X65947172Y-50467038D01*
X65777041Y-50637168D01*
X65777035Y-50637175D01*
X65630569Y-50828054D01*
X65630558Y-50828070D01*
X65510261Y-51036429D01*
X65510253Y-51036446D01*
X65418183Y-51258724D01*
X65355905Y-51491146D01*
X65324501Y-51729685D01*
X65324500Y-51729701D01*
X65324500Y-51970298D01*
X65324501Y-51970314D01*
X65355905Y-52208853D01*
X65418183Y-52441275D01*
X65510253Y-52663553D01*
X65510261Y-52663570D01*
X65630558Y-52871929D01*
X65630569Y-52871945D01*
X65777035Y-53062824D01*
X65777041Y-53062831D01*
X65947168Y-53232958D01*
X65947174Y-53232963D01*
X66138063Y-53379437D01*
X66138070Y-53379441D01*
X66346429Y-53499738D01*
X66346434Y-53499740D01*
X66346437Y-53499742D01*
X66346441Y-53499743D01*
X66346446Y-53499746D01*
X66568724Y-53591816D01*
X66568726Y-53591816D01*
X66568732Y-53591819D01*
X66801143Y-53654094D01*
X67039695Y-53685500D01*
X67039702Y-53685500D01*
X67280298Y-53685500D01*
X67280305Y-53685500D01*
X67518857Y-53654094D01*
X67751268Y-53591819D01*
X67973563Y-53499742D01*
X67973573Y-53499735D01*
X67974343Y-53499357D01*
X67974604Y-53499311D01*
X67977314Y-53498189D01*
X67977564Y-53498794D01*
X68043173Y-53487349D01*
X68107568Y-53514460D01*
X68147084Y-53572082D01*
X68149174Y-53641920D01*
X68116887Y-53698241D01*
X68038750Y-53776378D01*
X67903058Y-53953217D01*
X67903052Y-53953226D01*
X67791595Y-54146273D01*
X67791593Y-54146277D01*
X67706293Y-54352209D01*
X67706290Y-54352219D01*
X67661341Y-54519974D01*
X67648597Y-54567534D01*
X67648594Y-54567547D01*
X67619501Y-54788533D01*
X67619500Y-54788549D01*
X67619500Y-55011450D01*
X67619501Y-55011466D01*
X67648594Y-55232452D01*
X67648595Y-55232457D01*
X67648596Y-55232463D01*
X67706290Y-55447780D01*
X67706293Y-55447790D01*
X67791593Y-55653722D01*
X67791595Y-55653726D01*
X67903052Y-55846774D01*
X67903057Y-55846780D01*
X67903058Y-55846782D01*
X68038751Y-56023622D01*
X68038757Y-56023629D01*
X68196370Y-56181242D01*
X68196376Y-56181247D01*
X68373226Y-56316948D01*
X68566274Y-56428405D01*
X68772219Y-56513710D01*
X68987537Y-56571404D01*
X69208543Y-56600500D01*
X69208550Y-56600500D01*
X69431450Y-56600500D01*
X69431457Y-56600500D01*
X69652463Y-56571404D01*
X69867781Y-56513710D01*
X70073726Y-56428405D01*
X70266774Y-56316948D01*
X70443624Y-56181247D01*
X70601247Y-56023624D01*
X70736948Y-55846774D01*
X70837613Y-55672417D01*
X70888180Y-55624203D01*
X70956788Y-55610981D01*
X71021652Y-55636949D01*
X71052386Y-55672417D01*
X71153052Y-55846774D01*
X71153057Y-55846780D01*
X71153058Y-55846782D01*
X71288751Y-56023622D01*
X71288757Y-56023629D01*
X71446370Y-56181242D01*
X71446376Y-56181247D01*
X71623226Y-56316948D01*
X71816274Y-56428405D01*
X72022219Y-56513710D01*
X72237537Y-56571404D01*
X72458543Y-56600500D01*
X72458550Y-56600500D01*
X72681450Y-56600500D01*
X72681457Y-56600500D01*
X72902463Y-56571404D01*
X73117781Y-56513710D01*
X73323726Y-56428405D01*
X73516774Y-56316948D01*
X73693624Y-56181247D01*
X73851247Y-56023624D01*
X73986948Y-55846774D01*
X74098405Y-55653726D01*
X74183710Y-55447781D01*
X74241404Y-55232463D01*
X74270500Y-55011457D01*
X74270500Y-54788543D01*
X74241404Y-54567537D01*
X74183710Y-54352219D01*
X74098405Y-54146274D01*
X73986948Y-53953226D01*
X73851247Y-53776376D01*
X73851242Y-53776370D01*
X73773113Y-53698241D01*
X73739628Y-53636918D01*
X73744612Y-53567226D01*
X73786484Y-53511293D01*
X73851948Y-53486876D01*
X73912462Y-53498728D01*
X73912686Y-53498189D01*
X73915356Y-53499295D01*
X73915647Y-53499352D01*
X73916430Y-53499738D01*
X73916437Y-53499742D01*
X73916442Y-53499744D01*
X73916450Y-53499748D01*
X74138724Y-53591816D01*
X74138726Y-53591816D01*
X74138732Y-53591819D01*
X74371143Y-53654094D01*
X74609695Y-53685500D01*
X74609702Y-53685500D01*
X74850298Y-53685500D01*
X74850305Y-53685500D01*
X75088857Y-53654094D01*
X75321268Y-53591819D01*
X75543563Y-53499742D01*
X75544239Y-53499352D01*
X75565028Y-53487349D01*
X75751937Y-53379437D01*
X75942826Y-53232963D01*
X75986104Y-53189685D01*
X76037819Y-53137971D01*
X76099142Y-53104486D01*
X76168834Y-53109470D01*
X76224767Y-53151342D01*
X76249184Y-53216806D01*
X76249500Y-53225652D01*
X76249500Y-57598422D01*
X76280290Y-57792826D01*
X76341117Y-57980030D01*
X76423400Y-58141517D01*
X76430476Y-58155405D01*
X76546172Y-58314646D01*
X76546174Y-58314648D01*
X77970345Y-59738819D01*
X78003830Y-59800142D01*
X77998846Y-59869834D01*
X77956974Y-59925767D01*
X77891510Y-59950184D01*
X77882664Y-59950500D01*
X62770336Y-59950500D01*
X62703297Y-59930815D01*
X62682655Y-59914181D01*
X59786819Y-57018345D01*
X59753334Y-56957022D01*
X59750500Y-56930664D01*
X59750500Y-50864421D01*
X59719709Y-50670017D01*
X59675574Y-50534185D01*
X59669178Y-50514500D01*
X59658884Y-50482818D01*
X59658884Y-50482817D01*
X59605176Y-50377410D01*
X59569524Y-50307439D01*
X59453829Y-50148199D01*
X57351802Y-48046172D01*
X57192561Y-47930476D01*
X57017186Y-47841117D01*
X56829982Y-47780290D01*
X56635578Y-47749500D01*
X56635573Y-47749500D01*
X48069336Y-47749500D01*
X48002297Y-47729815D01*
X47981655Y-47713181D01*
X46906819Y-46638345D01*
X46892115Y-46611417D01*
X46875523Y-46585599D01*
X46874631Y-46579398D01*
X46873334Y-46577022D01*
X46870500Y-46550664D01*
X46870500Y-45401577D01*
X46839709Y-45207173D01*
X46798356Y-45079903D01*
X46778884Y-45019975D01*
X46778882Y-45019972D01*
X46778882Y-45019970D01*
X46731743Y-44927455D01*
X46689524Y-44844595D01*
X46573828Y-44685354D01*
X46434646Y-44546172D01*
X46275405Y-44430476D01*
X46100029Y-44341117D01*
X45912826Y-44280290D01*
X45718422Y-44249500D01*
X45718417Y-44249500D01*
X45521583Y-44249500D01*
X45521578Y-44249500D01*
X45327173Y-44280290D01*
X45139970Y-44341117D01*
X44964594Y-44430476D01*
X44905149Y-44473666D01*
X44805354Y-44546172D01*
X44805352Y-44546174D01*
X44805351Y-44546174D01*
X44666174Y-44685351D01*
X44666174Y-44685352D01*
X44666172Y-44685354D01*
X44642508Y-44717925D01*
X44550476Y-44844594D01*
X44461118Y-45019969D01*
X44461116Y-45019974D01*
X44461116Y-45019975D01*
X44441645Y-45079902D01*
X44441644Y-45079904D01*
X44402205Y-45137579D01*
X44337846Y-45164776D01*
X44269000Y-45152861D01*
X44217525Y-45105616D01*
X44205783Y-45079904D01*
X44192547Y-45039168D01*
X44106760Y-44870801D01*
X43995690Y-44717927D01*
X43862073Y-44584310D01*
X43709199Y-44473240D01*
X43540836Y-44387454D01*
X43361118Y-44329059D01*
X43174486Y-44299500D01*
X43174481Y-44299500D01*
X42985519Y-44299500D01*
X42985514Y-44299500D01*
X42798881Y-44329059D01*
X42619163Y-44387454D01*
X42450800Y-44473240D01*
X42363579Y-44536610D01*
X42297927Y-44584310D01*
X42297925Y-44584312D01*
X42297924Y-44584312D01*
X42164312Y-44717924D01*
X42164312Y-44717925D01*
X42164310Y-44717927D01*
X42116610Y-44783579D01*
X42053240Y-44870800D01*
X41967454Y-45039163D01*
X41927931Y-45160803D01*
X41888493Y-45218478D01*
X41824134Y-45245676D01*
X41755288Y-45233761D01*
X41703812Y-45186516D01*
X41692069Y-45160803D01*
X41665783Y-45079904D01*
X41652547Y-45039168D01*
X41652545Y-45039165D01*
X41652545Y-45039163D01*
X41607290Y-44950347D01*
X41566760Y-44870801D01*
X41455690Y-44717927D01*
X41322073Y-44584310D01*
X41169199Y-44473240D01*
X41000836Y-44387454D01*
X40821118Y-44329059D01*
X40634486Y-44299500D01*
X40634481Y-44299500D01*
X40445519Y-44299500D01*
X40445514Y-44299500D01*
X40258881Y-44329059D01*
X40079163Y-44387454D01*
X39910800Y-44473240D01*
X39823579Y-44536610D01*
X39757927Y-44584310D01*
X39757925Y-44584312D01*
X39757924Y-44584312D01*
X39624312Y-44717924D01*
X39624312Y-44717925D01*
X39624310Y-44717927D01*
X39576610Y-44783579D01*
X39513240Y-44870800D01*
X39427454Y-45039163D01*
X39387668Y-45161612D01*
X39348230Y-45219287D01*
X39283871Y-45246485D01*
X39215025Y-45234570D01*
X39163549Y-45187325D01*
X39151806Y-45161611D01*
X39112085Y-45039362D01*
X39026329Y-44871059D01*
X39007883Y-44845670D01*
X39007882Y-44845669D01*
X38442137Y-45411414D01*
X38419333Y-45326306D01*
X38360090Y-45223694D01*
X38276306Y-45139910D01*
X38173694Y-45080667D01*
X38088584Y-45057861D01*
X38654328Y-44492116D01*
X38628933Y-44473666D01*
X38460637Y-44387914D01*
X38281002Y-44329548D01*
X38094447Y-44300000D01*
X37905553Y-44300000D01*
X37718997Y-44329548D01*
X37539362Y-44387914D01*
X37371060Y-44473669D01*
X37345670Y-44492116D01*
X37345669Y-44492116D01*
X37911415Y-45057861D01*
X37826306Y-45080667D01*
X37723694Y-45139910D01*
X37639910Y-45223694D01*
X37580667Y-45326306D01*
X37557861Y-45411414D01*
X36992116Y-44845669D01*
X36992116Y-44845670D01*
X36973669Y-44871060D01*
X36887914Y-45039362D01*
X36829548Y-45218997D01*
X36800000Y-45405552D01*
X36800000Y-45594447D01*
X36829548Y-45781002D01*
X36887914Y-45960637D01*
X36973666Y-46128933D01*
X36992116Y-46154328D01*
X37557861Y-45588584D01*
X37580667Y-45673694D01*
X37639910Y-45776306D01*
X37723694Y-45860090D01*
X37826306Y-45919333D01*
X37911415Y-45942138D01*
X37345669Y-46507882D01*
X37345670Y-46507883D01*
X37371059Y-46526329D01*
X37539362Y-46612085D01*
X37718997Y-46670451D01*
X37905553Y-46700000D01*
X38094447Y-46700000D01*
X38281002Y-46670451D01*
X38460637Y-46612085D01*
X38628937Y-46526331D01*
X38654328Y-46507883D01*
X38654328Y-46507882D01*
X38088584Y-45942138D01*
X38173694Y-45919333D01*
X38276306Y-45860090D01*
X38360090Y-45776306D01*
X38419333Y-45673694D01*
X38442138Y-45588584D01*
X39007882Y-46154328D01*
X39007883Y-46154328D01*
X39026331Y-46128937D01*
X39112086Y-45960635D01*
X39151806Y-45838389D01*
X39191243Y-45780713D01*
X39255601Y-45753514D01*
X39324448Y-45765428D01*
X39375924Y-45812672D01*
X39387668Y-45838387D01*
X39427454Y-45960836D01*
X39484985Y-46073745D01*
X39513240Y-46129199D01*
X39624310Y-46282073D01*
X39757927Y-46415690D01*
X39910801Y-46526760D01*
X39990347Y-46567290D01*
X40079163Y-46612545D01*
X40079165Y-46612545D01*
X40079168Y-46612547D01*
X40158566Y-46638345D01*
X40258881Y-46670940D01*
X40445514Y-46700500D01*
X40445519Y-46700500D01*
X40634486Y-46700500D01*
X40821118Y-46670940D01*
X40858228Y-46658882D01*
X41000832Y-46612547D01*
X41169199Y-46526760D01*
X41322073Y-46415690D01*
X41455690Y-46282073D01*
X41566760Y-46129199D01*
X41652547Y-45960832D01*
X41692069Y-45839195D01*
X41731507Y-45781521D01*
X41795866Y-45754323D01*
X41864712Y-45766238D01*
X41916188Y-45813482D01*
X41927930Y-45839194D01*
X41943291Y-45886472D01*
X41967454Y-45960836D01*
X42024985Y-46073745D01*
X42053240Y-46129199D01*
X42164310Y-46282073D01*
X42297927Y-46415690D01*
X42450801Y-46526760D01*
X42530347Y-46567290D01*
X42619163Y-46612545D01*
X42619165Y-46612545D01*
X42619168Y-46612547D01*
X42698566Y-46638345D01*
X42798881Y-46670940D01*
X42985514Y-46700500D01*
X42985519Y-46700500D01*
X43174486Y-46700500D01*
X43361118Y-46670940D01*
X43398228Y-46658882D01*
X43540832Y-46612547D01*
X43709199Y-46526760D01*
X43862073Y-46415690D01*
X43995690Y-46282073D01*
X44106760Y-46129199D01*
X44135015Y-46073744D01*
X44182989Y-46022949D01*
X44250810Y-46006154D01*
X44316945Y-46028691D01*
X44360397Y-46083406D01*
X44369500Y-46130040D01*
X44369500Y-47218422D01*
X44400290Y-47412826D01*
X44461117Y-47600030D01*
X44537277Y-47749500D01*
X44550476Y-47775405D01*
X44666172Y-47934646D01*
X46546171Y-49814645D01*
X46546172Y-49814646D01*
X46685354Y-49953828D01*
X46844595Y-50069524D01*
X47019975Y-50158884D01*
X47026802Y-50161102D01*
X47084479Y-50200537D01*
X47111680Y-50264895D01*
X47099769Y-50333742D01*
X47063976Y-50377410D01*
X46947178Y-50467033D01*
X46947172Y-50467038D01*
X46777041Y-50637168D01*
X46777035Y-50637175D01*
X46630569Y-50828054D01*
X46630558Y-50828070D01*
X46510261Y-51036429D01*
X46510253Y-51036446D01*
X46418183Y-51258724D01*
X46355905Y-51491146D01*
X46324501Y-51729685D01*
X46324500Y-51729701D01*
X46324500Y-51970298D01*
X46324501Y-51970314D01*
X46355905Y-52208853D01*
X46418183Y-52441275D01*
X46510253Y-52663553D01*
X46510261Y-52663570D01*
X46630558Y-52871929D01*
X46630569Y-52871945D01*
X46777035Y-53062824D01*
X46777041Y-53062831D01*
X46947168Y-53232958D01*
X46947174Y-53232963D01*
X47138063Y-53379437D01*
X47138070Y-53379441D01*
X47346429Y-53499738D01*
X47346434Y-53499740D01*
X47346437Y-53499742D01*
X47346441Y-53499743D01*
X47346446Y-53499746D01*
X47568724Y-53591816D01*
X47568726Y-53591816D01*
X47568732Y-53591819D01*
X47801143Y-53654094D01*
X48039695Y-53685500D01*
X48039702Y-53685500D01*
X48280298Y-53685500D01*
X48280305Y-53685500D01*
X48518857Y-53654094D01*
X48751268Y-53591819D01*
X48973563Y-53499742D01*
X48973573Y-53499735D01*
X48974343Y-53499357D01*
X48974604Y-53499311D01*
X48977314Y-53498189D01*
X48977564Y-53498794D01*
X49043173Y-53487349D01*
X49107568Y-53514460D01*
X49147084Y-53572082D01*
X49149174Y-53641920D01*
X49116887Y-53698241D01*
X49038750Y-53776378D01*
X48903058Y-53953217D01*
X48903052Y-53953226D01*
X48791595Y-54146273D01*
X48791593Y-54146277D01*
X48706293Y-54352209D01*
X48706290Y-54352219D01*
X48661341Y-54519974D01*
X48648597Y-54567534D01*
X48648594Y-54567547D01*
X48619501Y-54788533D01*
X48619500Y-54788549D01*
X48619500Y-55011450D01*
X48619501Y-55011466D01*
X48648594Y-55232452D01*
X48648595Y-55232457D01*
X48648596Y-55232463D01*
X48706290Y-55447780D01*
X48706293Y-55447790D01*
X48791593Y-55653722D01*
X48791595Y-55653726D01*
X48903052Y-55846774D01*
X48903057Y-55846780D01*
X48903058Y-55846782D01*
X49038751Y-56023622D01*
X49038757Y-56023629D01*
X49196370Y-56181242D01*
X49196376Y-56181247D01*
X49373226Y-56316948D01*
X49566274Y-56428405D01*
X49772219Y-56513710D01*
X49987537Y-56571404D01*
X50208543Y-56600500D01*
X50208550Y-56600500D01*
X50431450Y-56600500D01*
X50431457Y-56600500D01*
X50652463Y-56571404D01*
X50867781Y-56513710D01*
X51073726Y-56428405D01*
X51266774Y-56316948D01*
X51443624Y-56181247D01*
X51601247Y-56023624D01*
X51736948Y-55846774D01*
X51837613Y-55672417D01*
X51888180Y-55624203D01*
X51956788Y-55610981D01*
X52021652Y-55636949D01*
X52052386Y-55672417D01*
X52153052Y-55846774D01*
X52153057Y-55846780D01*
X52153058Y-55846782D01*
X52288751Y-56023622D01*
X52288757Y-56023629D01*
X52446370Y-56181242D01*
X52446376Y-56181247D01*
X52623226Y-56316948D01*
X52816274Y-56428405D01*
X53022219Y-56513710D01*
X53237537Y-56571404D01*
X53458543Y-56600500D01*
X53458550Y-56600500D01*
X53681450Y-56600500D01*
X53681457Y-56600500D01*
X53902463Y-56571404D01*
X54117781Y-56513710D01*
X54323726Y-56428405D01*
X54516774Y-56316948D01*
X54693624Y-56181247D01*
X54851247Y-56023624D01*
X54986948Y-55846774D01*
X55098405Y-55653726D01*
X55183710Y-55447781D01*
X55241404Y-55232463D01*
X55270500Y-55011457D01*
X55270500Y-54788543D01*
X55241404Y-54567537D01*
X55183710Y-54352219D01*
X55098405Y-54146274D01*
X54986948Y-53953226D01*
X54851247Y-53776376D01*
X54851242Y-53776370D01*
X54773113Y-53698241D01*
X54739628Y-53636918D01*
X54744612Y-53567226D01*
X54786484Y-53511293D01*
X54851948Y-53486876D01*
X54912462Y-53498728D01*
X54912686Y-53498189D01*
X54915356Y-53499295D01*
X54915647Y-53499352D01*
X54916430Y-53499738D01*
X54916437Y-53499742D01*
X54916442Y-53499744D01*
X54916450Y-53499748D01*
X55138724Y-53591816D01*
X55138726Y-53591816D01*
X55138732Y-53591819D01*
X55371143Y-53654094D01*
X55609695Y-53685500D01*
X55609702Y-53685500D01*
X55850298Y-53685500D01*
X55850305Y-53685500D01*
X56088857Y-53654094D01*
X56321268Y-53591819D01*
X56543563Y-53499742D01*
X56544239Y-53499352D01*
X56565028Y-53487349D01*
X56751937Y-53379437D01*
X56942826Y-53232963D01*
X56986104Y-53189685D01*
X57037819Y-53137971D01*
X57099142Y-53104486D01*
X57168834Y-53109470D01*
X57224767Y-53151342D01*
X57249184Y-53216806D01*
X57249500Y-53225652D01*
X57249500Y-57598422D01*
X57280290Y-57792826D01*
X57341117Y-57980030D01*
X57423400Y-58141517D01*
X57430476Y-58155405D01*
X57546172Y-58314646D01*
X57546174Y-58314648D01*
X60671344Y-61439818D01*
X60704829Y-61501141D01*
X60699845Y-61570833D01*
X60657973Y-61626766D01*
X60592509Y-61651183D01*
X60583663Y-61651499D01*
X43103335Y-61651499D01*
X43036296Y-61631814D01*
X43015654Y-61615180D01*
X40602819Y-59202345D01*
X40569334Y-59141022D01*
X40566500Y-59114664D01*
X40566500Y-55417750D01*
X40586185Y-55350711D01*
X40638989Y-55304956D01*
X40708147Y-55295012D01*
X40771703Y-55324037D01*
X40808431Y-55379432D01*
X40841116Y-55480026D01*
X40930476Y-55655405D01*
X41046172Y-55814646D01*
X45046172Y-59814646D01*
X45185354Y-59953828D01*
X45344595Y-60069524D01*
X45519974Y-60158884D01*
X45661264Y-60204792D01*
X45661266Y-60204793D01*
X45684218Y-60212250D01*
X45707173Y-60219709D01*
X45780076Y-60231255D01*
X45901578Y-60250500D01*
X45901583Y-60250500D01*
X46098422Y-60250500D01*
X46292826Y-60219709D01*
X46292829Y-60219708D01*
X46480026Y-60158884D01*
X46655405Y-60069524D01*
X46814646Y-59953828D01*
X47953829Y-58814645D01*
X48069524Y-58655405D01*
X48158884Y-58480025D01*
X48219709Y-58292826D01*
X48229689Y-58229815D01*
X48250500Y-58098421D01*
X48250500Y-57901577D01*
X48219709Y-57707172D01*
X48158882Y-57519969D01*
X48069523Y-57344593D01*
X47953829Y-57185354D01*
X47814646Y-57046171D01*
X47814645Y-57046170D01*
X47811534Y-57043059D01*
X47811519Y-57043045D01*
X43958169Y-53189695D01*
X43958160Y-53189685D01*
X43906446Y-53137971D01*
X43814646Y-53046171D01*
X43655406Y-52930476D01*
X43480030Y-52841117D01*
X43292827Y-52780290D01*
X43098422Y-52749500D01*
X43098417Y-52749500D01*
X42901583Y-52749500D01*
X42901578Y-52749500D01*
X42707173Y-52780290D01*
X42519969Y-52841117D01*
X42344594Y-52930476D01*
X42253742Y-52996484D01*
X42185355Y-53046171D01*
X42185353Y-53046173D01*
X42185352Y-53046173D01*
X41046174Y-54185351D01*
X41046174Y-54185352D01*
X41046172Y-54185354D01*
X41043510Y-54189018D01*
X40930476Y-54344594D01*
X40841117Y-54519969D01*
X40808431Y-54620568D01*
X40768993Y-54678243D01*
X40704634Y-54705441D01*
X40635788Y-54693526D01*
X40584312Y-54646282D01*
X40566500Y-54582249D01*
X40566500Y-50680421D01*
X40535709Y-50486018D01*
X40529542Y-50467038D01*
X40529541Y-50467035D01*
X40474884Y-50298818D01*
X40385524Y-50123439D01*
X40269828Y-49964198D01*
X38615802Y-48310172D01*
X38456561Y-48194476D01*
X38281186Y-48105117D01*
X38093982Y-48044290D01*
X37899578Y-48013500D01*
X37899573Y-48013500D01*
X30953336Y-48013500D01*
X30886297Y-47993815D01*
X30865655Y-47977181D01*
X27434648Y-44546174D01*
X27434646Y-44546172D01*
X27275405Y-44430476D01*
X27100030Y-44341117D01*
X26912826Y-44280290D01*
X26718422Y-44249500D01*
X26718417Y-44249500D01*
X26521583Y-44249500D01*
X26521578Y-44249500D01*
X26327173Y-44280290D01*
X26139969Y-44341117D01*
X25964594Y-44430476D01*
X25905149Y-44473666D01*
X25805354Y-44546172D01*
X25805352Y-44546174D01*
X25805351Y-44546174D01*
X25666174Y-44685351D01*
X25666174Y-44685352D01*
X25666172Y-44685354D01*
X25642508Y-44717925D01*
X25550476Y-44844594D01*
X25461118Y-45019968D01*
X25461116Y-45019973D01*
X25461116Y-45019974D01*
X25454817Y-45039362D01*
X25441644Y-45079903D01*
X25402205Y-45137578D01*
X25337846Y-45164775D01*
X25269000Y-45152860D01*
X25217525Y-45105615D01*
X25205783Y-45079904D01*
X25192547Y-45039168D01*
X25192545Y-45039165D01*
X25192545Y-45039163D01*
X25147290Y-44950347D01*
X25106760Y-44870801D01*
X24995690Y-44717927D01*
X24862073Y-44584310D01*
X24709199Y-44473240D01*
X24540836Y-44387454D01*
X24361118Y-44329059D01*
X24174486Y-44299500D01*
X24174481Y-44299500D01*
X23985519Y-44299500D01*
X23985514Y-44299500D01*
X23798881Y-44329059D01*
X23619163Y-44387454D01*
X23450800Y-44473240D01*
X23363579Y-44536610D01*
X23297927Y-44584310D01*
X23297925Y-44584312D01*
X23297924Y-44584312D01*
X23164312Y-44717924D01*
X23164312Y-44717925D01*
X23164310Y-44717927D01*
X23116610Y-44783579D01*
X23053240Y-44870800D01*
X22967454Y-45039163D01*
X22927931Y-45160803D01*
X22888493Y-45218478D01*
X22824134Y-45245676D01*
X22755288Y-45233761D01*
X22703812Y-45186516D01*
X22692069Y-45160803D01*
X22665783Y-45079904D01*
X22652547Y-45039168D01*
X22652545Y-45039165D01*
X22652545Y-45039163D01*
X22607290Y-44950347D01*
X22566760Y-44870801D01*
X22455690Y-44717927D01*
X22322073Y-44584310D01*
X22169199Y-44473240D01*
X22000836Y-44387454D01*
X21821118Y-44329059D01*
X21634486Y-44299500D01*
X21634481Y-44299500D01*
X21445519Y-44299500D01*
X21445514Y-44299500D01*
X21258881Y-44329059D01*
X21079163Y-44387454D01*
X20910800Y-44473240D01*
X20823579Y-44536610D01*
X20757927Y-44584310D01*
X20757925Y-44584312D01*
X20757924Y-44584312D01*
X20624312Y-44717924D01*
X20624312Y-44717925D01*
X20624310Y-44717927D01*
X20576610Y-44783579D01*
X20513240Y-44870800D01*
X20427454Y-45039163D01*
X20387668Y-45161612D01*
X20348230Y-45219287D01*
X20283871Y-45246485D01*
X20215025Y-45234570D01*
X20163549Y-45187325D01*
X20151806Y-45161611D01*
X20112085Y-45039362D01*
X20026329Y-44871059D01*
X20007883Y-44845670D01*
X20007882Y-44845669D01*
X19442137Y-45411414D01*
X19419333Y-45326306D01*
X19360090Y-45223694D01*
X19276306Y-45139910D01*
X19173694Y-45080667D01*
X19088584Y-45057861D01*
X19654328Y-44492116D01*
X19628933Y-44473666D01*
X19460637Y-44387914D01*
X19281002Y-44329548D01*
X19094447Y-44300000D01*
X18905553Y-44300000D01*
X18718997Y-44329548D01*
X18539362Y-44387914D01*
X18371060Y-44473669D01*
X18345670Y-44492116D01*
X18345669Y-44492116D01*
X18911415Y-45057861D01*
X18826306Y-45080667D01*
X18723694Y-45139910D01*
X18639910Y-45223694D01*
X18580667Y-45326306D01*
X18557861Y-45411414D01*
X17992116Y-44845669D01*
X17992116Y-44845670D01*
X17973669Y-44871060D01*
X17887914Y-45039362D01*
X17829548Y-45218997D01*
X17800000Y-45405552D01*
X500500Y-45405552D01*
X500500Y-33911421D01*
X5874500Y-33911421D01*
X5874500Y-38911421D01*
X5874500Y-39088579D01*
X5881057Y-39129975D01*
X5902214Y-39263556D01*
X5956956Y-39432039D01*
X5956957Y-39432042D01*
X5994273Y-39505277D01*
X6037386Y-39589890D01*
X6141517Y-39733214D01*
X6266786Y-39858483D01*
X6410110Y-39962614D01*
X6487529Y-40002061D01*
X6567957Y-40043042D01*
X6567960Y-40043043D01*
X6652201Y-40070414D01*
X6736445Y-40097786D01*
X6911421Y-40125500D01*
X6911422Y-40125500D01*
X16088578Y-40125500D01*
X16088579Y-40125500D01*
X16263555Y-40097786D01*
X16432042Y-40043042D01*
X16589890Y-39962614D01*
X16733214Y-39858483D01*
X16858483Y-39733214D01*
X16962614Y-39589890D01*
X17043042Y-39432042D01*
X17097786Y-39263555D01*
X17125500Y-39088579D01*
X17125500Y-33911421D01*
X17097786Y-33736445D01*
X17052535Y-33597174D01*
X17043043Y-33567960D01*
X17043042Y-33567957D01*
X16962613Y-33410109D01*
X16962515Y-33409974D01*
X16858483Y-33266786D01*
X16733214Y-33141517D01*
X16589890Y-33037386D01*
X16432042Y-32956957D01*
X16432039Y-32956956D01*
X16263556Y-32902214D01*
X16176067Y-32888357D01*
X16088579Y-32874500D01*
X7088579Y-32874500D01*
X6911421Y-32874500D01*
X6853095Y-32883738D01*
X6736443Y-32902214D01*
X6567960Y-32956956D01*
X6567957Y-32956957D01*
X6410109Y-33037386D01*
X6357850Y-33075355D01*
X6266786Y-33141517D01*
X6266784Y-33141519D01*
X6266783Y-33141519D01*
X6141519Y-33266783D01*
X6141519Y-33266784D01*
X6141517Y-33266786D01*
X6096796Y-33328338D01*
X6037386Y-33410109D01*
X5956957Y-33567957D01*
X5956956Y-33567960D01*
X5902214Y-33736443D01*
X5902214Y-33736445D01*
X5874500Y-33911421D01*
X500500Y-33911421D01*
X500500Y-8802040D01*
X500566Y-8797983D01*
X518137Y-8261239D01*
X518668Y-8253142D01*
X571107Y-7720712D01*
X572159Y-7712722D01*
X659316Y-7184824D01*
X660888Y-7176921D01*
X782382Y-6655862D01*
X784469Y-6648073D01*
X939779Y-6136082D01*
X942386Y-6128405D01*
X1130830Y-5627723D01*
X1133935Y-5620226D01*
X1354745Y-5132887D01*
X1358305Y-5125669D01*
X1610514Y-4653819D01*
X1614565Y-4646803D01*
X1897090Y-4192466D01*
X1901561Y-4185774D01*
X2213202Y-3750880D01*
X2218139Y-3744447D01*
X2361499Y-3569762D01*
X2557546Y-3330877D01*
X2562870Y-3324807D01*
X2928619Y-2934300D01*
X2934300Y-2928619D01*
X3324807Y-2562870D01*
X3330877Y-2557546D01*
X3744452Y-2218134D01*
X3750885Y-2213199D01*
X4185774Y-1901561D01*
X4192466Y-1897090D01*
X4646813Y-1614558D01*
X4653819Y-1610514D01*
X5125669Y-1358305D01*
X5132887Y-1354745D01*
X5620233Y-1133932D01*
X5627715Y-1130832D01*
X6128411Y-942383D01*
X6136082Y-939779D01*
X6648073Y-784469D01*
X6655862Y-782382D01*
X7176921Y-660888D01*
X7184824Y-659316D01*
X7712722Y-572159D01*
X7720712Y-571107D01*
X8253153Y-518667D01*
X8261228Y-518137D01*
X8797984Y-500566D01*
X8802041Y-500500D01*
X8865892Y-500500D01*
X95134108Y-500500D01*
X95197959Y-500500D01*
X95202016Y-500566D01*
G37*
%TD.AperFunction*%
%TD*%
M02*
