M48
; DRILL file {KiCad 9.0.7} date 2026-03-24T11:16:57+0000
; FORMAT={-:-/ absolute / metric / decimal}
; #@! TF.CreationDate,2026-03-24T11:16:57+00:00
; #@! TF.GenerationSoftware,Kicad,Pcbnew,9.0.7
; #@! TF.FileFunction,MixedPlating,1,2
FMAT,2
METRIC
; #@! TA.AperFunction,Plated,PTH,ViaDrill
T1C0.300
; #@! TA.AperFunction,Plated,PTH,ComponentDrill
T2C0.600
; #@! TA.AperFunction,Plated,PTH,ComponentDrill
T3C0.900
; #@! TA.AperFunction,Plated,PTH,ComponentDrill
T4C1.000
; #@! TA.AperFunction,Plated,PTH,ComponentDrill
T5C1.600
; #@! TA.AperFunction,Plated,PTH,ComponentDrill
T6C4.300
; #@! TA.AperFunction,NonPlated,NPTH,ComponentDrill
T7C3.170
%
G90
G05
T1
X6.0Y-17.5
X7.0Y-34.0
X7.0Y-35.0
X7.0Y-36.0
X7.0Y-37.0
X7.0Y-38.0
X7.0Y-39.0
X16.0Y-34.0
X16.0Y-35.0
X16.0Y-36.0
X16.0Y-37.0
X16.0Y-38.0
X16.0Y-39.0
X29.0Y-59.0
X29.0Y-66.0
X30.0Y-36.0
X30.0Y-37.0
X30.0Y-38.0
X30.0Y-39.0
X30.0Y-59.0
X30.0Y-66.0
X31.0Y-59.0
X31.0Y-66.0
X32.0Y-59.0
X32.0Y-66.0
X33.0Y-59.0
X33.0Y-66.0
X34.0Y-59.0
X34.0Y-66.0
X36.0Y-36.0
X36.0Y-37.0
X36.0Y-38.0
X36.0Y-39.0
X42.0Y-55.0
X43.0Y-54.0
X46.0Y-59.0
X47.0Y-58.0
X56.0Y-55.0
X56.0Y-56.0
X61.0Y-55.0
X61.0Y-56.0
X66.0Y-33.0
X66.0Y-34.0
X66.0Y-35.0
X66.0Y-36.0
X72.0Y-33.0
X72.0Y-34.0
X72.0Y-35.0
X72.0Y-36.0
X75.0Y-55.0
X75.0Y-56.0
X80.0Y-55.0
X80.0Y-56.0
T2
X5.575Y-8.8
X5.575Y-73.2
X6.52Y-6.52
X6.52Y-11.08
X6.52Y-70.92
X6.52Y-75.48
X8.8Y-5.575
X8.8Y-12.025
X8.8Y-69.975
X8.8Y-76.425
X11.08Y-6.52
X11.08Y-11.08
X11.08Y-70.92
X11.08Y-75.48
X12.025Y-8.8
X12.025Y-73.2
X91.975Y-8.8
X91.975Y-73.2
X92.92Y-6.52
X92.92Y-11.08
X92.92Y-70.92
X92.92Y-75.48
X95.2Y-5.575
X95.2Y-12.025
X95.2Y-69.975
X95.2Y-76.425
X97.48Y-6.52
X97.48Y-11.08
X97.48Y-70.92
X97.48Y-75.48
X98.425Y-8.8
X98.425Y-73.2
T3
X19.0Y-45.5
X20.27Y-42.96
X21.54Y-45.5
X22.81Y-42.96
X24.08Y-45.5
X25.35Y-42.96
X26.62Y-45.5
X27.89Y-42.96
X38.0Y-45.5
X39.27Y-42.96
X40.54Y-45.5
X41.81Y-42.96
X43.08Y-45.5
X44.35Y-42.96
X45.62Y-45.5
X46.89Y-42.96
X57.0Y-45.5
X58.27Y-42.96
X59.54Y-45.5
X60.81Y-42.96
X62.08Y-45.5
X63.35Y-42.96
X64.62Y-45.5
X65.89Y-42.96
X76.0Y-45.5
X77.27Y-42.96
X78.54Y-45.5
X79.81Y-42.96
X81.08Y-45.5
X82.35Y-42.96
X83.62Y-45.5
X84.89Y-42.96
T4
X43.11Y-18.71
X43.11Y-21.25
X45.65Y-18.71
X45.65Y-21.25
X48.19Y-18.71
X48.19Y-21.25
X50.73Y-18.71
X50.73Y-21.25
X53.27Y-18.71
X53.27Y-21.25
X55.81Y-18.71
X55.81Y-21.25
X58.35Y-18.71
X58.35Y-21.25
X60.89Y-18.71
X60.89Y-21.25
T5
X15.57Y-54.9
X31.32Y-54.9
X34.57Y-54.9
X50.32Y-54.9
X53.57Y-54.9
X69.32Y-54.9
X72.57Y-54.9
X88.32Y-54.9
T6
X8.8Y-8.8
X8.8Y-73.2
X95.2Y-8.8
X95.2Y-73.2
T7
X17.73Y-51.85
X29.16Y-51.85
X36.73Y-51.85
X48.16Y-51.85
X55.73Y-51.85
X67.16Y-51.85
X74.73Y-51.85
X86.16Y-51.85
M30
