%TF.GenerationSoftware,KiCad,Pcbnew,9.0.7*%
%TF.CreationDate,2026-03-24T11:17:02+00:00*%
%TF.ProjectId,ArkMetrica_SMU_4x_RJ45,41726b4d-6574-4726-9963-615f534d555f,rev?*%
%TF.SameCoordinates,Original*%
%TF.FileFunction,Legend,Bot*%
%TF.FilePolarity,Positive*%
%FSLAX46Y46*%
G04 Gerber Fmt 4.6, Leading zero omitted, Abs format (unit mm)*
G04 Created by KiCad (PCBNEW 9.0.7) date 2026-03-24 11:17:02*
%MOMM*%
%LPD*%
G01*
G04 APERTURE LIST*
%ADD10C,0.100000*%
%ADD11C,0.150000*%
%ADD12C,0.254000*%
%ADD13C,0.120000*%
%ADD14C,0.200000*%
G04 APERTURE END LIST*
D10*
X40690475Y-70042587D02*
X40690475Y-69518777D01*
X40690475Y-69518777D02*
X40738094Y-69423539D01*
X40738094Y-69423539D02*
X40833332Y-69375920D01*
X40833332Y-69375920D02*
X41023808Y-69375920D01*
X41023808Y-69375920D02*
X41119046Y-69423539D01*
X40690475Y-69994968D02*
X40785713Y-70042587D01*
X40785713Y-70042587D02*
X41023808Y-70042587D01*
X41023808Y-70042587D02*
X41119046Y-69994968D01*
X41119046Y-69994968D02*
X41166665Y-69899729D01*
X41166665Y-69899729D02*
X41166665Y-69804491D01*
X41166665Y-69804491D02*
X41119046Y-69709253D01*
X41119046Y-69709253D02*
X41023808Y-69661634D01*
X41023808Y-69661634D02*
X40785713Y-69661634D01*
X40785713Y-69661634D02*
X40690475Y-69614015D01*
X39785713Y-69375920D02*
X39785713Y-70042587D01*
X40214284Y-69375920D02*
X40214284Y-69899729D01*
X40214284Y-69899729D02*
X40166665Y-69994968D01*
X40166665Y-69994968D02*
X40071427Y-70042587D01*
X40071427Y-70042587D02*
X39928570Y-70042587D01*
X39928570Y-70042587D02*
X39833332Y-69994968D01*
X39833332Y-69994968D02*
X39785713Y-69947348D01*
X38880951Y-69375920D02*
X38880951Y-70185444D01*
X38880951Y-70185444D02*
X38928570Y-70280682D01*
X38928570Y-70280682D02*
X38976189Y-70328301D01*
X38976189Y-70328301D02*
X39071427Y-70375920D01*
X39071427Y-70375920D02*
X39214284Y-70375920D01*
X39214284Y-70375920D02*
X39309522Y-70328301D01*
X38880951Y-69994968D02*
X38976189Y-70042587D01*
X38976189Y-70042587D02*
X39166665Y-70042587D01*
X39166665Y-70042587D02*
X39261903Y-69994968D01*
X39261903Y-69994968D02*
X39309522Y-69947348D01*
X39309522Y-69947348D02*
X39357141Y-69852110D01*
X39357141Y-69852110D02*
X39357141Y-69566396D01*
X39357141Y-69566396D02*
X39309522Y-69471158D01*
X39309522Y-69471158D02*
X39261903Y-69423539D01*
X39261903Y-69423539D02*
X39166665Y-69375920D01*
X39166665Y-69375920D02*
X38976189Y-69375920D01*
X38976189Y-69375920D02*
X38880951Y-69423539D01*
X37976189Y-69375920D02*
X37976189Y-70042587D01*
X38404760Y-69375920D02*
X38404760Y-69899729D01*
X38404760Y-69899729D02*
X38357141Y-69994968D01*
X38357141Y-69994968D02*
X38261903Y-70042587D01*
X38261903Y-70042587D02*
X38119046Y-70042587D01*
X38119046Y-70042587D02*
X38023808Y-69994968D01*
X38023808Y-69994968D02*
X37976189Y-69947348D01*
X37547617Y-69994968D02*
X37452379Y-70042587D01*
X37452379Y-70042587D02*
X37261903Y-70042587D01*
X37261903Y-70042587D02*
X37166665Y-69994968D01*
X37166665Y-69994968D02*
X37119046Y-69899729D01*
X37119046Y-69899729D02*
X37119046Y-69852110D01*
X37119046Y-69852110D02*
X37166665Y-69756872D01*
X37166665Y-69756872D02*
X37261903Y-69709253D01*
X37261903Y-69709253D02*
X37404760Y-69709253D01*
X37404760Y-69709253D02*
X37499998Y-69661634D01*
X37499998Y-69661634D02*
X37547617Y-69566396D01*
X37547617Y-69566396D02*
X37547617Y-69518777D01*
X37547617Y-69518777D02*
X37499998Y-69423539D01*
X37499998Y-69423539D02*
X37404760Y-69375920D01*
X37404760Y-69375920D02*
X37261903Y-69375920D01*
X37261903Y-69375920D02*
X37166665Y-69423539D01*
X36833331Y-69375920D02*
X36452379Y-69375920D01*
X36690474Y-69042587D02*
X36690474Y-69899729D01*
X36690474Y-69899729D02*
X36642855Y-69994968D01*
X36642855Y-69994968D02*
X36547617Y-70042587D01*
X36547617Y-70042587D02*
X36452379Y-70042587D01*
X36119045Y-70042587D02*
X36119045Y-69375920D01*
X36119045Y-69042587D02*
X36166664Y-69090206D01*
X36166664Y-69090206D02*
X36119045Y-69137825D01*
X36119045Y-69137825D02*
X36071426Y-69090206D01*
X36071426Y-69090206D02*
X36119045Y-69042587D01*
X36119045Y-69042587D02*
X36119045Y-69137825D01*
X35642855Y-69375920D02*
X35642855Y-70042587D01*
X35642855Y-69471158D02*
X35595236Y-69423539D01*
X35595236Y-69423539D02*
X35499998Y-69375920D01*
X35499998Y-69375920D02*
X35357141Y-69375920D01*
X35357141Y-69375920D02*
X35261903Y-69423539D01*
X35261903Y-69423539D02*
X35214284Y-69518777D01*
X35214284Y-69518777D02*
X35214284Y-70042587D01*
X34738093Y-69947348D02*
X34690474Y-69994968D01*
X34690474Y-69994968D02*
X34738093Y-70042587D01*
X34738093Y-70042587D02*
X34785712Y-69994968D01*
X34785712Y-69994968D02*
X34738093Y-69947348D01*
X34738093Y-69947348D02*
X34738093Y-70042587D01*
X34357141Y-69375920D02*
X33833332Y-69375920D01*
X33833332Y-69375920D02*
X34357141Y-70042587D01*
X34357141Y-70042587D02*
X33833332Y-70042587D01*
X33023808Y-70042587D02*
X33023808Y-69518777D01*
X33023808Y-69518777D02*
X33071427Y-69423539D01*
X33071427Y-69423539D02*
X33166665Y-69375920D01*
X33166665Y-69375920D02*
X33357141Y-69375920D01*
X33357141Y-69375920D02*
X33452379Y-69423539D01*
X33023808Y-69994968D02*
X33119046Y-70042587D01*
X33119046Y-70042587D02*
X33357141Y-70042587D01*
X33357141Y-70042587D02*
X33452379Y-69994968D01*
X33452379Y-69994968D02*
X33499998Y-69899729D01*
X33499998Y-69899729D02*
X33499998Y-69804491D01*
X33499998Y-69804491D02*
X33452379Y-69709253D01*
X33452379Y-69709253D02*
X33357141Y-69661634D01*
X33357141Y-69661634D02*
X33119046Y-69661634D01*
X33119046Y-69661634D02*
X33023808Y-69614015D01*
X32547617Y-70042587D02*
X32547617Y-69375920D01*
X32547617Y-69042587D02*
X32595236Y-69090206D01*
X32595236Y-69090206D02*
X32547617Y-69137825D01*
X32547617Y-69137825D02*
X32499998Y-69090206D01*
X32499998Y-69090206D02*
X32547617Y-69042587D01*
X32547617Y-69042587D02*
X32547617Y-69137825D01*
X32071427Y-69375920D02*
X32071427Y-70042587D01*
X32071427Y-69471158D02*
X32023808Y-69423539D01*
X32023808Y-69423539D02*
X31928570Y-69375920D01*
X31928570Y-69375920D02*
X31785713Y-69375920D01*
X31785713Y-69375920D02*
X31690475Y-69423539D01*
X31690475Y-69423539D02*
X31642856Y-69518777D01*
X31642856Y-69518777D02*
X31642856Y-70042587D01*
X31166665Y-70042587D02*
X31166665Y-69375920D01*
X31166665Y-69042587D02*
X31214284Y-69090206D01*
X31214284Y-69090206D02*
X31166665Y-69137825D01*
X31166665Y-69137825D02*
X31119046Y-69090206D01*
X31119046Y-69090206D02*
X31166665Y-69042587D01*
X31166665Y-69042587D02*
X31166665Y-69137825D01*
X30690475Y-69375920D02*
X30690475Y-70042587D01*
X30690475Y-69471158D02*
X30642856Y-69423539D01*
X30642856Y-69423539D02*
X30547618Y-69375920D01*
X30547618Y-69375920D02*
X30404761Y-69375920D01*
X30404761Y-69375920D02*
X30309523Y-69423539D01*
X30309523Y-69423539D02*
X30261904Y-69518777D01*
X30261904Y-69518777D02*
X30261904Y-70042587D01*
X29357142Y-69375920D02*
X29357142Y-70185444D01*
X29357142Y-70185444D02*
X29404761Y-70280682D01*
X29404761Y-70280682D02*
X29452380Y-70328301D01*
X29452380Y-70328301D02*
X29547618Y-70375920D01*
X29547618Y-70375920D02*
X29690475Y-70375920D01*
X29690475Y-70375920D02*
X29785713Y-70328301D01*
X29357142Y-69994968D02*
X29452380Y-70042587D01*
X29452380Y-70042587D02*
X29642856Y-70042587D01*
X29642856Y-70042587D02*
X29738094Y-69994968D01*
X29738094Y-69994968D02*
X29785713Y-69947348D01*
X29785713Y-69947348D02*
X29833332Y-69852110D01*
X29833332Y-69852110D02*
X29833332Y-69566396D01*
X29833332Y-69566396D02*
X29785713Y-69471158D01*
X29785713Y-69471158D02*
X29738094Y-69423539D01*
X29738094Y-69423539D02*
X29642856Y-69375920D01*
X29642856Y-69375920D02*
X29452380Y-69375920D01*
X29452380Y-69375920D02*
X29357142Y-69423539D01*
X28499999Y-69994968D02*
X28595237Y-70042587D01*
X28595237Y-70042587D02*
X28785713Y-70042587D01*
X28785713Y-70042587D02*
X28880951Y-69994968D01*
X28880951Y-69994968D02*
X28928570Y-69899729D01*
X28928570Y-69899729D02*
X28928570Y-69518777D01*
X28928570Y-69518777D02*
X28880951Y-69423539D01*
X28880951Y-69423539D02*
X28785713Y-69375920D01*
X28785713Y-69375920D02*
X28595237Y-69375920D01*
X28595237Y-69375920D02*
X28499999Y-69423539D01*
X28499999Y-69423539D02*
X28452380Y-69518777D01*
X28452380Y-69518777D02*
X28452380Y-69614015D01*
X28452380Y-69614015D02*
X28928570Y-69709253D01*
X28023808Y-70042587D02*
X28023808Y-69375920D01*
X28023808Y-69566396D02*
X27976189Y-69471158D01*
X27976189Y-69471158D02*
X27928570Y-69423539D01*
X27928570Y-69423539D02*
X27833332Y-69375920D01*
X27833332Y-69375920D02*
X27738094Y-69375920D01*
X26785713Y-69566396D02*
X26833332Y-69518777D01*
X26833332Y-69518777D02*
X26928570Y-69471158D01*
X26928570Y-69471158D02*
X27023808Y-69471158D01*
X27023808Y-69471158D02*
X27119046Y-69518777D01*
X27119046Y-69518777D02*
X27166665Y-69566396D01*
X27166665Y-69566396D02*
X27214284Y-69661634D01*
X27214284Y-69661634D02*
X27214284Y-69756872D01*
X27214284Y-69756872D02*
X27166665Y-69852110D01*
X27166665Y-69852110D02*
X27119046Y-69899729D01*
X27119046Y-69899729D02*
X27023808Y-69947348D01*
X27023808Y-69947348D02*
X26928570Y-69947348D01*
X26928570Y-69947348D02*
X26833332Y-69899729D01*
X26833332Y-69899729D02*
X26785713Y-69852110D01*
X26785713Y-69471158D02*
X26785713Y-69852110D01*
X26785713Y-69852110D02*
X26738094Y-69899729D01*
X26738094Y-69899729D02*
X26690475Y-69899729D01*
X26690475Y-69899729D02*
X26595236Y-69852110D01*
X26595236Y-69852110D02*
X26547617Y-69756872D01*
X26547617Y-69756872D02*
X26547617Y-69518777D01*
X26547617Y-69518777D02*
X26642856Y-69375920D01*
X26642856Y-69375920D02*
X26785713Y-69280682D01*
X26785713Y-69280682D02*
X26976189Y-69233063D01*
X26976189Y-69233063D02*
X27166665Y-69280682D01*
X27166665Y-69280682D02*
X27309522Y-69375920D01*
X27309522Y-69375920D02*
X27404760Y-69518777D01*
X27404760Y-69518777D02*
X27452379Y-69709253D01*
X27452379Y-69709253D02*
X27404760Y-69899729D01*
X27404760Y-69899729D02*
X27309522Y-70042587D01*
X27309522Y-70042587D02*
X27166665Y-70137825D01*
X27166665Y-70137825D02*
X26976189Y-70185444D01*
X26976189Y-70185444D02*
X26785713Y-70137825D01*
X26785713Y-70137825D02*
X26642856Y-70042587D01*
X25690475Y-69375920D02*
X25690475Y-70185444D01*
X25690475Y-70185444D02*
X25738094Y-70280682D01*
X25738094Y-70280682D02*
X25785713Y-70328301D01*
X25785713Y-70328301D02*
X25880951Y-70375920D01*
X25880951Y-70375920D02*
X26023808Y-70375920D01*
X26023808Y-70375920D02*
X26119046Y-70328301D01*
X25690475Y-69994968D02*
X25785713Y-70042587D01*
X25785713Y-70042587D02*
X25976189Y-70042587D01*
X25976189Y-70042587D02*
X26071427Y-69994968D01*
X26071427Y-69994968D02*
X26119046Y-69947348D01*
X26119046Y-69947348D02*
X26166665Y-69852110D01*
X26166665Y-69852110D02*
X26166665Y-69566396D01*
X26166665Y-69566396D02*
X26119046Y-69471158D01*
X26119046Y-69471158D02*
X26071427Y-69423539D01*
X26071427Y-69423539D02*
X25976189Y-69375920D01*
X25976189Y-69375920D02*
X25785713Y-69375920D01*
X25785713Y-69375920D02*
X25690475Y-69423539D01*
X25214284Y-70042587D02*
X25214284Y-69375920D01*
X25214284Y-69471158D02*
X25166665Y-69423539D01*
X25166665Y-69423539D02*
X25071427Y-69375920D01*
X25071427Y-69375920D02*
X24928570Y-69375920D01*
X24928570Y-69375920D02*
X24833332Y-69423539D01*
X24833332Y-69423539D02*
X24785713Y-69518777D01*
X24785713Y-69518777D02*
X24785713Y-70042587D01*
X24785713Y-69518777D02*
X24738094Y-69423539D01*
X24738094Y-69423539D02*
X24642856Y-69375920D01*
X24642856Y-69375920D02*
X24499999Y-69375920D01*
X24499999Y-69375920D02*
X24404760Y-69423539D01*
X24404760Y-69423539D02*
X24357141Y-69518777D01*
X24357141Y-69518777D02*
X24357141Y-70042587D01*
X23452380Y-70042587D02*
X23452380Y-69518777D01*
X23452380Y-69518777D02*
X23499999Y-69423539D01*
X23499999Y-69423539D02*
X23595237Y-69375920D01*
X23595237Y-69375920D02*
X23785713Y-69375920D01*
X23785713Y-69375920D02*
X23880951Y-69423539D01*
X23452380Y-69994968D02*
X23547618Y-70042587D01*
X23547618Y-70042587D02*
X23785713Y-70042587D01*
X23785713Y-70042587D02*
X23880951Y-69994968D01*
X23880951Y-69994968D02*
X23928570Y-69899729D01*
X23928570Y-69899729D02*
X23928570Y-69804491D01*
X23928570Y-69804491D02*
X23880951Y-69709253D01*
X23880951Y-69709253D02*
X23785713Y-69661634D01*
X23785713Y-69661634D02*
X23547618Y-69661634D01*
X23547618Y-69661634D02*
X23452380Y-69614015D01*
X22976189Y-70042587D02*
X22976189Y-69375920D01*
X22976189Y-69042587D02*
X23023808Y-69090206D01*
X23023808Y-69090206D02*
X22976189Y-69137825D01*
X22976189Y-69137825D02*
X22928570Y-69090206D01*
X22928570Y-69090206D02*
X22976189Y-69042587D01*
X22976189Y-69042587D02*
X22976189Y-69137825D01*
X22357142Y-70042587D02*
X22452380Y-69994968D01*
X22452380Y-69994968D02*
X22499999Y-69899729D01*
X22499999Y-69899729D02*
X22499999Y-69042587D01*
X21976189Y-69947348D02*
X21928570Y-69994968D01*
X21928570Y-69994968D02*
X21976189Y-70042587D01*
X21976189Y-70042587D02*
X22023808Y-69994968D01*
X22023808Y-69994968D02*
X21976189Y-69947348D01*
X21976189Y-69947348D02*
X21976189Y-70042587D01*
X21071428Y-69994968D02*
X21166666Y-70042587D01*
X21166666Y-70042587D02*
X21357142Y-70042587D01*
X21357142Y-70042587D02*
X21452380Y-69994968D01*
X21452380Y-69994968D02*
X21499999Y-69947348D01*
X21499999Y-69947348D02*
X21547618Y-69852110D01*
X21547618Y-69852110D02*
X21547618Y-69566396D01*
X21547618Y-69566396D02*
X21499999Y-69471158D01*
X21499999Y-69471158D02*
X21452380Y-69423539D01*
X21452380Y-69423539D02*
X21357142Y-69375920D01*
X21357142Y-69375920D02*
X21166666Y-69375920D01*
X21166666Y-69375920D02*
X21071428Y-69423539D01*
X20499999Y-70042587D02*
X20595237Y-69994968D01*
X20595237Y-69994968D02*
X20642856Y-69947348D01*
X20642856Y-69947348D02*
X20690475Y-69852110D01*
X20690475Y-69852110D02*
X20690475Y-69566396D01*
X20690475Y-69566396D02*
X20642856Y-69471158D01*
X20642856Y-69471158D02*
X20595237Y-69423539D01*
X20595237Y-69423539D02*
X20499999Y-69375920D01*
X20499999Y-69375920D02*
X20357142Y-69375920D01*
X20357142Y-69375920D02*
X20261904Y-69423539D01*
X20261904Y-69423539D02*
X20214285Y-69471158D01*
X20214285Y-69471158D02*
X20166666Y-69566396D01*
X20166666Y-69566396D02*
X20166666Y-69852110D01*
X20166666Y-69852110D02*
X20214285Y-69947348D01*
X20214285Y-69947348D02*
X20261904Y-69994968D01*
X20261904Y-69994968D02*
X20357142Y-70042587D01*
X20357142Y-70042587D02*
X20499999Y-70042587D01*
X19738094Y-70042587D02*
X19738094Y-69375920D01*
X19738094Y-69471158D02*
X19690475Y-69423539D01*
X19690475Y-69423539D02*
X19595237Y-69375920D01*
X19595237Y-69375920D02*
X19452380Y-69375920D01*
X19452380Y-69375920D02*
X19357142Y-69423539D01*
X19357142Y-69423539D02*
X19309523Y-69518777D01*
X19309523Y-69518777D02*
X19309523Y-70042587D01*
X19309523Y-69518777D02*
X19261904Y-69423539D01*
X19261904Y-69423539D02*
X19166666Y-69375920D01*
X19166666Y-69375920D02*
X19023809Y-69375920D01*
X19023809Y-69375920D02*
X18928570Y-69423539D01*
X18928570Y-69423539D02*
X18880951Y-69518777D01*
X18880951Y-69518777D02*
X18880951Y-70042587D01*
X37571428Y-71652531D02*
X37571428Y-70652531D01*
X37142857Y-71652531D02*
X37142857Y-71128721D01*
X37142857Y-71128721D02*
X37190476Y-71033483D01*
X37190476Y-71033483D02*
X37285714Y-70985864D01*
X37285714Y-70985864D02*
X37428571Y-70985864D01*
X37428571Y-70985864D02*
X37523809Y-71033483D01*
X37523809Y-71033483D02*
X37571428Y-71081102D01*
X36809523Y-70985864D02*
X36428571Y-70985864D01*
X36666666Y-70652531D02*
X36666666Y-71509673D01*
X36666666Y-71509673D02*
X36619047Y-71604912D01*
X36619047Y-71604912D02*
X36523809Y-71652531D01*
X36523809Y-71652531D02*
X36428571Y-71652531D01*
X36238094Y-70985864D02*
X35857142Y-70985864D01*
X36095237Y-70652531D02*
X36095237Y-71509673D01*
X36095237Y-71509673D02*
X36047618Y-71604912D01*
X36047618Y-71604912D02*
X35952380Y-71652531D01*
X35952380Y-71652531D02*
X35857142Y-71652531D01*
X35523808Y-70985864D02*
X35523808Y-71985864D01*
X35523808Y-71033483D02*
X35428570Y-70985864D01*
X35428570Y-70985864D02*
X35238094Y-70985864D01*
X35238094Y-70985864D02*
X35142856Y-71033483D01*
X35142856Y-71033483D02*
X35095237Y-71081102D01*
X35095237Y-71081102D02*
X35047618Y-71176340D01*
X35047618Y-71176340D02*
X35047618Y-71462054D01*
X35047618Y-71462054D02*
X35095237Y-71557292D01*
X35095237Y-71557292D02*
X35142856Y-71604912D01*
X35142856Y-71604912D02*
X35238094Y-71652531D01*
X35238094Y-71652531D02*
X35428570Y-71652531D01*
X35428570Y-71652531D02*
X35523808Y-71604912D01*
X34666665Y-71604912D02*
X34571427Y-71652531D01*
X34571427Y-71652531D02*
X34380951Y-71652531D01*
X34380951Y-71652531D02*
X34285713Y-71604912D01*
X34285713Y-71604912D02*
X34238094Y-71509673D01*
X34238094Y-71509673D02*
X34238094Y-71462054D01*
X34238094Y-71462054D02*
X34285713Y-71366816D01*
X34285713Y-71366816D02*
X34380951Y-71319197D01*
X34380951Y-71319197D02*
X34523808Y-71319197D01*
X34523808Y-71319197D02*
X34619046Y-71271578D01*
X34619046Y-71271578D02*
X34666665Y-71176340D01*
X34666665Y-71176340D02*
X34666665Y-71128721D01*
X34666665Y-71128721D02*
X34619046Y-71033483D01*
X34619046Y-71033483D02*
X34523808Y-70985864D01*
X34523808Y-70985864D02*
X34380951Y-70985864D01*
X34380951Y-70985864D02*
X34285713Y-71033483D01*
X33809522Y-71557292D02*
X33761903Y-71604912D01*
X33761903Y-71604912D02*
X33809522Y-71652531D01*
X33809522Y-71652531D02*
X33857141Y-71604912D01*
X33857141Y-71604912D02*
X33809522Y-71557292D01*
X33809522Y-71557292D02*
X33809522Y-71652531D01*
X33809522Y-71033483D02*
X33761903Y-71081102D01*
X33761903Y-71081102D02*
X33809522Y-71128721D01*
X33809522Y-71128721D02*
X33857141Y-71081102D01*
X33857141Y-71081102D02*
X33809522Y-71033483D01*
X33809522Y-71033483D02*
X33809522Y-71128721D01*
X32619047Y-70604912D02*
X33476189Y-71890626D01*
X31571428Y-70604912D02*
X32428570Y-71890626D01*
X30809523Y-70985864D02*
X30809523Y-71795388D01*
X30809523Y-71795388D02*
X30857142Y-71890626D01*
X30857142Y-71890626D02*
X30904761Y-71938245D01*
X30904761Y-71938245D02*
X30999999Y-71985864D01*
X30999999Y-71985864D02*
X31142856Y-71985864D01*
X31142856Y-71985864D02*
X31238094Y-71938245D01*
X30809523Y-71604912D02*
X30904761Y-71652531D01*
X30904761Y-71652531D02*
X31095237Y-71652531D01*
X31095237Y-71652531D02*
X31190475Y-71604912D01*
X31190475Y-71604912D02*
X31238094Y-71557292D01*
X31238094Y-71557292D02*
X31285713Y-71462054D01*
X31285713Y-71462054D02*
X31285713Y-71176340D01*
X31285713Y-71176340D02*
X31238094Y-71081102D01*
X31238094Y-71081102D02*
X31190475Y-71033483D01*
X31190475Y-71033483D02*
X31095237Y-70985864D01*
X31095237Y-70985864D02*
X30904761Y-70985864D01*
X30904761Y-70985864D02*
X30809523Y-71033483D01*
X30333332Y-71652531D02*
X30333332Y-70985864D01*
X30333332Y-70652531D02*
X30380951Y-70700150D01*
X30380951Y-70700150D02*
X30333332Y-70747769D01*
X30333332Y-70747769D02*
X30285713Y-70700150D01*
X30285713Y-70700150D02*
X30333332Y-70652531D01*
X30333332Y-70652531D02*
X30333332Y-70747769D01*
X29999999Y-70985864D02*
X29619047Y-70985864D01*
X29857142Y-70652531D02*
X29857142Y-71509673D01*
X29857142Y-71509673D02*
X29809523Y-71604912D01*
X29809523Y-71604912D02*
X29714285Y-71652531D01*
X29714285Y-71652531D02*
X29619047Y-71652531D01*
X29285713Y-71652531D02*
X29285713Y-70652531D01*
X28857142Y-71652531D02*
X28857142Y-71128721D01*
X28857142Y-71128721D02*
X28904761Y-71033483D01*
X28904761Y-71033483D02*
X28999999Y-70985864D01*
X28999999Y-70985864D02*
X29142856Y-70985864D01*
X29142856Y-70985864D02*
X29238094Y-71033483D01*
X29238094Y-71033483D02*
X29285713Y-71081102D01*
X27952380Y-70985864D02*
X27952380Y-71652531D01*
X28380951Y-70985864D02*
X28380951Y-71509673D01*
X28380951Y-71509673D02*
X28333332Y-71604912D01*
X28333332Y-71604912D02*
X28238094Y-71652531D01*
X28238094Y-71652531D02*
X28095237Y-71652531D01*
X28095237Y-71652531D02*
X27999999Y-71604912D01*
X27999999Y-71604912D02*
X27952380Y-71557292D01*
X27476189Y-71652531D02*
X27476189Y-70652531D01*
X27476189Y-71033483D02*
X27380951Y-70985864D01*
X27380951Y-70985864D02*
X27190475Y-70985864D01*
X27190475Y-70985864D02*
X27095237Y-71033483D01*
X27095237Y-71033483D02*
X27047618Y-71081102D01*
X27047618Y-71081102D02*
X26999999Y-71176340D01*
X26999999Y-71176340D02*
X26999999Y-71462054D01*
X26999999Y-71462054D02*
X27047618Y-71557292D01*
X27047618Y-71557292D02*
X27095237Y-71604912D01*
X27095237Y-71604912D02*
X27190475Y-71652531D01*
X27190475Y-71652531D02*
X27380951Y-71652531D01*
X27380951Y-71652531D02*
X27476189Y-71604912D01*
X26571427Y-71557292D02*
X26523808Y-71604912D01*
X26523808Y-71604912D02*
X26571427Y-71652531D01*
X26571427Y-71652531D02*
X26619046Y-71604912D01*
X26619046Y-71604912D02*
X26571427Y-71557292D01*
X26571427Y-71557292D02*
X26571427Y-71652531D01*
X25666666Y-71604912D02*
X25761904Y-71652531D01*
X25761904Y-71652531D02*
X25952380Y-71652531D01*
X25952380Y-71652531D02*
X26047618Y-71604912D01*
X26047618Y-71604912D02*
X26095237Y-71557292D01*
X26095237Y-71557292D02*
X26142856Y-71462054D01*
X26142856Y-71462054D02*
X26142856Y-71176340D01*
X26142856Y-71176340D02*
X26095237Y-71081102D01*
X26095237Y-71081102D02*
X26047618Y-71033483D01*
X26047618Y-71033483D02*
X25952380Y-70985864D01*
X25952380Y-70985864D02*
X25761904Y-70985864D01*
X25761904Y-70985864D02*
X25666666Y-71033483D01*
X25095237Y-71652531D02*
X25190475Y-71604912D01*
X25190475Y-71604912D02*
X25238094Y-71557292D01*
X25238094Y-71557292D02*
X25285713Y-71462054D01*
X25285713Y-71462054D02*
X25285713Y-71176340D01*
X25285713Y-71176340D02*
X25238094Y-71081102D01*
X25238094Y-71081102D02*
X25190475Y-71033483D01*
X25190475Y-71033483D02*
X25095237Y-70985864D01*
X25095237Y-70985864D02*
X24952380Y-70985864D01*
X24952380Y-70985864D02*
X24857142Y-71033483D01*
X24857142Y-71033483D02*
X24809523Y-71081102D01*
X24809523Y-71081102D02*
X24761904Y-71176340D01*
X24761904Y-71176340D02*
X24761904Y-71462054D01*
X24761904Y-71462054D02*
X24809523Y-71557292D01*
X24809523Y-71557292D02*
X24857142Y-71604912D01*
X24857142Y-71604912D02*
X24952380Y-71652531D01*
X24952380Y-71652531D02*
X25095237Y-71652531D01*
X24333332Y-71652531D02*
X24333332Y-70985864D01*
X24333332Y-71081102D02*
X24285713Y-71033483D01*
X24285713Y-71033483D02*
X24190475Y-70985864D01*
X24190475Y-70985864D02*
X24047618Y-70985864D01*
X24047618Y-70985864D02*
X23952380Y-71033483D01*
X23952380Y-71033483D02*
X23904761Y-71128721D01*
X23904761Y-71128721D02*
X23904761Y-71652531D01*
X23904761Y-71128721D02*
X23857142Y-71033483D01*
X23857142Y-71033483D02*
X23761904Y-70985864D01*
X23761904Y-70985864D02*
X23619047Y-70985864D01*
X23619047Y-70985864D02*
X23523808Y-71033483D01*
X23523808Y-71033483D02*
X23476189Y-71128721D01*
X23476189Y-71128721D02*
X23476189Y-71652531D01*
X22285714Y-70604912D02*
X23142856Y-71890626D01*
X42523810Y-73262475D02*
X42523810Y-72738665D01*
X42523810Y-72738665D02*
X42571429Y-72643427D01*
X42571429Y-72643427D02*
X42666667Y-72595808D01*
X42666667Y-72595808D02*
X42857143Y-72595808D01*
X42857143Y-72595808D02*
X42952381Y-72643427D01*
X42523810Y-73214856D02*
X42619048Y-73262475D01*
X42619048Y-73262475D02*
X42857143Y-73262475D01*
X42857143Y-73262475D02*
X42952381Y-73214856D01*
X42952381Y-73214856D02*
X43000000Y-73119617D01*
X43000000Y-73119617D02*
X43000000Y-73024379D01*
X43000000Y-73024379D02*
X42952381Y-72929141D01*
X42952381Y-72929141D02*
X42857143Y-72881522D01*
X42857143Y-72881522D02*
X42619048Y-72881522D01*
X42619048Y-72881522D02*
X42523810Y-72833903D01*
X41619048Y-72595808D02*
X41619048Y-73262475D01*
X42047619Y-72595808D02*
X42047619Y-73119617D01*
X42047619Y-73119617D02*
X42000000Y-73214856D01*
X42000000Y-73214856D02*
X41904762Y-73262475D01*
X41904762Y-73262475D02*
X41761905Y-73262475D01*
X41761905Y-73262475D02*
X41666667Y-73214856D01*
X41666667Y-73214856D02*
X41619048Y-73167236D01*
X40714286Y-72595808D02*
X40714286Y-73405332D01*
X40714286Y-73405332D02*
X40761905Y-73500570D01*
X40761905Y-73500570D02*
X40809524Y-73548189D01*
X40809524Y-73548189D02*
X40904762Y-73595808D01*
X40904762Y-73595808D02*
X41047619Y-73595808D01*
X41047619Y-73595808D02*
X41142857Y-73548189D01*
X40714286Y-73214856D02*
X40809524Y-73262475D01*
X40809524Y-73262475D02*
X41000000Y-73262475D01*
X41000000Y-73262475D02*
X41095238Y-73214856D01*
X41095238Y-73214856D02*
X41142857Y-73167236D01*
X41142857Y-73167236D02*
X41190476Y-73071998D01*
X41190476Y-73071998D02*
X41190476Y-72786284D01*
X41190476Y-72786284D02*
X41142857Y-72691046D01*
X41142857Y-72691046D02*
X41095238Y-72643427D01*
X41095238Y-72643427D02*
X41000000Y-72595808D01*
X41000000Y-72595808D02*
X40809524Y-72595808D01*
X40809524Y-72595808D02*
X40714286Y-72643427D01*
X39809524Y-72595808D02*
X39809524Y-73262475D01*
X40238095Y-72595808D02*
X40238095Y-73119617D01*
X40238095Y-73119617D02*
X40190476Y-73214856D01*
X40190476Y-73214856D02*
X40095238Y-73262475D01*
X40095238Y-73262475D02*
X39952381Y-73262475D01*
X39952381Y-73262475D02*
X39857143Y-73214856D01*
X39857143Y-73214856D02*
X39809524Y-73167236D01*
X39380952Y-73214856D02*
X39285714Y-73262475D01*
X39285714Y-73262475D02*
X39095238Y-73262475D01*
X39095238Y-73262475D02*
X39000000Y-73214856D01*
X39000000Y-73214856D02*
X38952381Y-73119617D01*
X38952381Y-73119617D02*
X38952381Y-73071998D01*
X38952381Y-73071998D02*
X39000000Y-72976760D01*
X39000000Y-72976760D02*
X39095238Y-72929141D01*
X39095238Y-72929141D02*
X39238095Y-72929141D01*
X39238095Y-72929141D02*
X39333333Y-72881522D01*
X39333333Y-72881522D02*
X39380952Y-72786284D01*
X39380952Y-72786284D02*
X39380952Y-72738665D01*
X39380952Y-72738665D02*
X39333333Y-72643427D01*
X39333333Y-72643427D02*
X39238095Y-72595808D01*
X39238095Y-72595808D02*
X39095238Y-72595808D01*
X39095238Y-72595808D02*
X39000000Y-72643427D01*
X38666666Y-72595808D02*
X38285714Y-72595808D01*
X38523809Y-72262475D02*
X38523809Y-73119617D01*
X38523809Y-73119617D02*
X38476190Y-73214856D01*
X38476190Y-73214856D02*
X38380952Y-73262475D01*
X38380952Y-73262475D02*
X38285714Y-73262475D01*
X37952380Y-73262475D02*
X37952380Y-72595808D01*
X37952380Y-72262475D02*
X37999999Y-72310094D01*
X37999999Y-72310094D02*
X37952380Y-72357713D01*
X37952380Y-72357713D02*
X37904761Y-72310094D01*
X37904761Y-72310094D02*
X37952380Y-72262475D01*
X37952380Y-72262475D02*
X37952380Y-72357713D01*
X37476190Y-72595808D02*
X37476190Y-73262475D01*
X37476190Y-72691046D02*
X37428571Y-72643427D01*
X37428571Y-72643427D02*
X37333333Y-72595808D01*
X37333333Y-72595808D02*
X37190476Y-72595808D01*
X37190476Y-72595808D02*
X37095238Y-72643427D01*
X37095238Y-72643427D02*
X37047619Y-72738665D01*
X37047619Y-72738665D02*
X37047619Y-73262475D01*
X36666666Y-72595808D02*
X36142857Y-72595808D01*
X36142857Y-72595808D02*
X36666666Y-73262475D01*
X36666666Y-73262475D02*
X36142857Y-73262475D01*
X35333333Y-73262475D02*
X35333333Y-72738665D01*
X35333333Y-72738665D02*
X35380952Y-72643427D01*
X35380952Y-72643427D02*
X35476190Y-72595808D01*
X35476190Y-72595808D02*
X35666666Y-72595808D01*
X35666666Y-72595808D02*
X35761904Y-72643427D01*
X35333333Y-73214856D02*
X35428571Y-73262475D01*
X35428571Y-73262475D02*
X35666666Y-73262475D01*
X35666666Y-73262475D02*
X35761904Y-73214856D01*
X35761904Y-73214856D02*
X35809523Y-73119617D01*
X35809523Y-73119617D02*
X35809523Y-73024379D01*
X35809523Y-73024379D02*
X35761904Y-72929141D01*
X35761904Y-72929141D02*
X35666666Y-72881522D01*
X35666666Y-72881522D02*
X35428571Y-72881522D01*
X35428571Y-72881522D02*
X35333333Y-72833903D01*
X34857142Y-73262475D02*
X34857142Y-72595808D01*
X34857142Y-72262475D02*
X34904761Y-72310094D01*
X34904761Y-72310094D02*
X34857142Y-72357713D01*
X34857142Y-72357713D02*
X34809523Y-72310094D01*
X34809523Y-72310094D02*
X34857142Y-72262475D01*
X34857142Y-72262475D02*
X34857142Y-72357713D01*
X34380952Y-72595808D02*
X34380952Y-73262475D01*
X34380952Y-72691046D02*
X34333333Y-72643427D01*
X34333333Y-72643427D02*
X34238095Y-72595808D01*
X34238095Y-72595808D02*
X34095238Y-72595808D01*
X34095238Y-72595808D02*
X34000000Y-72643427D01*
X34000000Y-72643427D02*
X33952381Y-72738665D01*
X33952381Y-72738665D02*
X33952381Y-73262475D01*
X33476190Y-73262475D02*
X33476190Y-72595808D01*
X33476190Y-72262475D02*
X33523809Y-72310094D01*
X33523809Y-72310094D02*
X33476190Y-72357713D01*
X33476190Y-72357713D02*
X33428571Y-72310094D01*
X33428571Y-72310094D02*
X33476190Y-72262475D01*
X33476190Y-72262475D02*
X33476190Y-72357713D01*
X33000000Y-72595808D02*
X33000000Y-73262475D01*
X33000000Y-72691046D02*
X32952381Y-72643427D01*
X32952381Y-72643427D02*
X32857143Y-72595808D01*
X32857143Y-72595808D02*
X32714286Y-72595808D01*
X32714286Y-72595808D02*
X32619048Y-72643427D01*
X32619048Y-72643427D02*
X32571429Y-72738665D01*
X32571429Y-72738665D02*
X32571429Y-73262475D01*
X31666667Y-72595808D02*
X31666667Y-73405332D01*
X31666667Y-73405332D02*
X31714286Y-73500570D01*
X31714286Y-73500570D02*
X31761905Y-73548189D01*
X31761905Y-73548189D02*
X31857143Y-73595808D01*
X31857143Y-73595808D02*
X32000000Y-73595808D01*
X32000000Y-73595808D02*
X32095238Y-73548189D01*
X31666667Y-73214856D02*
X31761905Y-73262475D01*
X31761905Y-73262475D02*
X31952381Y-73262475D01*
X31952381Y-73262475D02*
X32047619Y-73214856D01*
X32047619Y-73214856D02*
X32095238Y-73167236D01*
X32095238Y-73167236D02*
X32142857Y-73071998D01*
X32142857Y-73071998D02*
X32142857Y-72786284D01*
X32142857Y-72786284D02*
X32095238Y-72691046D01*
X32095238Y-72691046D02*
X32047619Y-72643427D01*
X32047619Y-72643427D02*
X31952381Y-72595808D01*
X31952381Y-72595808D02*
X31761905Y-72595808D01*
X31761905Y-72595808D02*
X31666667Y-72643427D01*
X30809524Y-73214856D02*
X30904762Y-73262475D01*
X30904762Y-73262475D02*
X31095238Y-73262475D01*
X31095238Y-73262475D02*
X31190476Y-73214856D01*
X31190476Y-73214856D02*
X31238095Y-73119617D01*
X31238095Y-73119617D02*
X31238095Y-72738665D01*
X31238095Y-72738665D02*
X31190476Y-72643427D01*
X31190476Y-72643427D02*
X31095238Y-72595808D01*
X31095238Y-72595808D02*
X30904762Y-72595808D01*
X30904762Y-72595808D02*
X30809524Y-72643427D01*
X30809524Y-72643427D02*
X30761905Y-72738665D01*
X30761905Y-72738665D02*
X30761905Y-72833903D01*
X30761905Y-72833903D02*
X31238095Y-72929141D01*
X30333333Y-73262475D02*
X30333333Y-72595808D01*
X30333333Y-72786284D02*
X30285714Y-72691046D01*
X30285714Y-72691046D02*
X30238095Y-72643427D01*
X30238095Y-72643427D02*
X30142857Y-72595808D01*
X30142857Y-72595808D02*
X30047619Y-72595808D01*
X29000000Y-72214856D02*
X29857142Y-73500570D01*
X28714285Y-73214856D02*
X28619047Y-73262475D01*
X28619047Y-73262475D02*
X28428571Y-73262475D01*
X28428571Y-73262475D02*
X28333333Y-73214856D01*
X28333333Y-73214856D02*
X28285714Y-73119617D01*
X28285714Y-73119617D02*
X28285714Y-73071998D01*
X28285714Y-73071998D02*
X28333333Y-72976760D01*
X28333333Y-72976760D02*
X28428571Y-72929141D01*
X28428571Y-72929141D02*
X28571428Y-72929141D01*
X28571428Y-72929141D02*
X28666666Y-72881522D01*
X28666666Y-72881522D02*
X28714285Y-72786284D01*
X28714285Y-72786284D02*
X28714285Y-72738665D01*
X28714285Y-72738665D02*
X28666666Y-72643427D01*
X28666666Y-72643427D02*
X28571428Y-72595808D01*
X28571428Y-72595808D02*
X28428571Y-72595808D01*
X28428571Y-72595808D02*
X28333333Y-72643427D01*
X27857142Y-72595808D02*
X27857142Y-73595808D01*
X27857142Y-72643427D02*
X27761904Y-72595808D01*
X27761904Y-72595808D02*
X27571428Y-72595808D01*
X27571428Y-72595808D02*
X27476190Y-72643427D01*
X27476190Y-72643427D02*
X27428571Y-72691046D01*
X27428571Y-72691046D02*
X27380952Y-72786284D01*
X27380952Y-72786284D02*
X27380952Y-73071998D01*
X27380952Y-73071998D02*
X27428571Y-73167236D01*
X27428571Y-73167236D02*
X27476190Y-73214856D01*
X27476190Y-73214856D02*
X27571428Y-73262475D01*
X27571428Y-73262475D02*
X27761904Y-73262475D01*
X27761904Y-73262475D02*
X27857142Y-73214856D01*
X26571428Y-73214856D02*
X26666666Y-73262475D01*
X26666666Y-73262475D02*
X26857142Y-73262475D01*
X26857142Y-73262475D02*
X26952380Y-73214856D01*
X26952380Y-73214856D02*
X26999999Y-73119617D01*
X26999999Y-73119617D02*
X26999999Y-72738665D01*
X26999999Y-72738665D02*
X26952380Y-72643427D01*
X26952380Y-72643427D02*
X26857142Y-72595808D01*
X26857142Y-72595808D02*
X26666666Y-72595808D01*
X26666666Y-72595808D02*
X26571428Y-72643427D01*
X26571428Y-72643427D02*
X26523809Y-72738665D01*
X26523809Y-72738665D02*
X26523809Y-72833903D01*
X26523809Y-72833903D02*
X26999999Y-72929141D01*
X25666666Y-73214856D02*
X25761904Y-73262475D01*
X25761904Y-73262475D02*
X25952380Y-73262475D01*
X25952380Y-73262475D02*
X26047618Y-73214856D01*
X26047618Y-73214856D02*
X26095237Y-73167236D01*
X26095237Y-73167236D02*
X26142856Y-73071998D01*
X26142856Y-73071998D02*
X26142856Y-72786284D01*
X26142856Y-72786284D02*
X26095237Y-72691046D01*
X26095237Y-72691046D02*
X26047618Y-72643427D01*
X26047618Y-72643427D02*
X25952380Y-72595808D01*
X25952380Y-72595808D02*
X25761904Y-72595808D01*
X25761904Y-72595808D02*
X25666666Y-72643427D01*
X25238094Y-73262475D02*
X25238094Y-72595808D01*
X25238094Y-72262475D02*
X25285713Y-72310094D01*
X25285713Y-72310094D02*
X25238094Y-72357713D01*
X25238094Y-72357713D02*
X25190475Y-72310094D01*
X25190475Y-72310094D02*
X25238094Y-72262475D01*
X25238094Y-72262475D02*
X25238094Y-72357713D01*
X24333333Y-73262475D02*
X24333333Y-72738665D01*
X24333333Y-72738665D02*
X24380952Y-72643427D01*
X24380952Y-72643427D02*
X24476190Y-72595808D01*
X24476190Y-72595808D02*
X24666666Y-72595808D01*
X24666666Y-72595808D02*
X24761904Y-72643427D01*
X24333333Y-73214856D02*
X24428571Y-73262475D01*
X24428571Y-73262475D02*
X24666666Y-73262475D01*
X24666666Y-73262475D02*
X24761904Y-73214856D01*
X24761904Y-73214856D02*
X24809523Y-73119617D01*
X24809523Y-73119617D02*
X24809523Y-73024379D01*
X24809523Y-73024379D02*
X24761904Y-72929141D01*
X24761904Y-72929141D02*
X24666666Y-72881522D01*
X24666666Y-72881522D02*
X24428571Y-72881522D01*
X24428571Y-72881522D02*
X24333333Y-72833903D01*
X23714285Y-73262475D02*
X23809523Y-73214856D01*
X23809523Y-73214856D02*
X23857142Y-73119617D01*
X23857142Y-73119617D02*
X23857142Y-72262475D01*
X23333332Y-72881522D02*
X22571428Y-72881522D01*
X22190475Y-72595808D02*
X21999999Y-73262475D01*
X21999999Y-73262475D02*
X21809523Y-72786284D01*
X21809523Y-72786284D02*
X21619047Y-73262475D01*
X21619047Y-73262475D02*
X21428571Y-72595808D01*
X20619047Y-73262475D02*
X20619047Y-72738665D01*
X20619047Y-72738665D02*
X20666666Y-72643427D01*
X20666666Y-72643427D02*
X20761904Y-72595808D01*
X20761904Y-72595808D02*
X20952380Y-72595808D01*
X20952380Y-72595808D02*
X21047618Y-72643427D01*
X20619047Y-73214856D02*
X20714285Y-73262475D01*
X20714285Y-73262475D02*
X20952380Y-73262475D01*
X20952380Y-73262475D02*
X21047618Y-73214856D01*
X21047618Y-73214856D02*
X21095237Y-73119617D01*
X21095237Y-73119617D02*
X21095237Y-73024379D01*
X21095237Y-73024379D02*
X21047618Y-72929141D01*
X21047618Y-72929141D02*
X20952380Y-72881522D01*
X20952380Y-72881522D02*
X20714285Y-72881522D01*
X20714285Y-72881522D02*
X20619047Y-72833903D01*
X20285713Y-72595808D02*
X19904761Y-72595808D01*
X20142856Y-73262475D02*
X20142856Y-72405332D01*
X20142856Y-72405332D02*
X20095237Y-72310094D01*
X20095237Y-72310094D02*
X19999999Y-72262475D01*
X19999999Y-72262475D02*
X19904761Y-72262475D01*
X19714284Y-72595808D02*
X19333332Y-72595808D01*
X19571427Y-73262475D02*
X19571427Y-72405332D01*
X19571427Y-72405332D02*
X19523808Y-72310094D01*
X19523808Y-72310094D02*
X19428570Y-72262475D01*
X19428570Y-72262475D02*
X19333332Y-72262475D01*
X18857141Y-73262475D02*
X18952379Y-73214856D01*
X18952379Y-73214856D02*
X18999998Y-73119617D01*
X18999998Y-73119617D02*
X18999998Y-72262475D01*
X18095236Y-73214856D02*
X18190474Y-73262475D01*
X18190474Y-73262475D02*
X18380950Y-73262475D01*
X18380950Y-73262475D02*
X18476188Y-73214856D01*
X18476188Y-73214856D02*
X18523807Y-73119617D01*
X18523807Y-73119617D02*
X18523807Y-72738665D01*
X18523807Y-72738665D02*
X18476188Y-72643427D01*
X18476188Y-72643427D02*
X18380950Y-72595808D01*
X18380950Y-72595808D02*
X18190474Y-72595808D01*
X18190474Y-72595808D02*
X18095236Y-72643427D01*
X18095236Y-72643427D02*
X18047617Y-72738665D01*
X18047617Y-72738665D02*
X18047617Y-72833903D01*
X18047617Y-72833903D02*
X18523807Y-72929141D01*
X16904760Y-72214856D02*
X17761902Y-73500570D01*
X41285715Y-74205752D02*
X41285715Y-74872419D01*
X41523810Y-73824800D02*
X41761905Y-74539085D01*
X41761905Y-74539085D02*
X41142858Y-74539085D01*
X40857143Y-74872419D02*
X40333334Y-74205752D01*
X40857143Y-74205752D02*
X40333334Y-74872419D01*
X39380953Y-74872419D02*
X39714286Y-74396228D01*
X39952381Y-74872419D02*
X39952381Y-73872419D01*
X39952381Y-73872419D02*
X39571429Y-73872419D01*
X39571429Y-73872419D02*
X39476191Y-73920038D01*
X39476191Y-73920038D02*
X39428572Y-73967657D01*
X39428572Y-73967657D02*
X39380953Y-74062895D01*
X39380953Y-74062895D02*
X39380953Y-74205752D01*
X39380953Y-74205752D02*
X39428572Y-74300990D01*
X39428572Y-74300990D02*
X39476191Y-74348609D01*
X39476191Y-74348609D02*
X39571429Y-74396228D01*
X39571429Y-74396228D02*
X39952381Y-74396228D01*
X38666667Y-73872419D02*
X38666667Y-74586704D01*
X38666667Y-74586704D02*
X38714286Y-74729561D01*
X38714286Y-74729561D02*
X38809524Y-74824800D01*
X38809524Y-74824800D02*
X38952381Y-74872419D01*
X38952381Y-74872419D02*
X39047619Y-74872419D01*
X37761905Y-74205752D02*
X37761905Y-74872419D01*
X38000000Y-73824800D02*
X38238095Y-74539085D01*
X38238095Y-74539085D02*
X37619048Y-74539085D01*
X36761905Y-73872419D02*
X37238095Y-73872419D01*
X37238095Y-73872419D02*
X37285714Y-74348609D01*
X37285714Y-74348609D02*
X37238095Y-74300990D01*
X37238095Y-74300990D02*
X37142857Y-74253371D01*
X37142857Y-74253371D02*
X36904762Y-74253371D01*
X36904762Y-74253371D02*
X36809524Y-74300990D01*
X36809524Y-74300990D02*
X36761905Y-74348609D01*
X36761905Y-74348609D02*
X36714286Y-74443847D01*
X36714286Y-74443847D02*
X36714286Y-74681942D01*
X36714286Y-74681942D02*
X36761905Y-74777180D01*
X36761905Y-74777180D02*
X36809524Y-74824800D01*
X36809524Y-74824800D02*
X36904762Y-74872419D01*
X36904762Y-74872419D02*
X37142857Y-74872419D01*
X37142857Y-74872419D02*
X37238095Y-74824800D01*
X37238095Y-74824800D02*
X37285714Y-74777180D01*
X36523810Y-74967657D02*
X35761905Y-74967657D01*
X35571428Y-74586704D02*
X35095238Y-74586704D01*
X35666666Y-74872419D02*
X35333333Y-73872419D01*
X35333333Y-73872419D02*
X35000000Y-74872419D01*
X34666666Y-74872419D02*
X34666666Y-73872419D01*
X34666666Y-73872419D02*
X34333333Y-74586704D01*
X34333333Y-74586704D02*
X34000000Y-73872419D01*
X34000000Y-73872419D02*
X34000000Y-74872419D01*
X33761905Y-74967657D02*
X33000000Y-74967657D01*
X32809523Y-74824800D02*
X32666666Y-74872419D01*
X32666666Y-74872419D02*
X32428571Y-74872419D01*
X32428571Y-74872419D02*
X32333333Y-74824800D01*
X32333333Y-74824800D02*
X32285714Y-74777180D01*
X32285714Y-74777180D02*
X32238095Y-74681942D01*
X32238095Y-74681942D02*
X32238095Y-74586704D01*
X32238095Y-74586704D02*
X32285714Y-74491466D01*
X32285714Y-74491466D02*
X32333333Y-74443847D01*
X32333333Y-74443847D02*
X32428571Y-74396228D01*
X32428571Y-74396228D02*
X32619047Y-74348609D01*
X32619047Y-74348609D02*
X32714285Y-74300990D01*
X32714285Y-74300990D02*
X32761904Y-74253371D01*
X32761904Y-74253371D02*
X32809523Y-74158133D01*
X32809523Y-74158133D02*
X32809523Y-74062895D01*
X32809523Y-74062895D02*
X32761904Y-73967657D01*
X32761904Y-73967657D02*
X32714285Y-73920038D01*
X32714285Y-73920038D02*
X32619047Y-73872419D01*
X32619047Y-73872419D02*
X32380952Y-73872419D01*
X32380952Y-73872419D02*
X32238095Y-73920038D01*
X31809523Y-74872419D02*
X31809523Y-73872419D01*
X31809523Y-73872419D02*
X31476190Y-74586704D01*
X31476190Y-74586704D02*
X31142857Y-73872419D01*
X31142857Y-73872419D02*
X31142857Y-74872419D01*
X30666666Y-73872419D02*
X30666666Y-74681942D01*
X30666666Y-74681942D02*
X30619047Y-74777180D01*
X30619047Y-74777180D02*
X30571428Y-74824800D01*
X30571428Y-74824800D02*
X30476190Y-74872419D01*
X30476190Y-74872419D02*
X30285714Y-74872419D01*
X30285714Y-74872419D02*
X30190476Y-74824800D01*
X30190476Y-74824800D02*
X30142857Y-74777180D01*
X30142857Y-74777180D02*
X30095238Y-74681942D01*
X30095238Y-74681942D02*
X30095238Y-73872419D01*
X29857143Y-74967657D02*
X29095238Y-74967657D01*
X28428571Y-74872419D02*
X28428571Y-74348609D01*
X28428571Y-74348609D02*
X28476190Y-74253371D01*
X28476190Y-74253371D02*
X28571428Y-74205752D01*
X28571428Y-74205752D02*
X28761904Y-74205752D01*
X28761904Y-74205752D02*
X28857142Y-74253371D01*
X28428571Y-74824800D02*
X28523809Y-74872419D01*
X28523809Y-74872419D02*
X28761904Y-74872419D01*
X28761904Y-74872419D02*
X28857142Y-74824800D01*
X28857142Y-74824800D02*
X28904761Y-74729561D01*
X28904761Y-74729561D02*
X28904761Y-74634323D01*
X28904761Y-74634323D02*
X28857142Y-74539085D01*
X28857142Y-74539085D02*
X28761904Y-74491466D01*
X28761904Y-74491466D02*
X28523809Y-74491466D01*
X28523809Y-74491466D02*
X28428571Y-74443847D01*
X27523809Y-74872419D02*
X27523809Y-73872419D01*
X27523809Y-74824800D02*
X27619047Y-74872419D01*
X27619047Y-74872419D02*
X27809523Y-74872419D01*
X27809523Y-74872419D02*
X27904761Y-74824800D01*
X27904761Y-74824800D02*
X27952380Y-74777180D01*
X27952380Y-74777180D02*
X27999999Y-74681942D01*
X27999999Y-74681942D02*
X27999999Y-74396228D01*
X27999999Y-74396228D02*
X27952380Y-74300990D01*
X27952380Y-74300990D02*
X27904761Y-74253371D01*
X27904761Y-74253371D02*
X27809523Y-74205752D01*
X27809523Y-74205752D02*
X27619047Y-74205752D01*
X27619047Y-74205752D02*
X27523809Y-74253371D01*
X26619047Y-74872419D02*
X26619047Y-74348609D01*
X26619047Y-74348609D02*
X26666666Y-74253371D01*
X26666666Y-74253371D02*
X26761904Y-74205752D01*
X26761904Y-74205752D02*
X26952380Y-74205752D01*
X26952380Y-74205752D02*
X27047618Y-74253371D01*
X26619047Y-74824800D02*
X26714285Y-74872419D01*
X26714285Y-74872419D02*
X26952380Y-74872419D01*
X26952380Y-74872419D02*
X27047618Y-74824800D01*
X27047618Y-74824800D02*
X27095237Y-74729561D01*
X27095237Y-74729561D02*
X27095237Y-74634323D01*
X27095237Y-74634323D02*
X27047618Y-74539085D01*
X27047618Y-74539085D02*
X26952380Y-74491466D01*
X26952380Y-74491466D02*
X26714285Y-74491466D01*
X26714285Y-74491466D02*
X26619047Y-74443847D01*
X26142856Y-74205752D02*
X26142856Y-75205752D01*
X26142856Y-74253371D02*
X26047618Y-74205752D01*
X26047618Y-74205752D02*
X25857142Y-74205752D01*
X25857142Y-74205752D02*
X25761904Y-74253371D01*
X25761904Y-74253371D02*
X25714285Y-74300990D01*
X25714285Y-74300990D02*
X25666666Y-74396228D01*
X25666666Y-74396228D02*
X25666666Y-74681942D01*
X25666666Y-74681942D02*
X25714285Y-74777180D01*
X25714285Y-74777180D02*
X25761904Y-74824800D01*
X25761904Y-74824800D02*
X25857142Y-74872419D01*
X25857142Y-74872419D02*
X26047618Y-74872419D01*
X26047618Y-74872419D02*
X26142856Y-74824800D01*
X25380951Y-74205752D02*
X24999999Y-74205752D01*
X25238094Y-73872419D02*
X25238094Y-74729561D01*
X25238094Y-74729561D02*
X25190475Y-74824800D01*
X25190475Y-74824800D02*
X25095237Y-74872419D01*
X25095237Y-74872419D02*
X24999999Y-74872419D01*
X24285713Y-74824800D02*
X24380951Y-74872419D01*
X24380951Y-74872419D02*
X24571427Y-74872419D01*
X24571427Y-74872419D02*
X24666665Y-74824800D01*
X24666665Y-74824800D02*
X24714284Y-74729561D01*
X24714284Y-74729561D02*
X24714284Y-74348609D01*
X24714284Y-74348609D02*
X24666665Y-74253371D01*
X24666665Y-74253371D02*
X24571427Y-74205752D01*
X24571427Y-74205752D02*
X24380951Y-74205752D01*
X24380951Y-74205752D02*
X24285713Y-74253371D01*
X24285713Y-74253371D02*
X24238094Y-74348609D01*
X24238094Y-74348609D02*
X24238094Y-74443847D01*
X24238094Y-74443847D02*
X24714284Y-74539085D01*
X23809522Y-74872419D02*
X23809522Y-74205752D01*
X23809522Y-74396228D02*
X23761903Y-74300990D01*
X23761903Y-74300990D02*
X23714284Y-74253371D01*
X23714284Y-74253371D02*
X23619046Y-74205752D01*
X23619046Y-74205752D02*
X23523808Y-74205752D01*
X22857141Y-74348609D02*
X22714284Y-74396228D01*
X22714284Y-74396228D02*
X22666665Y-74443847D01*
X22666665Y-74443847D02*
X22619046Y-74539085D01*
X22619046Y-74539085D02*
X22619046Y-74681942D01*
X22619046Y-74681942D02*
X22666665Y-74777180D01*
X22666665Y-74777180D02*
X22714284Y-74824800D01*
X22714284Y-74824800D02*
X22809522Y-74872419D01*
X22809522Y-74872419D02*
X23190474Y-74872419D01*
X23190474Y-74872419D02*
X23190474Y-73872419D01*
X23190474Y-73872419D02*
X22857141Y-73872419D01*
X22857141Y-73872419D02*
X22761903Y-73920038D01*
X22761903Y-73920038D02*
X22714284Y-73967657D01*
X22714284Y-73967657D02*
X22666665Y-74062895D01*
X22666665Y-74062895D02*
X22666665Y-74158133D01*
X22666665Y-74158133D02*
X22714284Y-74253371D01*
X22714284Y-74253371D02*
X22761903Y-74300990D01*
X22761903Y-74300990D02*
X22857141Y-74348609D01*
X22857141Y-74348609D02*
X23190474Y-74348609D01*
X22047617Y-74872419D02*
X22142855Y-74824800D01*
X22142855Y-74824800D02*
X22190474Y-74777180D01*
X22190474Y-74777180D02*
X22238093Y-74681942D01*
X22238093Y-74681942D02*
X22238093Y-74396228D01*
X22238093Y-74396228D02*
X22190474Y-74300990D01*
X22190474Y-74300990D02*
X22142855Y-74253371D01*
X22142855Y-74253371D02*
X22047617Y-74205752D01*
X22047617Y-74205752D02*
X21904760Y-74205752D01*
X21904760Y-74205752D02*
X21809522Y-74253371D01*
X21809522Y-74253371D02*
X21761903Y-74300990D01*
X21761903Y-74300990D02*
X21714284Y-74396228D01*
X21714284Y-74396228D02*
X21714284Y-74681942D01*
X21714284Y-74681942D02*
X21761903Y-74777180D01*
X21761903Y-74777180D02*
X21809522Y-74824800D01*
X21809522Y-74824800D02*
X21904760Y-74872419D01*
X21904760Y-74872419D02*
X22047617Y-74872419D01*
X20857141Y-74872419D02*
X20857141Y-74348609D01*
X20857141Y-74348609D02*
X20904760Y-74253371D01*
X20904760Y-74253371D02*
X20999998Y-74205752D01*
X20999998Y-74205752D02*
X21190474Y-74205752D01*
X21190474Y-74205752D02*
X21285712Y-74253371D01*
X20857141Y-74824800D02*
X20952379Y-74872419D01*
X20952379Y-74872419D02*
X21190474Y-74872419D01*
X21190474Y-74872419D02*
X21285712Y-74824800D01*
X21285712Y-74824800D02*
X21333331Y-74729561D01*
X21333331Y-74729561D02*
X21333331Y-74634323D01*
X21333331Y-74634323D02*
X21285712Y-74539085D01*
X21285712Y-74539085D02*
X21190474Y-74491466D01*
X21190474Y-74491466D02*
X20952379Y-74491466D01*
X20952379Y-74491466D02*
X20857141Y-74443847D01*
X20380950Y-74872419D02*
X20380950Y-74205752D01*
X20380950Y-74396228D02*
X20333331Y-74300990D01*
X20333331Y-74300990D02*
X20285712Y-74253371D01*
X20285712Y-74253371D02*
X20190474Y-74205752D01*
X20190474Y-74205752D02*
X20095236Y-74205752D01*
X19333331Y-74872419D02*
X19333331Y-73872419D01*
X19333331Y-74824800D02*
X19428569Y-74872419D01*
X19428569Y-74872419D02*
X19619045Y-74872419D01*
X19619045Y-74872419D02*
X19714283Y-74824800D01*
X19714283Y-74824800D02*
X19761902Y-74777180D01*
X19761902Y-74777180D02*
X19809521Y-74681942D01*
X19809521Y-74681942D02*
X19809521Y-74396228D01*
X19809521Y-74396228D02*
X19761902Y-74300990D01*
X19761902Y-74300990D02*
X19714283Y-74253371D01*
X19714283Y-74253371D02*
X19619045Y-74205752D01*
X19619045Y-74205752D02*
X19428569Y-74205752D01*
X19428569Y-74205752D02*
X19333331Y-74253371D01*
X18142855Y-73824800D02*
X18999997Y-75110514D01*
X84362782Y-69518777D02*
X84696115Y-69518777D01*
X84696115Y-70042587D02*
X84696115Y-69042587D01*
X84696115Y-69042587D02*
X84219925Y-69042587D01*
X83696115Y-70042587D02*
X83791353Y-69994968D01*
X83791353Y-69994968D02*
X83838972Y-69947348D01*
X83838972Y-69947348D02*
X83886591Y-69852110D01*
X83886591Y-69852110D02*
X83886591Y-69566396D01*
X83886591Y-69566396D02*
X83838972Y-69471158D01*
X83838972Y-69471158D02*
X83791353Y-69423539D01*
X83791353Y-69423539D02*
X83696115Y-69375920D01*
X83696115Y-69375920D02*
X83553258Y-69375920D01*
X83553258Y-69375920D02*
X83458020Y-69423539D01*
X83458020Y-69423539D02*
X83410401Y-69471158D01*
X83410401Y-69471158D02*
X83362782Y-69566396D01*
X83362782Y-69566396D02*
X83362782Y-69852110D01*
X83362782Y-69852110D02*
X83410401Y-69947348D01*
X83410401Y-69947348D02*
X83458020Y-69994968D01*
X83458020Y-69994968D02*
X83553258Y-70042587D01*
X83553258Y-70042587D02*
X83696115Y-70042587D01*
X82934210Y-70042587D02*
X82934210Y-69375920D01*
X82934210Y-69566396D02*
X82886591Y-69471158D01*
X82886591Y-69471158D02*
X82838972Y-69423539D01*
X82838972Y-69423539D02*
X82743734Y-69375920D01*
X82743734Y-69375920D02*
X82648496Y-69375920D01*
X81600876Y-69756872D02*
X81124686Y-69756872D01*
X81696114Y-70042587D02*
X81362781Y-69042587D01*
X81362781Y-69042587D02*
X81029448Y-70042587D01*
X80696114Y-70042587D02*
X80696114Y-69375920D01*
X80696114Y-69566396D02*
X80648495Y-69471158D01*
X80648495Y-69471158D02*
X80600876Y-69423539D01*
X80600876Y-69423539D02*
X80505638Y-69375920D01*
X80505638Y-69375920D02*
X80410400Y-69375920D01*
X80077066Y-70042587D02*
X80077066Y-69042587D01*
X79981828Y-69661634D02*
X79696114Y-70042587D01*
X79696114Y-69375920D02*
X80077066Y-69756872D01*
X78505637Y-70042587D02*
X78505637Y-69042587D01*
X78505637Y-69042587D02*
X78172304Y-69756872D01*
X78172304Y-69756872D02*
X77838971Y-69042587D01*
X77838971Y-69042587D02*
X77838971Y-70042587D01*
X76981828Y-69994968D02*
X77077066Y-70042587D01*
X77077066Y-70042587D02*
X77267542Y-70042587D01*
X77267542Y-70042587D02*
X77362780Y-69994968D01*
X77362780Y-69994968D02*
X77410399Y-69899729D01*
X77410399Y-69899729D02*
X77410399Y-69518777D01*
X77410399Y-69518777D02*
X77362780Y-69423539D01*
X77362780Y-69423539D02*
X77267542Y-69375920D01*
X77267542Y-69375920D02*
X77077066Y-69375920D01*
X77077066Y-69375920D02*
X76981828Y-69423539D01*
X76981828Y-69423539D02*
X76934209Y-69518777D01*
X76934209Y-69518777D02*
X76934209Y-69614015D01*
X76934209Y-69614015D02*
X77410399Y-69709253D01*
X76648494Y-69375920D02*
X76267542Y-69375920D01*
X76505637Y-69042587D02*
X76505637Y-69899729D01*
X76505637Y-69899729D02*
X76458018Y-69994968D01*
X76458018Y-69994968D02*
X76362780Y-70042587D01*
X76362780Y-70042587D02*
X76267542Y-70042587D01*
X75934208Y-70042587D02*
X75934208Y-69375920D01*
X75934208Y-69566396D02*
X75886589Y-69471158D01*
X75886589Y-69471158D02*
X75838970Y-69423539D01*
X75838970Y-69423539D02*
X75743732Y-69375920D01*
X75743732Y-69375920D02*
X75648494Y-69375920D01*
X75315160Y-70042587D02*
X75315160Y-69375920D01*
X75315160Y-69042587D02*
X75362779Y-69090206D01*
X75362779Y-69090206D02*
X75315160Y-69137825D01*
X75315160Y-69137825D02*
X75267541Y-69090206D01*
X75267541Y-69090206D02*
X75315160Y-69042587D01*
X75315160Y-69042587D02*
X75315160Y-69137825D01*
X74410399Y-69994968D02*
X74505637Y-70042587D01*
X74505637Y-70042587D02*
X74696113Y-70042587D01*
X74696113Y-70042587D02*
X74791351Y-69994968D01*
X74791351Y-69994968D02*
X74838970Y-69947348D01*
X74838970Y-69947348D02*
X74886589Y-69852110D01*
X74886589Y-69852110D02*
X74886589Y-69566396D01*
X74886589Y-69566396D02*
X74838970Y-69471158D01*
X74838970Y-69471158D02*
X74791351Y-69423539D01*
X74791351Y-69423539D02*
X74696113Y-69375920D01*
X74696113Y-69375920D02*
X74505637Y-69375920D01*
X74505637Y-69375920D02*
X74410399Y-69423539D01*
X73553256Y-70042587D02*
X73553256Y-69518777D01*
X73553256Y-69518777D02*
X73600875Y-69423539D01*
X73600875Y-69423539D02*
X73696113Y-69375920D01*
X73696113Y-69375920D02*
X73886589Y-69375920D01*
X73886589Y-69375920D02*
X73981827Y-69423539D01*
X73553256Y-69994968D02*
X73648494Y-70042587D01*
X73648494Y-70042587D02*
X73886589Y-70042587D01*
X73886589Y-70042587D02*
X73981827Y-69994968D01*
X73981827Y-69994968D02*
X74029446Y-69899729D01*
X74029446Y-69899729D02*
X74029446Y-69804491D01*
X74029446Y-69804491D02*
X73981827Y-69709253D01*
X73981827Y-69709253D02*
X73886589Y-69661634D01*
X73886589Y-69661634D02*
X73648494Y-69661634D01*
X73648494Y-69661634D02*
X73553256Y-69614015D01*
X72362779Y-69994968D02*
X72219922Y-70042587D01*
X72219922Y-70042587D02*
X71981827Y-70042587D01*
X71981827Y-70042587D02*
X71886589Y-69994968D01*
X71886589Y-69994968D02*
X71838970Y-69947348D01*
X71838970Y-69947348D02*
X71791351Y-69852110D01*
X71791351Y-69852110D02*
X71791351Y-69756872D01*
X71791351Y-69756872D02*
X71838970Y-69661634D01*
X71838970Y-69661634D02*
X71886589Y-69614015D01*
X71886589Y-69614015D02*
X71981827Y-69566396D01*
X71981827Y-69566396D02*
X72172303Y-69518777D01*
X72172303Y-69518777D02*
X72267541Y-69471158D01*
X72267541Y-69471158D02*
X72315160Y-69423539D01*
X72315160Y-69423539D02*
X72362779Y-69328301D01*
X72362779Y-69328301D02*
X72362779Y-69233063D01*
X72362779Y-69233063D02*
X72315160Y-69137825D01*
X72315160Y-69137825D02*
X72267541Y-69090206D01*
X72267541Y-69090206D02*
X72172303Y-69042587D01*
X72172303Y-69042587D02*
X71934208Y-69042587D01*
X71934208Y-69042587D02*
X71791351Y-69090206D01*
X71362779Y-70042587D02*
X71362779Y-69042587D01*
X71362779Y-69042587D02*
X71029446Y-69756872D01*
X71029446Y-69756872D02*
X70696113Y-69042587D01*
X70696113Y-69042587D02*
X70696113Y-70042587D01*
X70219922Y-69042587D02*
X70219922Y-69852110D01*
X70219922Y-69852110D02*
X70172303Y-69947348D01*
X70172303Y-69947348D02*
X70124684Y-69994968D01*
X70124684Y-69994968D02*
X70029446Y-70042587D01*
X70029446Y-70042587D02*
X69838970Y-70042587D01*
X69838970Y-70042587D02*
X69743732Y-69994968D01*
X69743732Y-69994968D02*
X69696113Y-69947348D01*
X69696113Y-69947348D02*
X69648494Y-69852110D01*
X69648494Y-69852110D02*
X69648494Y-69042587D01*
X68743732Y-69375920D02*
X68743732Y-70042587D01*
X68981827Y-68994968D02*
X69219922Y-69709253D01*
X69219922Y-69709253D02*
X68600875Y-69709253D01*
X68029446Y-69042587D02*
X67934208Y-69042587D01*
X67934208Y-69042587D02*
X67838970Y-69090206D01*
X67838970Y-69090206D02*
X67791351Y-69137825D01*
X67791351Y-69137825D02*
X67743732Y-69233063D01*
X67743732Y-69233063D02*
X67696113Y-69423539D01*
X67696113Y-69423539D02*
X67696113Y-69661634D01*
X67696113Y-69661634D02*
X67743732Y-69852110D01*
X67743732Y-69852110D02*
X67791351Y-69947348D01*
X67791351Y-69947348D02*
X67838970Y-69994968D01*
X67838970Y-69994968D02*
X67934208Y-70042587D01*
X67934208Y-70042587D02*
X68029446Y-70042587D01*
X68029446Y-70042587D02*
X68124684Y-69994968D01*
X68124684Y-69994968D02*
X68172303Y-69947348D01*
X68172303Y-69947348D02*
X68219922Y-69852110D01*
X68219922Y-69852110D02*
X68267541Y-69661634D01*
X68267541Y-69661634D02*
X68267541Y-69423539D01*
X68267541Y-69423539D02*
X68219922Y-69233063D01*
X68219922Y-69233063D02*
X68172303Y-69137825D01*
X68172303Y-69137825D02*
X68124684Y-69090206D01*
X68124684Y-69090206D02*
X68029446Y-69042587D01*
X67077065Y-69042587D02*
X66981827Y-69042587D01*
X66981827Y-69042587D02*
X66886589Y-69090206D01*
X66886589Y-69090206D02*
X66838970Y-69137825D01*
X66838970Y-69137825D02*
X66791351Y-69233063D01*
X66791351Y-69233063D02*
X66743732Y-69423539D01*
X66743732Y-69423539D02*
X66743732Y-69661634D01*
X66743732Y-69661634D02*
X66791351Y-69852110D01*
X66791351Y-69852110D02*
X66838970Y-69947348D01*
X66838970Y-69947348D02*
X66886589Y-69994968D01*
X66886589Y-69994968D02*
X66981827Y-70042587D01*
X66981827Y-70042587D02*
X67077065Y-70042587D01*
X67077065Y-70042587D02*
X67172303Y-69994968D01*
X67172303Y-69994968D02*
X67219922Y-69947348D01*
X67219922Y-69947348D02*
X67267541Y-69852110D01*
X67267541Y-69852110D02*
X67315160Y-69661634D01*
X67315160Y-69661634D02*
X67315160Y-69423539D01*
X67315160Y-69423539D02*
X67267541Y-69233063D01*
X67267541Y-69233063D02*
X67219922Y-69137825D01*
X67219922Y-69137825D02*
X67172303Y-69090206D01*
X67172303Y-69090206D02*
X67077065Y-69042587D01*
X66124684Y-69042587D02*
X66029446Y-69042587D01*
X66029446Y-69042587D02*
X65934208Y-69090206D01*
X65934208Y-69090206D02*
X65886589Y-69137825D01*
X65886589Y-69137825D02*
X65838970Y-69233063D01*
X65838970Y-69233063D02*
X65791351Y-69423539D01*
X65791351Y-69423539D02*
X65791351Y-69661634D01*
X65791351Y-69661634D02*
X65838970Y-69852110D01*
X65838970Y-69852110D02*
X65886589Y-69947348D01*
X65886589Y-69947348D02*
X65934208Y-69994968D01*
X65934208Y-69994968D02*
X66029446Y-70042587D01*
X66029446Y-70042587D02*
X66124684Y-70042587D01*
X66124684Y-70042587D02*
X66219922Y-69994968D01*
X66219922Y-69994968D02*
X66267541Y-69947348D01*
X66267541Y-69947348D02*
X66315160Y-69852110D01*
X66315160Y-69852110D02*
X66362779Y-69661634D01*
X66362779Y-69661634D02*
X66362779Y-69423539D01*
X66362779Y-69423539D02*
X66315160Y-69233063D01*
X66315160Y-69233063D02*
X66267541Y-69137825D01*
X66267541Y-69137825D02*
X66219922Y-69090206D01*
X66219922Y-69090206D02*
X66124684Y-69042587D01*
X84696115Y-70652531D02*
X84696115Y-71462054D01*
X84696115Y-71462054D02*
X84648496Y-71557292D01*
X84648496Y-71557292D02*
X84600877Y-71604912D01*
X84600877Y-71604912D02*
X84505639Y-71652531D01*
X84505639Y-71652531D02*
X84315163Y-71652531D01*
X84315163Y-71652531D02*
X84219925Y-71604912D01*
X84219925Y-71604912D02*
X84172306Y-71557292D01*
X84172306Y-71557292D02*
X84124687Y-71462054D01*
X84124687Y-71462054D02*
X84124687Y-70652531D01*
X83696115Y-71604912D02*
X83600877Y-71652531D01*
X83600877Y-71652531D02*
X83410401Y-71652531D01*
X83410401Y-71652531D02*
X83315163Y-71604912D01*
X83315163Y-71604912D02*
X83267544Y-71509673D01*
X83267544Y-71509673D02*
X83267544Y-71462054D01*
X83267544Y-71462054D02*
X83315163Y-71366816D01*
X83315163Y-71366816D02*
X83410401Y-71319197D01*
X83410401Y-71319197D02*
X83553258Y-71319197D01*
X83553258Y-71319197D02*
X83648496Y-71271578D01*
X83648496Y-71271578D02*
X83696115Y-71176340D01*
X83696115Y-71176340D02*
X83696115Y-71128721D01*
X83696115Y-71128721D02*
X83648496Y-71033483D01*
X83648496Y-71033483D02*
X83553258Y-70985864D01*
X83553258Y-70985864D02*
X83410401Y-70985864D01*
X83410401Y-70985864D02*
X83315163Y-71033483D01*
X82458020Y-71604912D02*
X82553258Y-71652531D01*
X82553258Y-71652531D02*
X82743734Y-71652531D01*
X82743734Y-71652531D02*
X82838972Y-71604912D01*
X82838972Y-71604912D02*
X82886591Y-71509673D01*
X82886591Y-71509673D02*
X82886591Y-71128721D01*
X82886591Y-71128721D02*
X82838972Y-71033483D01*
X82838972Y-71033483D02*
X82743734Y-70985864D01*
X82743734Y-70985864D02*
X82553258Y-70985864D01*
X82553258Y-70985864D02*
X82458020Y-71033483D01*
X82458020Y-71033483D02*
X82410401Y-71128721D01*
X82410401Y-71128721D02*
X82410401Y-71223959D01*
X82410401Y-71223959D02*
X82886591Y-71319197D01*
X81315162Y-70652531D02*
X80696115Y-70652531D01*
X80696115Y-70652531D02*
X81029448Y-71033483D01*
X81029448Y-71033483D02*
X80886591Y-71033483D01*
X80886591Y-71033483D02*
X80791353Y-71081102D01*
X80791353Y-71081102D02*
X80743734Y-71128721D01*
X80743734Y-71128721D02*
X80696115Y-71223959D01*
X80696115Y-71223959D02*
X80696115Y-71462054D01*
X80696115Y-71462054D02*
X80743734Y-71557292D01*
X80743734Y-71557292D02*
X80791353Y-71604912D01*
X80791353Y-71604912D02*
X80886591Y-71652531D01*
X80886591Y-71652531D02*
X81172305Y-71652531D01*
X81172305Y-71652531D02*
X81267543Y-71604912D01*
X81267543Y-71604912D02*
X81315162Y-71557292D01*
X80077067Y-70652531D02*
X79981829Y-70652531D01*
X79981829Y-70652531D02*
X79886591Y-70700150D01*
X79886591Y-70700150D02*
X79838972Y-70747769D01*
X79838972Y-70747769D02*
X79791353Y-70843007D01*
X79791353Y-70843007D02*
X79743734Y-71033483D01*
X79743734Y-71033483D02*
X79743734Y-71271578D01*
X79743734Y-71271578D02*
X79791353Y-71462054D01*
X79791353Y-71462054D02*
X79838972Y-71557292D01*
X79838972Y-71557292D02*
X79886591Y-71604912D01*
X79886591Y-71604912D02*
X79981829Y-71652531D01*
X79981829Y-71652531D02*
X80077067Y-71652531D01*
X80077067Y-71652531D02*
X80172305Y-71604912D01*
X80172305Y-71604912D02*
X80219924Y-71557292D01*
X80219924Y-71557292D02*
X80267543Y-71462054D01*
X80267543Y-71462054D02*
X80315162Y-71271578D01*
X80315162Y-71271578D02*
X80315162Y-71033483D01*
X80315162Y-71033483D02*
X80267543Y-70843007D01*
X80267543Y-70843007D02*
X80219924Y-70747769D01*
X80219924Y-70747769D02*
X80172305Y-70700150D01*
X80172305Y-70700150D02*
X80077067Y-70652531D01*
X79315162Y-71652531D02*
X79315162Y-70985864D01*
X79315162Y-71081102D02*
X79267543Y-71033483D01*
X79267543Y-71033483D02*
X79172305Y-70985864D01*
X79172305Y-70985864D02*
X79029448Y-70985864D01*
X79029448Y-70985864D02*
X78934210Y-71033483D01*
X78934210Y-71033483D02*
X78886591Y-71128721D01*
X78886591Y-71128721D02*
X78886591Y-71652531D01*
X78886591Y-71128721D02*
X78838972Y-71033483D01*
X78838972Y-71033483D02*
X78743734Y-70985864D01*
X78743734Y-70985864D02*
X78600877Y-70985864D01*
X78600877Y-70985864D02*
X78505638Y-71033483D01*
X78505638Y-71033483D02*
X78458019Y-71128721D01*
X78458019Y-71128721D02*
X78458019Y-71652531D01*
X77981829Y-71652531D02*
X77981829Y-70985864D01*
X77981829Y-71081102D02*
X77934210Y-71033483D01*
X77934210Y-71033483D02*
X77838972Y-70985864D01*
X77838972Y-70985864D02*
X77696115Y-70985864D01*
X77696115Y-70985864D02*
X77600877Y-71033483D01*
X77600877Y-71033483D02*
X77553258Y-71128721D01*
X77553258Y-71128721D02*
X77553258Y-71652531D01*
X77553258Y-71128721D02*
X77505639Y-71033483D01*
X77505639Y-71033483D02*
X77410401Y-70985864D01*
X77410401Y-70985864D02*
X77267544Y-70985864D01*
X77267544Y-70985864D02*
X77172305Y-71033483D01*
X77172305Y-71033483D02*
X77124686Y-71128721D01*
X77124686Y-71128721D02*
X77124686Y-71652531D01*
X75886591Y-71652531D02*
X75886591Y-70652531D01*
X75886591Y-70652531D02*
X75553258Y-71366816D01*
X75553258Y-71366816D02*
X75219925Y-70652531D01*
X75219925Y-70652531D02*
X75219925Y-71652531D01*
X74315163Y-70985864D02*
X74315163Y-71652531D01*
X74553258Y-70604912D02*
X74791353Y-71319197D01*
X74791353Y-71319197D02*
X74172306Y-71319197D01*
X73077067Y-71604912D02*
X72934210Y-71652531D01*
X72934210Y-71652531D02*
X72696115Y-71652531D01*
X72696115Y-71652531D02*
X72600877Y-71604912D01*
X72600877Y-71604912D02*
X72553258Y-71557292D01*
X72553258Y-71557292D02*
X72505639Y-71462054D01*
X72505639Y-71462054D02*
X72505639Y-71366816D01*
X72505639Y-71366816D02*
X72553258Y-71271578D01*
X72553258Y-71271578D02*
X72600877Y-71223959D01*
X72600877Y-71223959D02*
X72696115Y-71176340D01*
X72696115Y-71176340D02*
X72886591Y-71128721D01*
X72886591Y-71128721D02*
X72981829Y-71081102D01*
X72981829Y-71081102D02*
X73029448Y-71033483D01*
X73029448Y-71033483D02*
X73077067Y-70938245D01*
X73077067Y-70938245D02*
X73077067Y-70843007D01*
X73077067Y-70843007D02*
X73029448Y-70747769D01*
X73029448Y-70747769D02*
X72981829Y-70700150D01*
X72981829Y-70700150D02*
X72886591Y-70652531D01*
X72886591Y-70652531D02*
X72648496Y-70652531D01*
X72648496Y-70652531D02*
X72505639Y-70700150D01*
X72219924Y-70985864D02*
X71838972Y-70985864D01*
X72077067Y-70652531D02*
X72077067Y-71509673D01*
X72077067Y-71509673D02*
X72029448Y-71604912D01*
X72029448Y-71604912D02*
X71934210Y-71652531D01*
X71934210Y-71652531D02*
X71838972Y-71652531D01*
X71077067Y-71652531D02*
X71077067Y-71128721D01*
X71077067Y-71128721D02*
X71124686Y-71033483D01*
X71124686Y-71033483D02*
X71219924Y-70985864D01*
X71219924Y-70985864D02*
X71410400Y-70985864D01*
X71410400Y-70985864D02*
X71505638Y-71033483D01*
X71077067Y-71604912D02*
X71172305Y-71652531D01*
X71172305Y-71652531D02*
X71410400Y-71652531D01*
X71410400Y-71652531D02*
X71505638Y-71604912D01*
X71505638Y-71604912D02*
X71553257Y-71509673D01*
X71553257Y-71509673D02*
X71553257Y-71414435D01*
X71553257Y-71414435D02*
X71505638Y-71319197D01*
X71505638Y-71319197D02*
X71410400Y-71271578D01*
X71410400Y-71271578D02*
X71172305Y-71271578D01*
X71172305Y-71271578D02*
X71077067Y-71223959D01*
X70600876Y-70985864D02*
X70600876Y-71652531D01*
X70600876Y-71081102D02*
X70553257Y-71033483D01*
X70553257Y-71033483D02*
X70458019Y-70985864D01*
X70458019Y-70985864D02*
X70315162Y-70985864D01*
X70315162Y-70985864D02*
X70219924Y-71033483D01*
X70219924Y-71033483D02*
X70172305Y-71128721D01*
X70172305Y-71128721D02*
X70172305Y-71652531D01*
X69267543Y-71652531D02*
X69267543Y-70652531D01*
X69267543Y-71604912D02*
X69362781Y-71652531D01*
X69362781Y-71652531D02*
X69553257Y-71652531D01*
X69553257Y-71652531D02*
X69648495Y-71604912D01*
X69648495Y-71604912D02*
X69696114Y-71557292D01*
X69696114Y-71557292D02*
X69743733Y-71462054D01*
X69743733Y-71462054D02*
X69743733Y-71176340D01*
X69743733Y-71176340D02*
X69696114Y-71081102D01*
X69696114Y-71081102D02*
X69648495Y-71033483D01*
X69648495Y-71033483D02*
X69553257Y-70985864D01*
X69553257Y-70985864D02*
X69362781Y-70985864D01*
X69362781Y-70985864D02*
X69267543Y-71033483D01*
X68648495Y-71652531D02*
X68743733Y-71604912D01*
X68743733Y-71604912D02*
X68791352Y-71557292D01*
X68791352Y-71557292D02*
X68838971Y-71462054D01*
X68838971Y-71462054D02*
X68838971Y-71176340D01*
X68838971Y-71176340D02*
X68791352Y-71081102D01*
X68791352Y-71081102D02*
X68743733Y-71033483D01*
X68743733Y-71033483D02*
X68648495Y-70985864D01*
X68648495Y-70985864D02*
X68505638Y-70985864D01*
X68505638Y-70985864D02*
X68410400Y-71033483D01*
X68410400Y-71033483D02*
X68362781Y-71081102D01*
X68362781Y-71081102D02*
X68315162Y-71176340D01*
X68315162Y-71176340D02*
X68315162Y-71462054D01*
X68315162Y-71462054D02*
X68362781Y-71557292D01*
X68362781Y-71557292D02*
X68410400Y-71604912D01*
X68410400Y-71604912D02*
X68505638Y-71652531D01*
X68505638Y-71652531D02*
X68648495Y-71652531D01*
X68029447Y-70985864D02*
X67648495Y-70985864D01*
X67886590Y-71652531D02*
X67886590Y-70795388D01*
X67886590Y-70795388D02*
X67838971Y-70700150D01*
X67838971Y-70700150D02*
X67743733Y-70652531D01*
X67743733Y-70652531D02*
X67648495Y-70652531D01*
X67458018Y-70985864D02*
X67077066Y-70985864D01*
X67315161Y-71652531D02*
X67315161Y-70795388D01*
X67315161Y-70795388D02*
X67267542Y-70700150D01*
X67267542Y-70700150D02*
X67172304Y-70652531D01*
X67172304Y-70652531D02*
X67077066Y-70652531D01*
X84124687Y-73262475D02*
X84458020Y-72786284D01*
X84696115Y-73262475D02*
X84696115Y-72262475D01*
X84696115Y-72262475D02*
X84315163Y-72262475D01*
X84315163Y-72262475D02*
X84219925Y-72310094D01*
X84219925Y-72310094D02*
X84172306Y-72357713D01*
X84172306Y-72357713D02*
X84124687Y-72452951D01*
X84124687Y-72452951D02*
X84124687Y-72595808D01*
X84124687Y-72595808D02*
X84172306Y-72691046D01*
X84172306Y-72691046D02*
X84219925Y-72738665D01*
X84219925Y-72738665D02*
X84315163Y-72786284D01*
X84315163Y-72786284D02*
X84696115Y-72786284D01*
X83315163Y-73214856D02*
X83410401Y-73262475D01*
X83410401Y-73262475D02*
X83600877Y-73262475D01*
X83600877Y-73262475D02*
X83696115Y-73214856D01*
X83696115Y-73214856D02*
X83743734Y-73119617D01*
X83743734Y-73119617D02*
X83743734Y-72738665D01*
X83743734Y-72738665D02*
X83696115Y-72643427D01*
X83696115Y-72643427D02*
X83600877Y-72595808D01*
X83600877Y-72595808D02*
X83410401Y-72595808D01*
X83410401Y-72595808D02*
X83315163Y-72643427D01*
X83315163Y-72643427D02*
X83267544Y-72738665D01*
X83267544Y-72738665D02*
X83267544Y-72833903D01*
X83267544Y-72833903D02*
X83743734Y-72929141D01*
X82410401Y-72595808D02*
X82410401Y-73595808D01*
X82410401Y-73214856D02*
X82505639Y-73262475D01*
X82505639Y-73262475D02*
X82696115Y-73262475D01*
X82696115Y-73262475D02*
X82791353Y-73214856D01*
X82791353Y-73214856D02*
X82838972Y-73167236D01*
X82838972Y-73167236D02*
X82886591Y-73071998D01*
X82886591Y-73071998D02*
X82886591Y-72786284D01*
X82886591Y-72786284D02*
X82838972Y-72691046D01*
X82838972Y-72691046D02*
X82791353Y-72643427D01*
X82791353Y-72643427D02*
X82696115Y-72595808D01*
X82696115Y-72595808D02*
X82505639Y-72595808D01*
X82505639Y-72595808D02*
X82410401Y-72643427D01*
X81505639Y-72595808D02*
X81505639Y-73262475D01*
X81934210Y-72595808D02*
X81934210Y-73119617D01*
X81934210Y-73119617D02*
X81886591Y-73214856D01*
X81886591Y-73214856D02*
X81791353Y-73262475D01*
X81791353Y-73262475D02*
X81648496Y-73262475D01*
X81648496Y-73262475D02*
X81553258Y-73214856D01*
X81553258Y-73214856D02*
X81505639Y-73167236D01*
X81029448Y-73262475D02*
X81029448Y-72595808D01*
X81029448Y-72262475D02*
X81077067Y-72310094D01*
X81077067Y-72310094D02*
X81029448Y-72357713D01*
X81029448Y-72357713D02*
X80981829Y-72310094D01*
X80981829Y-72310094D02*
X81029448Y-72262475D01*
X81029448Y-72262475D02*
X81029448Y-72357713D01*
X80553258Y-73262475D02*
X80553258Y-72595808D01*
X80553258Y-72786284D02*
X80505639Y-72691046D01*
X80505639Y-72691046D02*
X80458020Y-72643427D01*
X80458020Y-72643427D02*
X80362782Y-72595808D01*
X80362782Y-72595808D02*
X80267544Y-72595808D01*
X79553258Y-73214856D02*
X79648496Y-73262475D01*
X79648496Y-73262475D02*
X79838972Y-73262475D01*
X79838972Y-73262475D02*
X79934210Y-73214856D01*
X79934210Y-73214856D02*
X79981829Y-73119617D01*
X79981829Y-73119617D02*
X79981829Y-72738665D01*
X79981829Y-72738665D02*
X79934210Y-72643427D01*
X79934210Y-72643427D02*
X79838972Y-72595808D01*
X79838972Y-72595808D02*
X79648496Y-72595808D01*
X79648496Y-72595808D02*
X79553258Y-72643427D01*
X79553258Y-72643427D02*
X79505639Y-72738665D01*
X79505639Y-72738665D02*
X79505639Y-72833903D01*
X79505639Y-72833903D02*
X79981829Y-72929141D01*
X79124686Y-73214856D02*
X79029448Y-73262475D01*
X79029448Y-73262475D02*
X78838972Y-73262475D01*
X78838972Y-73262475D02*
X78743734Y-73214856D01*
X78743734Y-73214856D02*
X78696115Y-73119617D01*
X78696115Y-73119617D02*
X78696115Y-73071998D01*
X78696115Y-73071998D02*
X78743734Y-72976760D01*
X78743734Y-72976760D02*
X78838972Y-72929141D01*
X78838972Y-72929141D02*
X78981829Y-72929141D01*
X78981829Y-72929141D02*
X79077067Y-72881522D01*
X79077067Y-72881522D02*
X79124686Y-72786284D01*
X79124686Y-72786284D02*
X79124686Y-72738665D01*
X79124686Y-72738665D02*
X79077067Y-72643427D01*
X79077067Y-72643427D02*
X78981829Y-72595808D01*
X78981829Y-72595808D02*
X78838972Y-72595808D01*
X78838972Y-72595808D02*
X78743734Y-72643427D01*
X77077067Y-73214856D02*
X77172305Y-73262475D01*
X77172305Y-73262475D02*
X77362781Y-73262475D01*
X77362781Y-73262475D02*
X77458019Y-73214856D01*
X77458019Y-73214856D02*
X77505638Y-73167236D01*
X77505638Y-73167236D02*
X77553257Y-73071998D01*
X77553257Y-73071998D02*
X77553257Y-72786284D01*
X77553257Y-72786284D02*
X77505638Y-72691046D01*
X77505638Y-72691046D02*
X77458019Y-72643427D01*
X77458019Y-72643427D02*
X77362781Y-72595808D01*
X77362781Y-72595808D02*
X77172305Y-72595808D01*
X77172305Y-72595808D02*
X77077067Y-72643427D01*
X76505638Y-73262475D02*
X76600876Y-73214856D01*
X76600876Y-73214856D02*
X76648495Y-73167236D01*
X76648495Y-73167236D02*
X76696114Y-73071998D01*
X76696114Y-73071998D02*
X76696114Y-72786284D01*
X76696114Y-72786284D02*
X76648495Y-72691046D01*
X76648495Y-72691046D02*
X76600876Y-72643427D01*
X76600876Y-72643427D02*
X76505638Y-72595808D01*
X76505638Y-72595808D02*
X76362781Y-72595808D01*
X76362781Y-72595808D02*
X76267543Y-72643427D01*
X76267543Y-72643427D02*
X76219924Y-72691046D01*
X76219924Y-72691046D02*
X76172305Y-72786284D01*
X76172305Y-72786284D02*
X76172305Y-73071998D01*
X76172305Y-73071998D02*
X76219924Y-73167236D01*
X76219924Y-73167236D02*
X76267543Y-73214856D01*
X76267543Y-73214856D02*
X76362781Y-73262475D01*
X76362781Y-73262475D02*
X76505638Y-73262475D01*
X75743733Y-73262475D02*
X75743733Y-72595808D01*
X75743733Y-72786284D02*
X75696114Y-72691046D01*
X75696114Y-72691046D02*
X75648495Y-72643427D01*
X75648495Y-72643427D02*
X75553257Y-72595808D01*
X75553257Y-72595808D02*
X75458019Y-72595808D01*
X75124685Y-72595808D02*
X75124685Y-73262475D01*
X75124685Y-72691046D02*
X75077066Y-72643427D01*
X75077066Y-72643427D02*
X74981828Y-72595808D01*
X74981828Y-72595808D02*
X74838971Y-72595808D01*
X74838971Y-72595808D02*
X74743733Y-72643427D01*
X74743733Y-72643427D02*
X74696114Y-72738665D01*
X74696114Y-72738665D02*
X74696114Y-73262475D01*
X73838971Y-73214856D02*
X73934209Y-73262475D01*
X73934209Y-73262475D02*
X74124685Y-73262475D01*
X74124685Y-73262475D02*
X74219923Y-73214856D01*
X74219923Y-73214856D02*
X74267542Y-73119617D01*
X74267542Y-73119617D02*
X74267542Y-72738665D01*
X74267542Y-72738665D02*
X74219923Y-72643427D01*
X74219923Y-72643427D02*
X74124685Y-72595808D01*
X74124685Y-72595808D02*
X73934209Y-72595808D01*
X73934209Y-72595808D02*
X73838971Y-72643427D01*
X73838971Y-72643427D02*
X73791352Y-72738665D01*
X73791352Y-72738665D02*
X73791352Y-72833903D01*
X73791352Y-72833903D02*
X74267542Y-72929141D01*
X73362780Y-73262475D02*
X73362780Y-72595808D01*
X73362780Y-72786284D02*
X73315161Y-72691046D01*
X73315161Y-72691046D02*
X73267542Y-72643427D01*
X73267542Y-72643427D02*
X73172304Y-72595808D01*
X73172304Y-72595808D02*
X73077066Y-72595808D01*
X71981827Y-73262475D02*
X71981827Y-72262475D01*
X71553256Y-73262475D02*
X71553256Y-72738665D01*
X71553256Y-72738665D02*
X71600875Y-72643427D01*
X71600875Y-72643427D02*
X71696113Y-72595808D01*
X71696113Y-72595808D02*
X71838970Y-72595808D01*
X71838970Y-72595808D02*
X71934208Y-72643427D01*
X71934208Y-72643427D02*
X71981827Y-72691046D01*
X70934208Y-73262475D02*
X71029446Y-73214856D01*
X71029446Y-73214856D02*
X71077065Y-73167236D01*
X71077065Y-73167236D02*
X71124684Y-73071998D01*
X71124684Y-73071998D02*
X71124684Y-72786284D01*
X71124684Y-72786284D02*
X71077065Y-72691046D01*
X71077065Y-72691046D02*
X71029446Y-72643427D01*
X71029446Y-72643427D02*
X70934208Y-72595808D01*
X70934208Y-72595808D02*
X70791351Y-72595808D01*
X70791351Y-72595808D02*
X70696113Y-72643427D01*
X70696113Y-72643427D02*
X70648494Y-72691046D01*
X70648494Y-72691046D02*
X70600875Y-72786284D01*
X70600875Y-72786284D02*
X70600875Y-73071998D01*
X70600875Y-73071998D02*
X70648494Y-73167236D01*
X70648494Y-73167236D02*
X70696113Y-73214856D01*
X70696113Y-73214856D02*
X70791351Y-73262475D01*
X70791351Y-73262475D02*
X70934208Y-73262475D01*
X70029446Y-73262475D02*
X70124684Y-73214856D01*
X70124684Y-73214856D02*
X70172303Y-73119617D01*
X70172303Y-73119617D02*
X70172303Y-72262475D01*
X69267541Y-73214856D02*
X69362779Y-73262475D01*
X69362779Y-73262475D02*
X69553255Y-73262475D01*
X69553255Y-73262475D02*
X69648493Y-73214856D01*
X69648493Y-73214856D02*
X69696112Y-73119617D01*
X69696112Y-73119617D02*
X69696112Y-72738665D01*
X69696112Y-72738665D02*
X69648493Y-72643427D01*
X69648493Y-72643427D02*
X69553255Y-72595808D01*
X69553255Y-72595808D02*
X69362779Y-72595808D01*
X69362779Y-72595808D02*
X69267541Y-72643427D01*
X69267541Y-72643427D02*
X69219922Y-72738665D01*
X69219922Y-72738665D02*
X69219922Y-72833903D01*
X69219922Y-72833903D02*
X69696112Y-72929141D01*
X68838969Y-73214856D02*
X68743731Y-73262475D01*
X68743731Y-73262475D02*
X68553255Y-73262475D01*
X68553255Y-73262475D02*
X68458017Y-73214856D01*
X68458017Y-73214856D02*
X68410398Y-73119617D01*
X68410398Y-73119617D02*
X68410398Y-73071998D01*
X68410398Y-73071998D02*
X68458017Y-72976760D01*
X68458017Y-72976760D02*
X68553255Y-72929141D01*
X68553255Y-72929141D02*
X68696112Y-72929141D01*
X68696112Y-72929141D02*
X68791350Y-72881522D01*
X68791350Y-72881522D02*
X68838969Y-72786284D01*
X68838969Y-72786284D02*
X68838969Y-72738665D01*
X68838969Y-72738665D02*
X68791350Y-72643427D01*
X68791350Y-72643427D02*
X68696112Y-72595808D01*
X68696112Y-72595808D02*
X68553255Y-72595808D01*
X68553255Y-72595808D02*
X68458017Y-72643427D01*
X67362778Y-72595808D02*
X66981826Y-72595808D01*
X67219921Y-72262475D02*
X67219921Y-73119617D01*
X67219921Y-73119617D02*
X67172302Y-73214856D01*
X67172302Y-73214856D02*
X67077064Y-73262475D01*
X67077064Y-73262475D02*
X66981826Y-73262475D01*
X66505635Y-73262475D02*
X66600873Y-73214856D01*
X66600873Y-73214856D02*
X66648492Y-73167236D01*
X66648492Y-73167236D02*
X66696111Y-73071998D01*
X66696111Y-73071998D02*
X66696111Y-72786284D01*
X66696111Y-72786284D02*
X66648492Y-72691046D01*
X66648492Y-72691046D02*
X66600873Y-72643427D01*
X66600873Y-72643427D02*
X66505635Y-72595808D01*
X66505635Y-72595808D02*
X66362778Y-72595808D01*
X66362778Y-72595808D02*
X66267540Y-72643427D01*
X66267540Y-72643427D02*
X66219921Y-72691046D01*
X66219921Y-72691046D02*
X66172302Y-72786284D01*
X66172302Y-72786284D02*
X66172302Y-73071998D01*
X66172302Y-73071998D02*
X66219921Y-73167236D01*
X66219921Y-73167236D02*
X66267540Y-73214856D01*
X66267540Y-73214856D02*
X66362778Y-73262475D01*
X66362778Y-73262475D02*
X66505635Y-73262475D01*
X64981825Y-73262475D02*
X64981825Y-72262475D01*
X64981825Y-72643427D02*
X64886587Y-72595808D01*
X64886587Y-72595808D02*
X64696111Y-72595808D01*
X64696111Y-72595808D02*
X64600873Y-72643427D01*
X64600873Y-72643427D02*
X64553254Y-72691046D01*
X64553254Y-72691046D02*
X64505635Y-72786284D01*
X64505635Y-72786284D02*
X64505635Y-73071998D01*
X64505635Y-73071998D02*
X64553254Y-73167236D01*
X64553254Y-73167236D02*
X64600873Y-73214856D01*
X64600873Y-73214856D02*
X64696111Y-73262475D01*
X64696111Y-73262475D02*
X64886587Y-73262475D01*
X64886587Y-73262475D02*
X64981825Y-73214856D01*
X63696111Y-73214856D02*
X63791349Y-73262475D01*
X63791349Y-73262475D02*
X63981825Y-73262475D01*
X63981825Y-73262475D02*
X64077063Y-73214856D01*
X64077063Y-73214856D02*
X64124682Y-73119617D01*
X64124682Y-73119617D02*
X64124682Y-72738665D01*
X64124682Y-72738665D02*
X64077063Y-72643427D01*
X64077063Y-72643427D02*
X63981825Y-72595808D01*
X63981825Y-72595808D02*
X63791349Y-72595808D01*
X63791349Y-72595808D02*
X63696111Y-72643427D01*
X63696111Y-72643427D02*
X63648492Y-72738665D01*
X63648492Y-72738665D02*
X63648492Y-72833903D01*
X63648492Y-72833903D02*
X64124682Y-72929141D01*
X62600872Y-72595808D02*
X62219920Y-72595808D01*
X62458015Y-72262475D02*
X62458015Y-73119617D01*
X62458015Y-73119617D02*
X62410396Y-73214856D01*
X62410396Y-73214856D02*
X62315158Y-73262475D01*
X62315158Y-73262475D02*
X62219920Y-73262475D01*
X61458015Y-73262475D02*
X61458015Y-72738665D01*
X61458015Y-72738665D02*
X61505634Y-72643427D01*
X61505634Y-72643427D02*
X61600872Y-72595808D01*
X61600872Y-72595808D02*
X61791348Y-72595808D01*
X61791348Y-72595808D02*
X61886586Y-72643427D01*
X61458015Y-73214856D02*
X61553253Y-73262475D01*
X61553253Y-73262475D02*
X61791348Y-73262475D01*
X61791348Y-73262475D02*
X61886586Y-73214856D01*
X61886586Y-73214856D02*
X61934205Y-73119617D01*
X61934205Y-73119617D02*
X61934205Y-73024379D01*
X61934205Y-73024379D02*
X61886586Y-72929141D01*
X61886586Y-72929141D02*
X61791348Y-72881522D01*
X61791348Y-72881522D02*
X61553253Y-72881522D01*
X61553253Y-72881522D02*
X61458015Y-72833903D01*
X60981824Y-72595808D02*
X60981824Y-73595808D01*
X60981824Y-72643427D02*
X60886586Y-72595808D01*
X60886586Y-72595808D02*
X60696110Y-72595808D01*
X60696110Y-72595808D02*
X60600872Y-72643427D01*
X60600872Y-72643427D02*
X60553253Y-72691046D01*
X60553253Y-72691046D02*
X60505634Y-72786284D01*
X60505634Y-72786284D02*
X60505634Y-73071998D01*
X60505634Y-73071998D02*
X60553253Y-73167236D01*
X60553253Y-73167236D02*
X60600872Y-73214856D01*
X60600872Y-73214856D02*
X60696110Y-73262475D01*
X60696110Y-73262475D02*
X60886586Y-73262475D01*
X60886586Y-73262475D02*
X60981824Y-73214856D01*
X60077062Y-72595808D02*
X60077062Y-73595808D01*
X60077062Y-72643427D02*
X59981824Y-72595808D01*
X59981824Y-72595808D02*
X59791348Y-72595808D01*
X59791348Y-72595808D02*
X59696110Y-72643427D01*
X59696110Y-72643427D02*
X59648491Y-72691046D01*
X59648491Y-72691046D02*
X59600872Y-72786284D01*
X59600872Y-72786284D02*
X59600872Y-73071998D01*
X59600872Y-73071998D02*
X59648491Y-73167236D01*
X59648491Y-73167236D02*
X59696110Y-73214856D01*
X59696110Y-73214856D02*
X59791348Y-73262475D01*
X59791348Y-73262475D02*
X59981824Y-73262475D01*
X59981824Y-73262475D02*
X60077062Y-73214856D01*
X58791348Y-73214856D02*
X58886586Y-73262475D01*
X58886586Y-73262475D02*
X59077062Y-73262475D01*
X59077062Y-73262475D02*
X59172300Y-73214856D01*
X59172300Y-73214856D02*
X59219919Y-73119617D01*
X59219919Y-73119617D02*
X59219919Y-72738665D01*
X59219919Y-72738665D02*
X59172300Y-72643427D01*
X59172300Y-72643427D02*
X59077062Y-72595808D01*
X59077062Y-72595808D02*
X58886586Y-72595808D01*
X58886586Y-72595808D02*
X58791348Y-72643427D01*
X58791348Y-72643427D02*
X58743729Y-72738665D01*
X58743729Y-72738665D02*
X58743729Y-72833903D01*
X58743729Y-72833903D02*
X59219919Y-72929141D01*
X57886586Y-73262475D02*
X57886586Y-72262475D01*
X57886586Y-73214856D02*
X57981824Y-73262475D01*
X57981824Y-73262475D02*
X58172300Y-73262475D01*
X58172300Y-73262475D02*
X58267538Y-73214856D01*
X58267538Y-73214856D02*
X58315157Y-73167236D01*
X58315157Y-73167236D02*
X58362776Y-73071998D01*
X58362776Y-73071998D02*
X58362776Y-72786284D01*
X58362776Y-72786284D02*
X58315157Y-72691046D01*
X58315157Y-72691046D02*
X58267538Y-72643427D01*
X58267538Y-72643427D02*
X58172300Y-72595808D01*
X58172300Y-72595808D02*
X57981824Y-72595808D01*
X57981824Y-72595808D02*
X57886586Y-72643427D01*
X56648490Y-73262475D02*
X56648490Y-72262475D01*
X56648490Y-72262475D02*
X56315157Y-72976760D01*
X56315157Y-72976760D02*
X55981824Y-72262475D01*
X55981824Y-72262475D02*
X55981824Y-73262475D01*
X55077062Y-72595808D02*
X55077062Y-73262475D01*
X55315157Y-72214856D02*
X55553252Y-72929141D01*
X55553252Y-72929141D02*
X54934205Y-72929141D01*
X54648490Y-73262475D02*
X54124681Y-72595808D01*
X54648490Y-72595808D02*
X54124681Y-73262475D01*
X53553252Y-72262475D02*
X53458014Y-72262475D01*
X53458014Y-72262475D02*
X53362776Y-72310094D01*
X53362776Y-72310094D02*
X53315157Y-72357713D01*
X53315157Y-72357713D02*
X53267538Y-72452951D01*
X53267538Y-72452951D02*
X53219919Y-72643427D01*
X53219919Y-72643427D02*
X53219919Y-72881522D01*
X53219919Y-72881522D02*
X53267538Y-73071998D01*
X53267538Y-73071998D02*
X53315157Y-73167236D01*
X53315157Y-73167236D02*
X53362776Y-73214856D01*
X53362776Y-73214856D02*
X53458014Y-73262475D01*
X53458014Y-73262475D02*
X53553252Y-73262475D01*
X53553252Y-73262475D02*
X53648490Y-73214856D01*
X53648490Y-73214856D02*
X53696109Y-73167236D01*
X53696109Y-73167236D02*
X53743728Y-73071998D01*
X53743728Y-73071998D02*
X53791347Y-72881522D01*
X53791347Y-72881522D02*
X53791347Y-72643427D01*
X53791347Y-72643427D02*
X53743728Y-72452951D01*
X53743728Y-72452951D02*
X53696109Y-72357713D01*
X53696109Y-72357713D02*
X53648490Y-72310094D01*
X53648490Y-72310094D02*
X53553252Y-72262475D01*
X52791347Y-73167236D02*
X52743728Y-73214856D01*
X52743728Y-73214856D02*
X52791347Y-73262475D01*
X52791347Y-73262475D02*
X52838966Y-73214856D01*
X52838966Y-73214856D02*
X52791347Y-73167236D01*
X52791347Y-73167236D02*
X52791347Y-73262475D01*
X52410395Y-72262475D02*
X51743729Y-72262475D01*
X51743729Y-72262475D02*
X52172300Y-73262475D01*
X84696115Y-73872419D02*
X84696115Y-74681942D01*
X84696115Y-74681942D02*
X84648496Y-74777180D01*
X84648496Y-74777180D02*
X84600877Y-74824800D01*
X84600877Y-74824800D02*
X84505639Y-74872419D01*
X84505639Y-74872419D02*
X84315163Y-74872419D01*
X84315163Y-74872419D02*
X84219925Y-74824800D01*
X84219925Y-74824800D02*
X84172306Y-74777180D01*
X84172306Y-74777180D02*
X84124687Y-74681942D01*
X84124687Y-74681942D02*
X84124687Y-73872419D01*
X83696115Y-74824800D02*
X83600877Y-74872419D01*
X83600877Y-74872419D02*
X83410401Y-74872419D01*
X83410401Y-74872419D02*
X83315163Y-74824800D01*
X83315163Y-74824800D02*
X83267544Y-74729561D01*
X83267544Y-74729561D02*
X83267544Y-74681942D01*
X83267544Y-74681942D02*
X83315163Y-74586704D01*
X83315163Y-74586704D02*
X83410401Y-74539085D01*
X83410401Y-74539085D02*
X83553258Y-74539085D01*
X83553258Y-74539085D02*
X83648496Y-74491466D01*
X83648496Y-74491466D02*
X83696115Y-74396228D01*
X83696115Y-74396228D02*
X83696115Y-74348609D01*
X83696115Y-74348609D02*
X83648496Y-74253371D01*
X83648496Y-74253371D02*
X83553258Y-74205752D01*
X83553258Y-74205752D02*
X83410401Y-74205752D01*
X83410401Y-74205752D02*
X83315163Y-74253371D01*
X82458020Y-74824800D02*
X82553258Y-74872419D01*
X82553258Y-74872419D02*
X82743734Y-74872419D01*
X82743734Y-74872419D02*
X82838972Y-74824800D01*
X82838972Y-74824800D02*
X82886591Y-74729561D01*
X82886591Y-74729561D02*
X82886591Y-74348609D01*
X82886591Y-74348609D02*
X82838972Y-74253371D01*
X82838972Y-74253371D02*
X82743734Y-74205752D01*
X82743734Y-74205752D02*
X82553258Y-74205752D01*
X82553258Y-74205752D02*
X82458020Y-74253371D01*
X82458020Y-74253371D02*
X82410401Y-74348609D01*
X82410401Y-74348609D02*
X82410401Y-74443847D01*
X82410401Y-74443847D02*
X82886591Y-74539085D01*
X81315162Y-73872419D02*
X81077067Y-74872419D01*
X81077067Y-74872419D02*
X80886591Y-74158133D01*
X80886591Y-74158133D02*
X80696115Y-74872419D01*
X80696115Y-74872419D02*
X80458020Y-73872419D01*
X79648496Y-74205752D02*
X79648496Y-74872419D01*
X80077067Y-74205752D02*
X80077067Y-74729561D01*
X80077067Y-74729561D02*
X80029448Y-74824800D01*
X80029448Y-74824800D02*
X79934210Y-74872419D01*
X79934210Y-74872419D02*
X79791353Y-74872419D01*
X79791353Y-74872419D02*
X79696115Y-74824800D01*
X79696115Y-74824800D02*
X79648496Y-74777180D01*
X78791353Y-74824800D02*
X78886591Y-74872419D01*
X78886591Y-74872419D02*
X79077067Y-74872419D01*
X79077067Y-74872419D02*
X79172305Y-74824800D01*
X79172305Y-74824800D02*
X79219924Y-74729561D01*
X79219924Y-74729561D02*
X79219924Y-74348609D01*
X79219924Y-74348609D02*
X79172305Y-74253371D01*
X79172305Y-74253371D02*
X79077067Y-74205752D01*
X79077067Y-74205752D02*
X78886591Y-74205752D01*
X78886591Y-74205752D02*
X78791353Y-74253371D01*
X78791353Y-74253371D02*
X78743734Y-74348609D01*
X78743734Y-74348609D02*
X78743734Y-74443847D01*
X78743734Y-74443847D02*
X79219924Y-74539085D01*
X78315162Y-74872419D02*
X78315162Y-74205752D01*
X78315162Y-74396228D02*
X78267543Y-74300990D01*
X78267543Y-74300990D02*
X78219924Y-74253371D01*
X78219924Y-74253371D02*
X78124686Y-74205752D01*
X78124686Y-74205752D02*
X78029448Y-74205752D01*
X77838971Y-74205752D02*
X77458019Y-74205752D01*
X77696114Y-73872419D02*
X77696114Y-74729561D01*
X77696114Y-74729561D02*
X77648495Y-74824800D01*
X77648495Y-74824800D02*
X77553257Y-74872419D01*
X77553257Y-74872419D02*
X77458019Y-74872419D01*
X77124685Y-74872419D02*
X77124685Y-73872419D01*
X76696114Y-74872419D02*
X76696114Y-74348609D01*
X76696114Y-74348609D02*
X76743733Y-74253371D01*
X76743733Y-74253371D02*
X76838971Y-74205752D01*
X76838971Y-74205752D02*
X76981828Y-74205752D01*
X76981828Y-74205752D02*
X77077066Y-74253371D01*
X77077066Y-74253371D02*
X77124685Y-74300990D01*
X75458018Y-74348609D02*
X75124685Y-74348609D01*
X74981828Y-74872419D02*
X75458018Y-74872419D01*
X75458018Y-74872419D02*
X75458018Y-73872419D01*
X75458018Y-73872419D02*
X74981828Y-73872419D01*
X74410399Y-74872419D02*
X74505637Y-74824800D01*
X74505637Y-74824800D02*
X74553256Y-74729561D01*
X74553256Y-74729561D02*
X74553256Y-73872419D01*
X73648494Y-74824800D02*
X73743732Y-74872419D01*
X73743732Y-74872419D02*
X73934208Y-74872419D01*
X73934208Y-74872419D02*
X74029446Y-74824800D01*
X74029446Y-74824800D02*
X74077065Y-74729561D01*
X74077065Y-74729561D02*
X74077065Y-74348609D01*
X74077065Y-74348609D02*
X74029446Y-74253371D01*
X74029446Y-74253371D02*
X73934208Y-74205752D01*
X73934208Y-74205752D02*
X73743732Y-74205752D01*
X73743732Y-74205752D02*
X73648494Y-74253371D01*
X73648494Y-74253371D02*
X73600875Y-74348609D01*
X73600875Y-74348609D02*
X73600875Y-74443847D01*
X73600875Y-74443847D02*
X74077065Y-74539085D01*
X73172303Y-74872419D02*
X73172303Y-73872419D01*
X73077065Y-74491466D02*
X72791351Y-74872419D01*
X72791351Y-74205752D02*
X73172303Y-74586704D01*
X72505636Y-74205752D02*
X72124684Y-74205752D01*
X72362779Y-73872419D02*
X72362779Y-74729561D01*
X72362779Y-74729561D02*
X72315160Y-74824800D01*
X72315160Y-74824800D02*
X72219922Y-74872419D01*
X72219922Y-74872419D02*
X72124684Y-74872419D01*
X71791350Y-74872419D02*
X71791350Y-74205752D01*
X71791350Y-74396228D02*
X71743731Y-74300990D01*
X71743731Y-74300990D02*
X71696112Y-74253371D01*
X71696112Y-74253371D02*
X71600874Y-74205752D01*
X71600874Y-74205752D02*
X71505636Y-74205752D01*
X71029445Y-74872419D02*
X71124683Y-74824800D01*
X71124683Y-74824800D02*
X71172302Y-74777180D01*
X71172302Y-74777180D02*
X71219921Y-74681942D01*
X71219921Y-74681942D02*
X71219921Y-74396228D01*
X71219921Y-74396228D02*
X71172302Y-74300990D01*
X71172302Y-74300990D02*
X71124683Y-74253371D01*
X71124683Y-74253371D02*
X71029445Y-74205752D01*
X71029445Y-74205752D02*
X70886588Y-74205752D01*
X70886588Y-74205752D02*
X70791350Y-74253371D01*
X70791350Y-74253371D02*
X70743731Y-74300990D01*
X70743731Y-74300990D02*
X70696112Y-74396228D01*
X70696112Y-74396228D02*
X70696112Y-74681942D01*
X70696112Y-74681942D02*
X70743731Y-74777180D01*
X70743731Y-74777180D02*
X70791350Y-74824800D01*
X70791350Y-74824800D02*
X70886588Y-74872419D01*
X70886588Y-74872419D02*
X71029445Y-74872419D01*
X70267540Y-74205752D02*
X70267540Y-74872419D01*
X70267540Y-74300990D02*
X70219921Y-74253371D01*
X70219921Y-74253371D02*
X70124683Y-74205752D01*
X70124683Y-74205752D02*
X69981826Y-74205752D01*
X69981826Y-74205752D02*
X69886588Y-74253371D01*
X69886588Y-74253371D02*
X69838969Y-74348609D01*
X69838969Y-74348609D02*
X69838969Y-74872419D01*
X69362778Y-74872419D02*
X69362778Y-74205752D01*
X69362778Y-73872419D02*
X69410397Y-73920038D01*
X69410397Y-73920038D02*
X69362778Y-73967657D01*
X69362778Y-73967657D02*
X69315159Y-73920038D01*
X69315159Y-73920038D02*
X69362778Y-73872419D01*
X69362778Y-73872419D02*
X69362778Y-73967657D01*
X68886588Y-74872419D02*
X68886588Y-73872419D01*
X68791350Y-74491466D02*
X68505636Y-74872419D01*
X68505636Y-74205752D02*
X68886588Y-74586704D01*
X66886588Y-73872419D02*
X67077064Y-73872419D01*
X67077064Y-73872419D02*
X67172302Y-73920038D01*
X67172302Y-73920038D02*
X67219921Y-73967657D01*
X67219921Y-73967657D02*
X67315159Y-74110514D01*
X67315159Y-74110514D02*
X67362778Y-74300990D01*
X67362778Y-74300990D02*
X67362778Y-74681942D01*
X67362778Y-74681942D02*
X67315159Y-74777180D01*
X67315159Y-74777180D02*
X67267540Y-74824800D01*
X67267540Y-74824800D02*
X67172302Y-74872419D01*
X67172302Y-74872419D02*
X66981826Y-74872419D01*
X66981826Y-74872419D02*
X66886588Y-74824800D01*
X66886588Y-74824800D02*
X66838969Y-74777180D01*
X66838969Y-74777180D02*
X66791350Y-74681942D01*
X66791350Y-74681942D02*
X66791350Y-74443847D01*
X66791350Y-74443847D02*
X66838969Y-74348609D01*
X66838969Y-74348609D02*
X66886588Y-74300990D01*
X66886588Y-74300990D02*
X66981826Y-74253371D01*
X66981826Y-74253371D02*
X67172302Y-74253371D01*
X67172302Y-74253371D02*
X67267540Y-74300990D01*
X67267540Y-74300990D02*
X67315159Y-74348609D01*
X67315159Y-74348609D02*
X67362778Y-74443847D01*
X65838969Y-74872419D02*
X66410397Y-74872419D01*
X66124683Y-74872419D02*
X66124683Y-73872419D01*
X66124683Y-73872419D02*
X66219921Y-74015276D01*
X66219921Y-74015276D02*
X66315159Y-74110514D01*
X66315159Y-74110514D02*
X66410397Y-74158133D01*
X64934207Y-73872419D02*
X65410397Y-73872419D01*
X65410397Y-73872419D02*
X65458016Y-74348609D01*
X65458016Y-74348609D02*
X65410397Y-74300990D01*
X65410397Y-74300990D02*
X65315159Y-74253371D01*
X65315159Y-74253371D02*
X65077064Y-74253371D01*
X65077064Y-74253371D02*
X64981826Y-74300990D01*
X64981826Y-74300990D02*
X64934207Y-74348609D01*
X64934207Y-74348609D02*
X64886588Y-74443847D01*
X64886588Y-74443847D02*
X64886588Y-74681942D01*
X64886588Y-74681942D02*
X64934207Y-74777180D01*
X64934207Y-74777180D02*
X64981826Y-74824800D01*
X64981826Y-74824800D02*
X65077064Y-74872419D01*
X65077064Y-74872419D02*
X65315159Y-74872419D01*
X65315159Y-74872419D02*
X65410397Y-74824800D01*
X65410397Y-74824800D02*
X65458016Y-74777180D01*
X64267540Y-73872419D02*
X64172302Y-73872419D01*
X64172302Y-73872419D02*
X64077064Y-73920038D01*
X64077064Y-73920038D02*
X64029445Y-73967657D01*
X64029445Y-73967657D02*
X63981826Y-74062895D01*
X63981826Y-74062895D02*
X63934207Y-74253371D01*
X63934207Y-74253371D02*
X63934207Y-74491466D01*
X63934207Y-74491466D02*
X63981826Y-74681942D01*
X63981826Y-74681942D02*
X64029445Y-74777180D01*
X64029445Y-74777180D02*
X64077064Y-74824800D01*
X64077064Y-74824800D02*
X64172302Y-74872419D01*
X64172302Y-74872419D02*
X64267540Y-74872419D01*
X64267540Y-74872419D02*
X64362778Y-74824800D01*
X64362778Y-74824800D02*
X64410397Y-74777180D01*
X64410397Y-74777180D02*
X64458016Y-74681942D01*
X64458016Y-74681942D02*
X64505635Y-74491466D01*
X64505635Y-74491466D02*
X64505635Y-74253371D01*
X64505635Y-74253371D02*
X64458016Y-74062895D01*
X64458016Y-74062895D02*
X64410397Y-73967657D01*
X64410397Y-73967657D02*
X64362778Y-73920038D01*
X64362778Y-73920038D02*
X64267540Y-73872419D01*
X63315159Y-73872419D02*
X63219921Y-73872419D01*
X63219921Y-73872419D02*
X63124683Y-73920038D01*
X63124683Y-73920038D02*
X63077064Y-73967657D01*
X63077064Y-73967657D02*
X63029445Y-74062895D01*
X63029445Y-74062895D02*
X62981826Y-74253371D01*
X62981826Y-74253371D02*
X62981826Y-74491466D01*
X62981826Y-74491466D02*
X63029445Y-74681942D01*
X63029445Y-74681942D02*
X63077064Y-74777180D01*
X63077064Y-74777180D02*
X63124683Y-74824800D01*
X63124683Y-74824800D02*
X63219921Y-74872419D01*
X63219921Y-74872419D02*
X63315159Y-74872419D01*
X63315159Y-74872419D02*
X63410397Y-74824800D01*
X63410397Y-74824800D02*
X63458016Y-74777180D01*
X63458016Y-74777180D02*
X63505635Y-74681942D01*
X63505635Y-74681942D02*
X63553254Y-74491466D01*
X63553254Y-74491466D02*
X63553254Y-74253371D01*
X63553254Y-74253371D02*
X63505635Y-74062895D01*
X63505635Y-74062895D02*
X63458016Y-73967657D01*
X63458016Y-73967657D02*
X63410397Y-73920038D01*
X63410397Y-73920038D02*
X63315159Y-73872419D01*
X62410397Y-74300990D02*
X62505635Y-74253371D01*
X62505635Y-74253371D02*
X62553254Y-74205752D01*
X62553254Y-74205752D02*
X62600873Y-74110514D01*
X62600873Y-74110514D02*
X62600873Y-74062895D01*
X62600873Y-74062895D02*
X62553254Y-73967657D01*
X62553254Y-73967657D02*
X62505635Y-73920038D01*
X62505635Y-73920038D02*
X62410397Y-73872419D01*
X62410397Y-73872419D02*
X62219921Y-73872419D01*
X62219921Y-73872419D02*
X62124683Y-73920038D01*
X62124683Y-73920038D02*
X62077064Y-73967657D01*
X62077064Y-73967657D02*
X62029445Y-74062895D01*
X62029445Y-74062895D02*
X62029445Y-74110514D01*
X62029445Y-74110514D02*
X62077064Y-74205752D01*
X62077064Y-74205752D02*
X62124683Y-74253371D01*
X62124683Y-74253371D02*
X62219921Y-74300990D01*
X62219921Y-74300990D02*
X62410397Y-74300990D01*
X62410397Y-74300990D02*
X62505635Y-74348609D01*
X62505635Y-74348609D02*
X62553254Y-74396228D01*
X62553254Y-74396228D02*
X62600873Y-74491466D01*
X62600873Y-74491466D02*
X62600873Y-74681942D01*
X62600873Y-74681942D02*
X62553254Y-74777180D01*
X62553254Y-74777180D02*
X62505635Y-74824800D01*
X62505635Y-74824800D02*
X62410397Y-74872419D01*
X62410397Y-74872419D02*
X62219921Y-74872419D01*
X62219921Y-74872419D02*
X62124683Y-74824800D01*
X62124683Y-74824800D02*
X62077064Y-74777180D01*
X62077064Y-74777180D02*
X62029445Y-74681942D01*
X62029445Y-74681942D02*
X62029445Y-74491466D01*
X62029445Y-74491466D02*
X62077064Y-74396228D01*
X62077064Y-74396228D02*
X62124683Y-74348609D01*
X62124683Y-74348609D02*
X62219921Y-74300990D01*
X61077064Y-74872419D02*
X61648492Y-74872419D01*
X61362778Y-74872419D02*
X61362778Y-73872419D01*
X61362778Y-73872419D02*
X61458016Y-74015276D01*
X61458016Y-74015276D02*
X61553254Y-74110514D01*
X61553254Y-74110514D02*
X61648492Y-74158133D01*
X60743730Y-73872419D02*
X60124683Y-73872419D01*
X60124683Y-73872419D02*
X60458016Y-74253371D01*
X60458016Y-74253371D02*
X60315159Y-74253371D01*
X60315159Y-74253371D02*
X60219921Y-74300990D01*
X60219921Y-74300990D02*
X60172302Y-74348609D01*
X60172302Y-74348609D02*
X60124683Y-74443847D01*
X60124683Y-74443847D02*
X60124683Y-74681942D01*
X60124683Y-74681942D02*
X60172302Y-74777180D01*
X60172302Y-74777180D02*
X60219921Y-74824800D01*
X60219921Y-74824800D02*
X60315159Y-74872419D01*
X60315159Y-74872419D02*
X60600873Y-74872419D01*
X60600873Y-74872419D02*
X60696111Y-74824800D01*
X60696111Y-74824800D02*
X60743730Y-74777180D01*
X59553254Y-74300990D02*
X59648492Y-74253371D01*
X59648492Y-74253371D02*
X59696111Y-74205752D01*
X59696111Y-74205752D02*
X59743730Y-74110514D01*
X59743730Y-74110514D02*
X59743730Y-74062895D01*
X59743730Y-74062895D02*
X59696111Y-73967657D01*
X59696111Y-73967657D02*
X59648492Y-73920038D01*
X59648492Y-73920038D02*
X59553254Y-73872419D01*
X59553254Y-73872419D02*
X59362778Y-73872419D01*
X59362778Y-73872419D02*
X59267540Y-73920038D01*
X59267540Y-73920038D02*
X59219921Y-73967657D01*
X59219921Y-73967657D02*
X59172302Y-74062895D01*
X59172302Y-74062895D02*
X59172302Y-74110514D01*
X59172302Y-74110514D02*
X59219921Y-74205752D01*
X59219921Y-74205752D02*
X59267540Y-74253371D01*
X59267540Y-74253371D02*
X59362778Y-74300990D01*
X59362778Y-74300990D02*
X59553254Y-74300990D01*
X59553254Y-74300990D02*
X59648492Y-74348609D01*
X59648492Y-74348609D02*
X59696111Y-74396228D01*
X59696111Y-74396228D02*
X59743730Y-74491466D01*
X59743730Y-74491466D02*
X59743730Y-74681942D01*
X59743730Y-74681942D02*
X59696111Y-74777180D01*
X59696111Y-74777180D02*
X59648492Y-74824800D01*
X59648492Y-74824800D02*
X59553254Y-74872419D01*
X59553254Y-74872419D02*
X59362778Y-74872419D01*
X59362778Y-74872419D02*
X59267540Y-74824800D01*
X59267540Y-74824800D02*
X59219921Y-74777180D01*
X59219921Y-74777180D02*
X59172302Y-74681942D01*
X59172302Y-74681942D02*
X59172302Y-74491466D01*
X59172302Y-74491466D02*
X59219921Y-74396228D01*
X59219921Y-74396228D02*
X59267540Y-74348609D01*
X59267540Y-74348609D02*
X59362778Y-74300990D01*
X58791349Y-73967657D02*
X58743730Y-73920038D01*
X58743730Y-73920038D02*
X58648492Y-73872419D01*
X58648492Y-73872419D02*
X58410397Y-73872419D01*
X58410397Y-73872419D02*
X58315159Y-73920038D01*
X58315159Y-73920038D02*
X58267540Y-73967657D01*
X58267540Y-73967657D02*
X58219921Y-74062895D01*
X58219921Y-74062895D02*
X58219921Y-74158133D01*
X58219921Y-74158133D02*
X58267540Y-74300990D01*
X58267540Y-74300990D02*
X58838968Y-74872419D01*
X58838968Y-74872419D02*
X58219921Y-74872419D01*
X57838968Y-73967657D02*
X57791349Y-73920038D01*
X57791349Y-73920038D02*
X57696111Y-73872419D01*
X57696111Y-73872419D02*
X57458016Y-73872419D01*
X57458016Y-73872419D02*
X57362778Y-73920038D01*
X57362778Y-73920038D02*
X57315159Y-73967657D01*
X57315159Y-73967657D02*
X57267540Y-74062895D01*
X57267540Y-74062895D02*
X57267540Y-74158133D01*
X57267540Y-74158133D02*
X57315159Y-74300990D01*
X57315159Y-74300990D02*
X57886587Y-74872419D01*
X57886587Y-74872419D02*
X57267540Y-74872419D01*
X56315159Y-74872419D02*
X56886587Y-74872419D01*
X56600873Y-74872419D02*
X56600873Y-73872419D01*
X56600873Y-73872419D02*
X56696111Y-74015276D01*
X56696111Y-74015276D02*
X56791349Y-74110514D01*
X56791349Y-74110514D02*
X56886587Y-74158133D01*
X8409800Y-19256265D02*
X8457419Y-19399122D01*
X8457419Y-19399122D02*
X8457419Y-19637217D01*
X8457419Y-19637217D02*
X8409800Y-19732455D01*
X8409800Y-19732455D02*
X8362180Y-19780074D01*
X8362180Y-19780074D02*
X8266942Y-19827693D01*
X8266942Y-19827693D02*
X8171704Y-19827693D01*
X8171704Y-19827693D02*
X8076466Y-19780074D01*
X8076466Y-19780074D02*
X8028847Y-19732455D01*
X8028847Y-19732455D02*
X7981228Y-19637217D01*
X7981228Y-19637217D02*
X7933609Y-19446741D01*
X7933609Y-19446741D02*
X7885990Y-19351503D01*
X7885990Y-19351503D02*
X7838371Y-19303884D01*
X7838371Y-19303884D02*
X7743133Y-19256265D01*
X7743133Y-19256265D02*
X7647895Y-19256265D01*
X7647895Y-19256265D02*
X7552657Y-19303884D01*
X7552657Y-19303884D02*
X7505038Y-19351503D01*
X7505038Y-19351503D02*
X7457419Y-19446741D01*
X7457419Y-19446741D02*
X7457419Y-19684836D01*
X7457419Y-19684836D02*
X7505038Y-19827693D01*
X8457419Y-20256265D02*
X7457419Y-20256265D01*
X7933609Y-20256265D02*
X7933609Y-20827693D01*
X8457419Y-20827693D02*
X7457419Y-20827693D01*
X8457419Y-21303884D02*
X7457419Y-21303884D01*
X7933609Y-21780074D02*
X7933609Y-22113407D01*
X8457419Y-22256264D02*
X8457419Y-21780074D01*
X8457419Y-21780074D02*
X7457419Y-21780074D01*
X7457419Y-21780074D02*
X7457419Y-22256264D01*
X8457419Y-23161026D02*
X8457419Y-22684836D01*
X8457419Y-22684836D02*
X7457419Y-22684836D01*
X8457419Y-23494360D02*
X7457419Y-23494360D01*
X7457419Y-23494360D02*
X7457419Y-23732455D01*
X7457419Y-23732455D02*
X7505038Y-23875312D01*
X7505038Y-23875312D02*
X7600276Y-23970550D01*
X7600276Y-23970550D02*
X7695514Y-24018169D01*
X7695514Y-24018169D02*
X7885990Y-24065788D01*
X7885990Y-24065788D02*
X8028847Y-24065788D01*
X8028847Y-24065788D02*
X8219323Y-24018169D01*
X8219323Y-24018169D02*
X8314561Y-23970550D01*
X8314561Y-23970550D02*
X8409800Y-23875312D01*
X8409800Y-23875312D02*
X8457419Y-23732455D01*
X8457419Y-23732455D02*
X8457419Y-23494360D01*
X5862180Y-19875312D02*
X5909800Y-19827693D01*
X5909800Y-19827693D02*
X5957419Y-19684836D01*
X5957419Y-19684836D02*
X5957419Y-19589598D01*
X5957419Y-19589598D02*
X5909800Y-19446741D01*
X5909800Y-19446741D02*
X5814561Y-19351503D01*
X5814561Y-19351503D02*
X5719323Y-19303884D01*
X5719323Y-19303884D02*
X5528847Y-19256265D01*
X5528847Y-19256265D02*
X5385990Y-19256265D01*
X5385990Y-19256265D02*
X5195514Y-19303884D01*
X5195514Y-19303884D02*
X5100276Y-19351503D01*
X5100276Y-19351503D02*
X5005038Y-19446741D01*
X5005038Y-19446741D02*
X4957419Y-19589598D01*
X4957419Y-19589598D02*
X4957419Y-19684836D01*
X4957419Y-19684836D02*
X5005038Y-19827693D01*
X5005038Y-19827693D02*
X5052657Y-19875312D01*
X5957419Y-20303884D02*
X4957419Y-20303884D01*
X5433609Y-20303884D02*
X5433609Y-20875312D01*
X5957419Y-20875312D02*
X4957419Y-20875312D01*
X5671704Y-21303884D02*
X5671704Y-21780074D01*
X5957419Y-21208646D02*
X4957419Y-21541979D01*
X4957419Y-21541979D02*
X5957419Y-21875312D01*
X5909800Y-22161027D02*
X5957419Y-22303884D01*
X5957419Y-22303884D02*
X5957419Y-22541979D01*
X5957419Y-22541979D02*
X5909800Y-22637217D01*
X5909800Y-22637217D02*
X5862180Y-22684836D01*
X5862180Y-22684836D02*
X5766942Y-22732455D01*
X5766942Y-22732455D02*
X5671704Y-22732455D01*
X5671704Y-22732455D02*
X5576466Y-22684836D01*
X5576466Y-22684836D02*
X5528847Y-22637217D01*
X5528847Y-22637217D02*
X5481228Y-22541979D01*
X5481228Y-22541979D02*
X5433609Y-22351503D01*
X5433609Y-22351503D02*
X5385990Y-22256265D01*
X5385990Y-22256265D02*
X5338371Y-22208646D01*
X5338371Y-22208646D02*
X5243133Y-22161027D01*
X5243133Y-22161027D02*
X5147895Y-22161027D01*
X5147895Y-22161027D02*
X5052657Y-22208646D01*
X5052657Y-22208646D02*
X5005038Y-22256265D01*
X5005038Y-22256265D02*
X4957419Y-22351503D01*
X4957419Y-22351503D02*
X4957419Y-22589598D01*
X4957419Y-22589598D02*
X5005038Y-22732455D01*
X5909800Y-23113408D02*
X5957419Y-23256265D01*
X5957419Y-23256265D02*
X5957419Y-23494360D01*
X5957419Y-23494360D02*
X5909800Y-23589598D01*
X5909800Y-23589598D02*
X5862180Y-23637217D01*
X5862180Y-23637217D02*
X5766942Y-23684836D01*
X5766942Y-23684836D02*
X5671704Y-23684836D01*
X5671704Y-23684836D02*
X5576466Y-23637217D01*
X5576466Y-23637217D02*
X5528847Y-23589598D01*
X5528847Y-23589598D02*
X5481228Y-23494360D01*
X5481228Y-23494360D02*
X5433609Y-23303884D01*
X5433609Y-23303884D02*
X5385990Y-23208646D01*
X5385990Y-23208646D02*
X5338371Y-23161027D01*
X5338371Y-23161027D02*
X5243133Y-23113408D01*
X5243133Y-23113408D02*
X5147895Y-23113408D01*
X5147895Y-23113408D02*
X5052657Y-23161027D01*
X5052657Y-23161027D02*
X5005038Y-23208646D01*
X5005038Y-23208646D02*
X4957419Y-23303884D01*
X4957419Y-23303884D02*
X4957419Y-23541979D01*
X4957419Y-23541979D02*
X5005038Y-23684836D01*
X5957419Y-24113408D02*
X4957419Y-24113408D01*
X5909800Y-24541979D02*
X5957419Y-24684836D01*
X5957419Y-24684836D02*
X5957419Y-24922931D01*
X5957419Y-24922931D02*
X5909800Y-25018169D01*
X5909800Y-25018169D02*
X5862180Y-25065788D01*
X5862180Y-25065788D02*
X5766942Y-25113407D01*
X5766942Y-25113407D02*
X5671704Y-25113407D01*
X5671704Y-25113407D02*
X5576466Y-25065788D01*
X5576466Y-25065788D02*
X5528847Y-25018169D01*
X5528847Y-25018169D02*
X5481228Y-24922931D01*
X5481228Y-24922931D02*
X5433609Y-24732455D01*
X5433609Y-24732455D02*
X5385990Y-24637217D01*
X5385990Y-24637217D02*
X5338371Y-24589598D01*
X5338371Y-24589598D02*
X5243133Y-24541979D01*
X5243133Y-24541979D02*
X5147895Y-24541979D01*
X5147895Y-24541979D02*
X5052657Y-24589598D01*
X5052657Y-24589598D02*
X5005038Y-24637217D01*
X5005038Y-24637217D02*
X4957419Y-24732455D01*
X4957419Y-24732455D02*
X4957419Y-24970550D01*
X4957419Y-24970550D02*
X5005038Y-25113407D01*
D11*
X7558333Y-14954819D02*
X7558333Y-15669104D01*
X7558333Y-15669104D02*
X7605952Y-15811961D01*
X7605952Y-15811961D02*
X7701190Y-15907200D01*
X7701190Y-15907200D02*
X7844047Y-15954819D01*
X7844047Y-15954819D02*
X7939285Y-15954819D01*
X7082142Y-15954819D02*
X7082142Y-14954819D01*
X7082142Y-14954819D02*
X6701190Y-14954819D01*
X6701190Y-14954819D02*
X6605952Y-15002438D01*
X6605952Y-15002438D02*
X6558333Y-15050057D01*
X6558333Y-15050057D02*
X6510714Y-15145295D01*
X6510714Y-15145295D02*
X6510714Y-15288152D01*
X6510714Y-15288152D02*
X6558333Y-15383390D01*
X6558333Y-15383390D02*
X6605952Y-15431009D01*
X6605952Y-15431009D02*
X6701190Y-15478628D01*
X6701190Y-15478628D02*
X7082142Y-15478628D01*
X5558333Y-15954819D02*
X6129761Y-15954819D01*
X5844047Y-15954819D02*
X5844047Y-14954819D01*
X5844047Y-14954819D02*
X5939285Y-15097676D01*
X5939285Y-15097676D02*
X6034523Y-15192914D01*
X6034523Y-15192914D02*
X6129761Y-15240533D01*
D12*
X63923332Y-20554318D02*
X63923332Y-21461461D01*
X63923332Y-21461461D02*
X63983809Y-21642889D01*
X63983809Y-21642889D02*
X64104761Y-21763842D01*
X64104761Y-21763842D02*
X64286190Y-21824318D01*
X64286190Y-21824318D02*
X64407142Y-21824318D01*
X62713809Y-20554318D02*
X63318571Y-20554318D01*
X63318571Y-20554318D02*
X63379047Y-21159080D01*
X63379047Y-21159080D02*
X63318571Y-21098603D01*
X63318571Y-21098603D02*
X63197618Y-21038127D01*
X63197618Y-21038127D02*
X62895237Y-21038127D01*
X62895237Y-21038127D02*
X62774285Y-21098603D01*
X62774285Y-21098603D02*
X62713809Y-21159080D01*
X62713809Y-21159080D02*
X62653332Y-21280032D01*
X62653332Y-21280032D02*
X62653332Y-21582413D01*
X62653332Y-21582413D02*
X62713809Y-21703365D01*
X62713809Y-21703365D02*
X62774285Y-21763842D01*
X62774285Y-21763842D02*
X62895237Y-21824318D01*
X62895237Y-21824318D02*
X63197618Y-21824318D01*
X63197618Y-21824318D02*
X63318571Y-21763842D01*
X63318571Y-21763842D02*
X63379047Y-21703365D01*
D13*
%TO.C,JP1*%
X5325000Y-18500000D02*
X8125000Y-18500000D01*
X5325000Y-16500000D02*
X5325000Y-18500000D01*
X8125000Y-18500000D02*
X8125000Y-16500000D01*
X8125000Y-16500000D02*
X5325000Y-16500000D01*
D14*
%TO.C,J5*%
X65910000Y-15430000D02*
X65910000Y-21250000D01*
X60890000Y-24230000D02*
X37790000Y-24230000D01*
X37790000Y-15430000D02*
X65910000Y-15430000D01*
X37790000Y-24230000D02*
X37790000Y-15430000D01*
%TD*%
M02*
